<svg width="1440" height="850" viewBox="0 0 1440 850" fill="none" xmlns="http://www.w3.org/2000/svg">
<g filter="url(#filter0_f_2328_3008)">
<rect x="0.305664" y="602.121" width="119.996" height="119.996" fill="black" fill-opacity="0.01"/>
<rect x="120.302" y="602.121" width="119.996" height="119.996" fill="black" fill-opacity="0.01"/>
<rect x="120.802" y="602.621" width="118.996" height="118.996" stroke="black" stroke-opacity="0.07"/>
<rect x="240.297" y="602.121" width="119.996" height="119.996" fill="black" fill-opacity="0.01"/>
<rect x="240.797" y="602.621" width="118.996" height="118.996" stroke="black" stroke-opacity="0.07"/>
<rect x="360.293" y="602.121" width="119.996" height="119.996" fill="black" fill-opacity="0.01"/>
<rect x="360.793" y="602.621" width="118.996" height="118.996" stroke="black" stroke-opacity="0.07"/>
<rect x="480.288" y="602.121" width="119.996" height="119.996" fill="black" fill-opacity="0.01"/>
<rect x="480.788" y="602.621" width="118.996" height="118.996" stroke="black" stroke-opacity="0.07"/>
<rect x="600.284" y="602.121" width="119.996" height="119.996" fill="black" fill-opacity="0.01"/>
<rect x="600.784" y="602.621" width="118.996" height="118.996" stroke="black" stroke-opacity="0.07"/>
<rect x="720.779" y="602.621" width="118.996" height="118.996" stroke="black" stroke-opacity="0.07"/>
<rect x="840.775" y="602.621" width="118.996" height="118.996" stroke="black" stroke-opacity="0.07"/>
<rect x="960.771" y="602.621" width="118.996" height="118.996" stroke="black" stroke-opacity="0.07"/>
<rect x="1080.77" y="602.621" width="118.996" height="118.996" stroke="black" stroke-opacity="0.07"/>
<rect x="1200.76" y="602.621" width="118.996" height="118.996" stroke="black" stroke-opacity="0.07"/>
<rect x="1320.76" y="602.621" width="118.996" height="118.996" stroke="black" stroke-opacity="0.07"/>
<rect x="0.805664" y="722.617" width="118.996" height="118.996" stroke="black" stroke-opacity="0.07"/>
<rect x="120.802" y="722.617" width="118.996" height="118.996" stroke="black" stroke-opacity="0.07"/>
<rect x="240.797" y="722.617" width="118.996" height="118.996" stroke="black" stroke-opacity="0.07"/>
<rect x="360.793" y="722.617" width="118.996" height="118.996" stroke="black" stroke-opacity="0.07"/>
<rect x="480.788" y="722.617" width="118.996" height="118.996" stroke="black" stroke-opacity="0.07"/>
<rect x="600.784" y="722.617" width="118.996" height="118.996" stroke="black" stroke-opacity="0.07"/>
<rect x="720.779" y="722.617" width="118.996" height="118.996" stroke="black" stroke-opacity="0.07"/>
<rect x="840.775" y="722.617" width="118.996" height="118.996" stroke="black" stroke-opacity="0.07"/>
<rect x="960.771" y="722.617" width="118.996" height="118.996" stroke="black" stroke-opacity="0.07"/>
<rect x="1080.77" y="722.617" width="118.996" height="118.996" stroke="black" stroke-opacity="0.07"/>
<rect x="1200.76" y="722.617" width="118.996" height="118.996" stroke="black" stroke-opacity="0.07"/>
<rect x="1320.76" y="722.617" width="118.996" height="118.996" stroke="black" stroke-opacity="0.07"/>
<rect y="482.565" width="119.996" height="119.996" fill="black" fill-opacity="0.01"/>
<rect x="119.996" y="482.565" width="119.996" height="119.996" fill="black" fill-opacity="0.01"/>
<rect x="120.496" y="483.065" width="118.996" height="118.996" stroke="black" stroke-opacity="0.07"/>
<rect x="239.991" y="482.565" width="119.996" height="119.996" fill="black" fill-opacity="0.01"/>
<rect x="240.491" y="483.065" width="118.996" height="118.996" stroke="black" stroke-opacity="0.07"/>
<rect x="359.987" y="482.565" width="119.996" height="119.996" fill="black" fill-opacity="0.01"/>
<rect x="360.487" y="483.065" width="118.996" height="118.996" stroke="black" stroke-opacity="0.07"/>
<rect x="479.982" y="482.565" width="119.996" height="119.996" fill="black" fill-opacity="0.01"/>
<rect x="480.482" y="483.065" width="118.996" height="118.996" stroke="black" stroke-opacity="0.07"/>
<rect x="599.979" y="482.565" width="119.996" height="119.996" fill="black" fill-opacity="0.01"/>
<rect x="600.479" y="483.065" width="118.996" height="118.996" stroke="black" stroke-opacity="0.07"/>
<rect x="720.474" y="483.065" width="118.996" height="118.996" stroke="black" stroke-opacity="0.07"/>
<rect x="840.47" y="483.065" width="118.996" height="118.996" stroke="black" stroke-opacity="0.07"/>
<rect x="960.465" y="483.065" width="118.996" height="118.996" stroke="black" stroke-opacity="0.07"/>
<rect x="1080.46" y="483.065" width="118.996" height="118.996" stroke="black" stroke-opacity="0.07"/>
<rect x="1200.46" y="483.065" width="118.996" height="118.996" stroke="black" stroke-opacity="0.07"/>
<rect x="1320.45" y="483.065" width="118.996" height="118.996" stroke="black" stroke-opacity="0.07"/>
<rect y="362.569" width="119.996" height="119.996" fill="black" fill-opacity="0.01"/>
<rect x="119.996" y="362.569" width="119.996" height="119.996" fill="black" fill-opacity="0.01"/>
<rect x="120.496" y="363.069" width="118.996" height="118.996" stroke="black" stroke-opacity="0.07"/>
<rect x="239.991" y="362.569" width="119.996" height="119.996" fill="black" fill-opacity="0.01"/>
<rect x="240.491" y="363.069" width="118.996" height="118.996" stroke="black" stroke-opacity="0.07"/>
<rect x="359.987" y="362.569" width="119.996" height="119.996" fill="black" fill-opacity="0.01"/>
<rect x="360.487" y="363.069" width="118.996" height="118.996" stroke="black" stroke-opacity="0.07"/>
<rect x="479.982" y="362.569" width="119.996" height="119.996" fill="black" fill-opacity="0.01"/>
<rect x="480.482" y="363.069" width="118.996" height="118.996" stroke="black" stroke-opacity="0.07"/>
<rect x="599.979" y="362.569" width="119.996" height="119.996" fill="black" fill-opacity="0.01"/>
<rect x="600.479" y="363.069" width="118.996" height="118.996" stroke="black" stroke-opacity="0.07"/>
<rect x="720.474" y="363.069" width="118.996" height="118.996" stroke="black" stroke-opacity="0.07"/>
<rect x="840.47" y="363.069" width="118.996" height="118.996" stroke="black" stroke-opacity="0.07"/>
<rect x="960.465" y="363.069" width="118.996" height="118.996" stroke="black" stroke-opacity="0.07"/>
<rect x="1080.46" y="363.069" width="118.996" height="118.996" stroke="black" stroke-opacity="0.07"/>
<rect x="1200.46" y="363.069" width="118.996" height="118.996" stroke="black" stroke-opacity="0.07"/>
<rect x="1320.45" y="363.069" width="118.996" height="118.996" stroke="black" stroke-opacity="0.07"/>
<rect y="243.046" width="119.996" height="119.996" fill="black" fill-opacity="0.01"/>
<rect x="119.996" y="243.046" width="119.996" height="119.996" fill="black" fill-opacity="0.01"/>
<rect x="120.496" y="243.546" width="118.996" height="118.996" stroke="black" stroke-opacity="0.07"/>
<rect x="239.991" y="243.046" width="119.996" height="119.996" fill="black" fill-opacity="0.01"/>
<rect x="240.491" y="243.546" width="118.996" height="118.996" stroke="black" stroke-opacity="0.07"/>
<rect x="359.987" y="243.046" width="119.996" height="119.996" fill="black" fill-opacity="0.01"/>
<rect x="360.487" y="243.546" width="118.996" height="118.996" stroke="black" stroke-opacity="0.07"/>
<rect x="479.982" y="243.046" width="119.996" height="119.996" fill="black" fill-opacity="0.01"/>
<rect x="480.482" y="243.546" width="118.996" height="118.996" stroke="black" stroke-opacity="0.07"/>
<rect x="599.979" y="243.046" width="119.996" height="119.996" fill="black" fill-opacity="0.01"/>
<rect x="600.479" y="243.546" width="118.996" height="118.996" stroke="black" stroke-opacity="0.07"/>
<rect x="720.474" y="243.546" width="118.996" height="118.996" stroke="black" stroke-opacity="0.07"/>
<rect x="840.47" y="243.546" width="118.996" height="118.996" stroke="black" stroke-opacity="0.07"/>
<rect x="960.465" y="243.546" width="118.996" height="118.996" stroke="black" stroke-opacity="0.07"/>
<rect x="1080.46" y="243.546" width="118.996" height="118.996" stroke="black" stroke-opacity="0.07"/>
<rect x="1200.46" y="243.546" width="118.996" height="118.996" stroke="black" stroke-opacity="0.07"/>
<rect x="1320.45" y="243.546" width="118.996" height="118.996" stroke="black" stroke-opacity="0.07"/>
<rect y="123.523" width="119.996" height="119.996" fill="black" fill-opacity="0.01"/>
<rect x="119.996" y="123.523" width="119.996" height="119.996" fill="black" fill-opacity="0.01"/>
<rect x="120.496" y="124.023" width="118.996" height="118.996" stroke="black" stroke-opacity="0.07"/>
<rect x="239.991" y="123.523" width="119.996" height="119.996" fill="black" fill-opacity="0.01"/>
<rect x="240.491" y="124.023" width="118.996" height="118.996" stroke="black" stroke-opacity="0.07"/>
<rect x="359.987" y="123.523" width="119.996" height="119.996" fill="black" fill-opacity="0.01"/>
<rect x="360.487" y="124.023" width="118.996" height="118.996" stroke="black" stroke-opacity="0.07"/>
<rect x="479.982" y="123.523" width="119.996" height="119.996" fill="black" fill-opacity="0.01"/>
<rect x="480.482" y="124.023" width="118.996" height="118.996" stroke="black" stroke-opacity="0.07"/>
<rect x="599.979" y="123.523" width="119.996" height="119.996" fill="black" fill-opacity="0.01"/>
<rect x="600.479" y="124.023" width="118.996" height="118.996" stroke="black" stroke-opacity="0.07"/>
<rect x="720.474" y="124.023" width="118.996" height="118.996" stroke="black" stroke-opacity="0.07"/>
<rect x="840.47" y="124.023" width="118.996" height="118.996" stroke="black" stroke-opacity="0.07"/>
<rect x="960.465" y="124.023" width="118.996" height="118.996" stroke="black" stroke-opacity="0.07"/>
<rect x="1080.46" y="124.023" width="118.996" height="118.996" stroke="black" stroke-opacity="0.07"/>
<rect x="1200.46" y="124.023" width="118.996" height="118.996" stroke="black" stroke-opacity="0.07"/>
<rect x="1320.45" y="124.023" width="118.996" height="118.996" stroke="black" stroke-opacity="0.07"/>
<rect y="4" width="119.996" height="119.996" fill="black" fill-opacity="0.01"/>
<rect x="119.996" y="4" width="119.996" height="119.996" fill="black" fill-opacity="0.01"/>
<rect x="120.496" y="4.5" width="118.996" height="118.996" stroke="black" stroke-opacity="0.07"/>
<rect x="239.991" y="4" width="119.996" height="119.996" fill="black" fill-opacity="0.01"/>
<rect x="240.491" y="4.5" width="118.996" height="118.996" stroke="black" stroke-opacity="0.07"/>
<rect x="359.987" y="4" width="119.996" height="119.996" fill="black" fill-opacity="0.01"/>
<rect x="360.487" y="4.5" width="118.996" height="118.996" stroke="black" stroke-opacity="0.07"/>
<rect x="479.982" y="4" width="119.996" height="119.996" fill="black" fill-opacity="0.01"/>
<rect x="480.482" y="4.5" width="118.996" height="118.996" stroke="black" stroke-opacity="0.07"/>
<rect x="599.979" y="4" width="119.996" height="119.996" fill="black" fill-opacity="0.01"/>
<rect x="600.479" y="4.5" width="118.996" height="118.996" stroke="black" stroke-opacity="0.07"/>
<rect x="720.474" y="4.5" width="118.996" height="118.996" stroke="black" stroke-opacity="0.07"/>
<rect x="840.47" y="4.5" width="118.996" height="118.996" stroke="black" stroke-opacity="0.07"/>
<rect x="960.465" y="4.5" width="118.996" height="118.996" stroke="black" stroke-opacity="0.07"/>
<rect x="1080.46" y="4.5" width="118.996" height="118.996" stroke="black" stroke-opacity="0.07"/>
<rect x="1200.46" y="4.5" width="118.996" height="118.996" stroke="black" stroke-opacity="0.07"/>
<rect x="1320.45" y="4.5" width="118.996" height="118.996" stroke="black" stroke-opacity="0.07"/>
<rect x="0.805664" y="842.613" width="118.996" height="118.996" stroke="black" stroke-opacity="0.07"/>
<rect x="120.802" y="842.613" width="118.996" height="118.996" stroke="black" stroke-opacity="0.07"/>
<rect x="240.797" y="842.613" width="118.996" height="118.996" stroke="black" stroke-opacity="0.07"/>
<rect x="360.793" y="842.613" width="118.996" height="118.996" stroke="black" stroke-opacity="0.07"/>
<rect x="480.788" y="842.613" width="118.996" height="118.996" stroke="black" stroke-opacity="0.07"/>
<rect x="600.784" y="842.613" width="118.996" height="118.996" stroke="black" stroke-opacity="0.07"/>
<rect x="720.779" y="842.613" width="118.996" height="118.996" stroke="black" stroke-opacity="0.07"/>
<rect x="840.775" y="842.613" width="118.996" height="118.996" stroke="black" stroke-opacity="0.07"/>
<rect x="960.771" y="842.613" width="118.996" height="118.996" stroke="black" stroke-opacity="0.07"/>
<rect x="1080.77" y="842.613" width="118.996" height="118.996" stroke="black" stroke-opacity="0.07"/>
<rect x="1200.76" y="842.613" width="118.996" height="118.996" stroke="black" stroke-opacity="0.07"/>
<rect x="1320.76" y="842.613" width="118.996" height="118.996" stroke="black" stroke-opacity="0.07"/>
<rect width="1440" height="406" transform="matrix(1 0 0 -1 0 348)" fill="url(#paint0_linear_2328_3008)"/>
<rect x="0.5" y="-0.5" width="1439" height="405" transform="matrix(1 0 0 -1 0 347)" stroke="black" stroke-opacity="0.07"/>
</g>
<defs>
<filter id="filter0_f_2328_3008" x="-4" y="-62" width="1448.25" height="1028.11" filterUnits="userSpaceOnUse" color-interpolation-filters="sRGB">
<feFlood flood-opacity="0" result="BackgroundImageFix"/>
<feBlend mode="normal" in="SourceGraphic" in2="BackgroundImageFix" result="shape"/>
<feGaussianBlur stdDeviation="2" result="effect1_foregroundBlur_2328_3008"/>
</filter>
<linearGradient id="paint0_linear_2328_3008" x1="720" y1="406" x2="720" y2="0" gradientUnits="userSpaceOnUse">
<stop stop-color="white"/>
<stop offset="1" stop-color="white" stop-opacity="0"/>
</linearGradient>
</defs>
</svg>
