<svg width="735" height="735" viewBox="0 0 735 735" fill="none" xmlns="http://www.w3.org/2000/svg">
<g opacity="0.7">
<path d="M198.971 139.687L252.002 115.402L305.033 91.1171L367.308 367.197L535.837 595.124L429.774 643.694L367.308 367.197L198.971 139.687Z" fill="#2BBDDF"/>
<path d="M595.123 198.971L619.408 252.002L643.693 305.033L367.613 367.308L139.686 535.836L91.1158 429.774L367.613 367.308L595.123 198.971Z" fill="#2BBDDF"/>
<path d="M409.324 87.2825L463.995 107.609L518.666 127.936L367.483 367.188L325.482 647.525L216.14 606.871L367.483 367.188L409.324 87.2825Z" fill="#003CEC"/>
<path d="M647.522 409.326L627.196 463.997L606.869 518.667L367.616 367.484L87.2799 325.483L127.933 216.141L367.616 367.484L647.522 409.326Z" fill="#003CEC"/>
</g>
</svg>
