<svg width="452" height="452" viewBox="0 0 452 452" fill="none" xmlns="http://www.w3.org/2000/svg">
<g opacity="0.7">
<path d="M122.259 85.8316L154.844 70.9096L187.43 55.9875L225.695 225.626L329.248 365.677L264.077 395.522L225.695 225.626L122.259 85.8316Z" fill="#F09789"/>
<path d="M365.677 122.259L380.599 154.844L395.521 187.429L225.882 225.695L85.831 329.248L55.9868 264.077L225.882 225.695L365.677 122.259Z" fill="#F09789"/>
<path d="M251.511 53.6312L285.104 66.1211L318.697 78.611L225.802 225.621L199.994 397.876L132.808 372.896L225.802 225.621L251.511 53.6312Z" fill="#D696E0"/>
<path d="M397.874 251.512L385.384 285.105L372.894 318.698L225.884 225.803L53.6296 199.995L78.6094 132.809L225.884 225.803L397.874 251.512Z" fill="#D696E0"/>
</g>
</svg>
