<svg width="739" height="792" viewBox="0 0 739 792" fill="none" xmlns="http://www.w3.org/2000/svg">
<g clip-path="url(#paint0_angular_2203_8601_clip_path)" data-figma-skip-parse="true"><g transform="matrix(-0.0189935 0.165544 0.165545 0.018993 400.048 408.19)"><foreignObject x="-3082.6" y="-3082.6" width="6165.19" height="6165.19"><div xmlns="http://www.w3.org/1999/xhtml" style="background:conic-gradient(from 90deg,rgba(0, 60, 236, 1) 0deg,rgba(255, 255, 255, 1) 58.8462deg,rgba(0, 176, 216, 1) 131.538deg,rgba(0, 60, 236, 1) 360deg);height:100%;width:100%;opacity:0.2"></div></foreignObject></g></g><path d="M649.317 329.752C627.251 401.988 582.739 465.962 522.199 511.737C505.471 585.761 465.556 652.692 408.86 702.586C465.495 719.887 527.207 723.392 589.203 710.01C641.954 698.623 689.473 676.183 729.858 645.644C741.016 596.262 741.856 543.723 730.47 490.978C717.088 428.981 688.439 374.208 649.317 329.752ZM36.0407 462.138C18.7408 518.772 15.2357 580.482 28.6176 642.477C40.0039 695.226 62.443 742.744 92.9808 783.128C142.36 794.284 194.895 795.123 247.636 783.739C309.633 770.356 364.404 741.708 408.86 702.586C336.629 680.52 272.659 636.011 226.886 575.475C152.863 558.747 85.9341 518.833 36.0407 462.138ZM96.1374 81.8859C43.3943 93.2708 -4.11925 115.705 -44.5007 146.237C-55.6611 195.622 -56.5008 248.165 -45.1146 300.914C-31.7321 362.911 -3.08205 417.683 36.0407 462.138C58.1045 389.909 102.608 325.939 163.14 280.165C179.867 206.138 219.784 139.205 276.482 89.3097C219.846 72.0082 158.134 68.5036 96.1374 81.8859ZM437.704 8.15675C375.708 21.539 320.937 50.1878 276.482 89.3097C348.708 111.374 412.676 155.879 458.449 216.41C532.481 233.135 599.418 273.052 649.317 329.752C666.616 273.119 670.121 211.409 656.739 149.415C645.354 96.6692 622.916 49.1536 592.381 8.77059C542.996 -2.38973 490.453 -3.22941 437.704 8.15675Z" data-figma-gradient-fill="{&#34;type&#34;:&#34;GRADIENT_ANGULAR&#34;,&#34;stops&#34;:[{&#34;color&#34;:{&#34;r&#34;:0.0,&#34;g&#34;:0.23529411852359772,&#34;b&#34;:0.92549020051956177,&#34;a&#34;:1.0},&#34;position&#34;:0.0},{&#34;color&#34;:{&#34;r&#34;:1.0,&#34;g&#34;:1.0,&#34;b&#34;:1.0,&#34;a&#34;:1.0},&#34;position&#34;:0.16346153616905212},{&#34;color&#34;:{&#34;r&#34;:0.0,&#34;g&#34;:0.69019609689712524,&#34;b&#34;:0.84705883264541626,&#34;a&#34;:1.0},&#34;position&#34;:0.36538460850715637},{&#34;color&#34;:{&#34;r&#34;:0.0,&#34;g&#34;:0.23529411852359772,&#34;b&#34;:0.92549020051956177,&#34;a&#34;:1.0},&#34;position&#34;:1.0}],&#34;stopsVar&#34;:[{&#34;color&#34;:{&#34;r&#34;:0.0,&#34;g&#34;:0.23529411852359772,&#34;b&#34;:0.92549020051956177,&#34;a&#34;:1.0},&#34;position&#34;:0.0},{&#34;color&#34;:{&#34;r&#34;:1.0,&#34;g&#34;:1.0,&#34;b&#34;:1.0,&#34;a&#34;:1.0},&#34;position&#34;:0.16346153616905212},{&#34;color&#34;:{&#34;r&#34;:0.0,&#34;g&#34;:0.69019609689712524,&#34;b&#34;:0.84705883264541626,&#34;a&#34;:1.0},&#34;position&#34;:0.36538460850715637},{&#34;color&#34;:{&#34;r&#34;:0.0,&#34;g&#34;:0.23529411852359772,&#34;b&#34;:0.92549020051956177,&#34;a&#34;:1.0},&#34;position&#34;:1.0}],&#34;transform&#34;:{&#34;m00&#34;:-37.986930847167969,&#34;m01&#34;:331.08914184570312,&#34;m02&#34;:253.49664306640625,&#34;m10&#34;:331.08758544921875,&#34;m11&#34;:37.986000061035156,&#34;m12&#34;:223.65270996093750},&#34;opacity&#34;:0.20000000298023224,&#34;blendMode&#34;:&#34;NORMAL&#34;,&#34;visible&#34;:true}"/>
<defs>
<clipPath id="paint0_angular_2203_8601_clip_path"><path d="M649.317 329.752C627.251 401.988 582.739 465.962 522.199 511.737C505.471 585.761 465.556 652.692 408.86 702.586C465.495 719.887 527.207 723.392 589.203 710.01C641.954 698.623 689.473 676.183 729.858 645.644C741.016 596.262 741.856 543.723 730.47 490.978C717.088 428.981 688.439 374.208 649.317 329.752ZM36.0407 462.138C18.7408 518.772 15.2357 580.482 28.6176 642.477C40.0039 695.226 62.443 742.744 92.9808 783.128C142.36 794.284 194.895 795.123 247.636 783.739C309.633 770.356 364.404 741.708 408.86 702.586C336.629 680.52 272.659 636.011 226.886 575.475C152.863 558.747 85.9341 518.833 36.0407 462.138ZM96.1374 81.8859C43.3943 93.2708 -4.11925 115.705 -44.5007 146.237C-55.6611 195.622 -56.5008 248.165 -45.1146 300.914C-31.7321 362.911 -3.08205 417.683 36.0407 462.138C58.1045 389.909 102.608 325.939 163.14 280.165C179.867 206.138 219.784 139.205 276.482 89.3097C219.846 72.0082 158.134 68.5036 96.1374 81.8859ZM437.704 8.15675C375.708 21.539 320.937 50.1878 276.482 89.3097C348.708 111.374 412.676 155.879 458.449 216.41C532.481 233.135 599.418 273.052 649.317 329.752C666.616 273.119 670.121 211.409 656.739 149.415C645.354 96.6692 622.916 49.1536 592.381 8.77059C542.996 -2.38973 490.453 -3.22941 437.704 8.15675Z"/></clipPath></defs>
</svg>
