<svg width="164" height="47" viewBox="0 0 164 47" fill="none" xmlns="http://www.w3.org/2000/svg">
<path d="M52.282 21.0322H48.7542L51.7236 4.17991H55.2514L52.282 21.0322ZM64.3761 21.0322H61.0514L62.3965 13.469C62.4726 13.0629 62.498 12.7076 62.498 12.403C62.498 11.2863 61.9397 11.0071 60.696 11.0071C58.9702 11.0071 57.955 11.9716 57.6251 13.8751L56.3561 21.0322H53.0567L55.2647 8.54527H58.4118L58.0819 10.3726C59.0971 8.97673 60.493 8.21533 62.498 8.21533C64.5792 8.21533 65.9751 9.33205 65.9751 11.4132C65.9751 11.7178 65.9497 12.0477 65.8989 12.3776L64.3761 21.0322ZM69.1624 21.0322H65.9138L67.7158 10.8802H65.863L66.2691 8.54527H68.1219C68.6548 5.49967 70.6599 3.97687 74.2131 3.97687L73.7562 6.64177C72.0811 6.64177 71.6243 7.09861 71.3705 8.54527H73.5024L73.0963 10.8802H70.9644L69.1624 21.0322ZM77.3525 18.5957C79.9158 18.5957 81.1595 16.7176 81.1595 13.7735C81.1595 11.5147 80.3219 11.0071 78.6976 11.0071C76.1088 11.0071 74.8906 12.8599 74.8906 15.8039C74.8906 17.9612 75.7028 18.5957 77.3525 18.5957ZM76.8702 21.3622C73.3678 21.3622 71.4643 19.1795 71.4643 16.007C71.4643 11.464 74.6368 8.21533 79.1798 8.21533C82.5554 8.21533 84.5096 10.3219 84.5096 13.5451C84.5096 18.1135 81.3371 21.3622 76.8702 21.3622ZM87.2522 21.0322H83.9528V8.54527H87.0492V10.0427C88.1405 8.36761 89.4095 8.21533 90.7547 8.21533H91.1861V11.5909C90.8816 11.5401 90.577 11.5147 90.2725 11.5147C88.2421 11.5147 87.2522 12.5299 87.2522 14.5349V21.0322ZM109.467 21.0322H106.244V13.469C106.244 11.9716 105.457 10.9056 104.29 10.9056C103.071 10.9056 102.183 12.0477 102.183 13.5705V21.0322H98.8836V13.5197C98.8836 11.5147 98.3506 11.0071 96.904 11.0071C95.5842 11.0071 94.899 11.8193 94.899 13.4436V21.0322H91.5996V8.54527H94.6959V10.3726C95.5335 8.72293 96.7009 8.21533 98.3506 8.21533C100.051 8.21533 100.863 8.74831 101.828 10.195C102.513 8.82445 103.63 8.21533 105.203 8.21533C107.716 8.21533 109.467 10.0427 109.467 12.3776V21.0322ZM117.789 16.2862L117.815 14.9156C117.485 15.2456 116.901 15.4232 115.683 15.6517C113.805 16.007 113.196 16.54 113.196 17.6059C113.196 18.545 113.754 19.0018 114.794 19.0018C116.495 19.0018 117.764 17.7582 117.789 16.2862ZM121.114 21.0322H118.043C117.942 20.7277 117.865 20.2962 117.84 19.9155C117.053 20.7784 115.734 21.3622 114.058 21.3622C111.216 21.3622 109.896 19.9663 109.896 17.9359C109.896 14.3319 112.307 13.9258 115.632 13.469C117.282 13.2406 117.739 12.9106 117.739 12.0477C117.739 11.2355 116.926 10.7533 115.632 10.7533C114.135 10.7533 113.525 11.4893 113.373 12.6061H110.302C110.353 10.0173 111.774 8.21533 115.784 8.21533C119.744 8.21533 121.114 9.99193 121.114 13.139V21.0322ZM129.143 16.0577V12.8091H132.213V16.3623C132.213 19.0018 130.691 21.3622 127.163 21.3622C123.508 21.3622 122.061 19.0272 122.061 16.3369V5.16973H125.31V8.54527H132.213V10.8802H125.31V16.007C125.31 17.5805 125.868 18.4942 127.214 18.4942C128.533 18.4942 129.143 17.6059 129.143 16.0577ZM136.43 21.0322H133.13V8.54527H136.43V21.0322ZM136.43 7.04785H133.13V3.97687H136.43V7.04785ZM143.571 18.5957C145.576 18.5957 146.591 17.3267 146.591 14.7887C146.591 12.2507 145.576 11.0071 143.571 11.0071C141.566 11.0071 140.551 12.2507 140.551 14.7887C140.551 17.3267 141.566 18.5957 143.571 18.5957ZM143.571 21.3622C139.536 21.3622 137.15 18.6719 137.15 14.7887C137.15 10.8295 139.612 8.21533 143.571 8.21533C147.48 8.21533 149.916 10.8041 149.916 14.7887C149.916 18.748 147.454 21.3622 143.571 21.3622ZM161.923 21.0322H158.598V13.469C158.598 11.5401 158.039 11.0071 156.466 11.0071C154.74 11.0071 153.902 11.9716 153.902 13.8751V21.0322H150.603V8.54527H153.75V10.3726C154.512 8.97673 155.781 8.21533 157.786 8.21533C160.171 8.21533 161.923 9.66199 161.923 12.3776V21.0322ZM65.0989 44.0322H61.7995V32.4843L58.6524 44.0322H55.1499L52.0282 32.5351V44.0322H48.7542V27.1799H53.9317L56.9773 39.54L60.0229 27.1799H65.0989V44.0322ZM78.5328 38.6517H69.9036V39.2354C69.9036 41.012 70.7412 41.748 72.1878 41.748C73.2538 41.748 74.2944 41.215 74.6751 40.3521H78.076C76.8577 42.9155 74.5482 44.3622 71.8833 44.3622C68.3808 44.3622 66.6296 42.5856 66.6296 39.21C66.6296 34.3878 69.5229 31.2153 73.9898 31.2153C77.1369 31.2153 78.7612 32.8904 78.7612 36.2152C78.7612 36.9512 78.6851 37.7634 78.5328 38.6517ZM70.2843 36.5705H75.5126C75.5634 36.2913 75.5634 36.0375 75.5634 35.8091C75.5634 34.2102 74.5482 33.8295 73.4314 33.8295C71.7564 33.8295 70.7665 35.0223 70.2843 36.5705ZM84.14 41.6719C85.7136 41.6719 86.9318 40.1998 86.9318 38.0933C86.9318 35.3776 85.9928 34.0325 84.1654 34.0325C82.2365 34.0325 81.3228 35.3269 81.3228 37.8903C81.3228 40.1237 82.4903 41.6719 84.14 41.6719ZM90.0536 44.0322H86.8811L86.8557 42.5094C86.0689 43.7784 84.9014 44.3622 83.3786 44.3622C80.2315 44.3622 77.9727 41.8749 77.9727 37.6618C77.9727 33.8802 79.8762 31.2153 83.0994 31.2153C84.6476 31.2153 85.8659 31.8498 86.8049 33.1696V26.9769H90.0536V44.0322ZM94.3793 44.0322H91.0799V31.5453H94.3793V44.0322ZM94.3793 30.0478H91.0799V26.9769H94.3793V30.0478ZM102.942 39.2862L102.967 37.9156C102.637 38.2456 102.054 38.4232 100.835 38.6517C98.9574 39.007 98.3483 39.54 98.3483 40.6059C98.3483 41.545 98.9066 42.0018 99.9472 42.0018C101.648 42.0018 102.917 40.7582 102.942 39.2862ZM106.267 44.0322H103.196C103.094 43.7277 103.018 43.2962 102.993 42.9155C102.206 43.7784 100.886 44.3622 99.2112 44.3622C96.3686 44.3622 95.0489 42.9663 95.0489 40.9359C95.0489 37.3319 97.46 36.9258 100.785 36.469C102.434 36.2406 102.891 35.9106 102.891 35.0477C102.891 34.2355 102.079 33.7533 100.785 33.7533C99.2873 33.7533 98.6782 34.4893 98.5259 35.6061H95.4549C95.5057 33.0173 96.927 31.2153 100.937 31.2153C104.896 31.2153 106.267 32.9919 106.267 36.139V44.0322Z" fill="white"/>
<path d="M20.5654 35.4329C20.9206 34.8915 21.7143 34.8915 22.0696 35.4329L26.9965 42.9405C27.109 43.1118 27.2766 43.2397 27.4716 43.3028L33.4705 45.2446C34.4457 45.5603 34.2185 47.0001 33.1934 47.0001H9.44141C8.41641 47.0001 8.18918 45.5603 9.16437 45.2446L15.1633 43.3028C15.3583 43.2397 15.5259 43.1118 15.6384 42.9405L20.5654 35.4329Z" fill="white"/>
<path d="M20.5654 11.5671C20.9206 12.1085 21.7143 12.1085 22.0696 11.5671L26.9965 4.05951C27.109 3.88815 27.2766 3.76034 27.4716 3.69722L33.4705 1.75537C34.4457 1.4397 34.2185 -8.72719e-05 33.1934 -8.72719e-05L9.44141 -8.72719e-05C8.41641 -8.72719e-05 8.18918 1.43971 9.16437 1.75537L15.1633 3.69722C15.3583 3.76034 15.5259 3.88815 15.6384 4.05951L20.5654 11.5671Z" fill="white"/>
<path d="M40.1815 12.6846C42.4284 14.3778 43.3299 17.3262 42.414 19.9863L36.4218 37.3896C35.6283 39.6935 33.6273 41.327 31.2782 41.6914L29.453 39.1768C29.6763 39.13 29.8994 39.0818 30.122 39.0303L30.8925 38.8516L31.2187 38.1318C31.5468 37.4065 31.8789 36.4558 32.1474 35.3506L33.5585 35.8857C35.0169 33.5476 37.9388 27.2353 38.412 19.9902L38.4501 19.4072L38.1024 18.9365C37.6977 18.3888 37.1003 17.7897 36.3134 17.208C36.211 16.9053 36.0784 16.6132 35.914 16.3369L36.5839 15.498C35.3219 14.0097 32.3855 11.2149 28.3798 8.76465L30.7138 5.55078L40.1815 12.6846ZM14.5487 8.7207C11.6919 10.4328 8.12145 13.0744 5.12881 16.6162L4.75088 17.0625V17.6475C4.75089 18.5234 4.95659 19.6575 5.45108 20.9268L4.09756 21.2705C4.24325 24.022 5.46743 30.8691 9.23428 37.0771L9.53799 37.5771L10.0927 37.7627C10.9518 38.0514 12.1427 38.2196 13.5663 38.1367L13.5751 39.0762L11.8534 41.4482L11.7636 41.4473C8.95063 41.3981 6.48865 39.5429 5.66592 36.8525L0.284085 19.25C-0.538204 16.5597 0.465113 13.645 2.76944 12.0312L12.1728 5.44727L14.5487 8.7207ZM28.9657 37.6445C28.8941 37.6591 28.8225 37.6734 28.7509 37.6875C28.8225 37.6734 28.8941 37.6591 28.9657 37.6445ZM29.4608 37.541C29.4207 37.5499 29.3799 37.5577 29.3397 37.5664C29.4803 37.5359 29.6214 37.5051 29.7616 37.4727L29.4608 37.541Z" fill="white"/>
<path d="M19.9379 19.128C20.7679 18.525 21.8918 18.525 22.7218 19.128L25.1077 20.8615C25.9377 21.4645 26.285 22.5333 25.9679 23.509L25.0566 26.3139C24.7396 27.2896 23.8303 27.9502 22.8044 27.9502H19.8553C18.8294 27.9502 17.9201 27.2896 17.6031 26.3139L16.6918 23.509C16.3747 22.5333 16.722 21.4645 17.552 20.8615L19.9379 19.128Z" fill="white"/>
<path d="M28.5093 24.0173C29.6857 26.136 30.0782 28.4182 30.053 30.5096C30.0244 32.8785 29.4596 34.9737 28.922 36.2496C24.5014 37.2274 19.8791 37.1504 16.815 36.8565C25.0299 34.1958 27.9293 28.0341 28.5093 24.0173Z" fill="white"/>
<path d="M7.17725 23.8108C11.5483 30.4011 18.6637 31.4581 23.0201 31.0191C17.8819 35.5408 13.2072 35.652 11.3449 35.1289C8.92395 31.0876 7.70293 26.748 7.17725 23.8108Z" fill="white"/>
<path d="M23.4554 16.9208C30.2662 16.1505 34.1608 18.7297 35.3863 20.2217C35.0459 24.917 33.5503 29.1711 32.2919 31.878C32.4993 23.9815 27.2775 19.0504 23.4554 16.9208Z" fill="white"/>
<path d="M16.8958 10.6562C12.0371 16.8855 13.2958 23.9438 15.0973 27.9204C9.17176 24.5065 7.57982 20.1251 7.48368 18.1994C10.5476 14.6256 14.2756 12.0895 16.8958 10.6562Z" fill="white"/>
<path d="M22.1465 8.88745C26.5257 10.6425 30.1317 13.3581 32.3348 15.3787C24.8541 12.7733 18.549 16.2264 15.3491 19.2047C16.6922 12.5035 20.3466 9.59439 22.1465 8.88745Z" fill="white"/>
</svg>
