<svg width="230" height="47" viewBox="0 0 230 47" fill="none" xmlns="http://www.w3.org/2000/svg">
<path d="M19.8605 35.8474C20.203 35.3254 20.9683 35.3254 21.3108 35.8474L26.0612 43.086C26.1697 43.2512 26.3313 43.3744 26.5193 43.4353L32.3032 45.3076C33.2435 45.6119 33.0244 47.0001 32.0361 47.0001H9.13511C8.14684 47.0001 7.92775 45.6119 8.868 45.3076L14.652 43.4353C14.84 43.3744 15.0016 43.2512 15.1101 43.086L19.8605 35.8474Z" fill="white"/>
<path d="M19.8605 11.1529C20.203 11.6748 20.9683 11.6748 21.3108 11.1529L26.0612 3.91425C26.1697 3.74904 26.3313 3.6258 26.5193 3.56494L32.3032 1.69267C33.2435 1.38831 33.0244 0.000111512 32.0361 0.000111512L9.13511 0.000111512C8.14684 0.000111512 7.92775 1.38832 8.868 1.69267L14.652 3.56494C14.84 3.6258 15.0016 3.74904 15.1101 3.91425L19.8605 11.1529Z" fill="white"/>
<path d="M16.8848 35.6231C16.8848 35.8599 16.7351 36.0709 16.5117 36.1491L10.5523 38.2362C10.4931 38.2569 10.4309 38.2675 10.3681 38.2675H10.2175C9.90967 38.2675 9.66016 38.018 9.66016 37.7102V28.7478C9.66016 28.5469 9.76824 28.3616 9.94306 28.2627L16.0531 24.8063C16.4246 24.5962 16.8848 24.8646 16.8848 25.2914V35.6231ZM24.8828 32.8223C24.8828 33.0591 24.7332 33.2701 24.5097 33.3483L18.3997 35.4874C18.0373 35.6143 17.6582 35.3453 17.6582 34.9614V24.6243C17.6582 24.4434 17.746 24.2737 17.8938 24.1693L24.0038 19.849C24.3729 19.588 24.8828 19.852 24.8828 20.304V32.8223ZM32.8809 30.0216C32.8809 30.2584 32.7312 30.4693 32.5077 30.5475L26.3987 32.6866C26.0363 32.8134 25.6572 32.5445 25.6572 32.1606V19.507C25.6572 19.3311 25.7403 19.1655 25.8813 19.0603L31.9904 14.5039C32.3579 14.2298 32.8809 14.4921 32.8809 14.9506V30.0216Z" fill="white"/>
<path d="M32.9626 8.3865C33.4026 8.41815 33.6846 8.87001 33.5193 9.27908L31.9284 13.2117C31.7293 13.7044 31.0554 13.7632 30.7741 13.3123L30.3533 12.6385L23.615 16.4226L23.8806 16.8875C24.0588 17.1991 23.95 17.5969 23.6384 17.7752L16.9284 21.6121L17.3581 22.3914C17.5311 22.7058 17.4166 23.101 17.1023 23.2742L8.13645 28.2127C7.82193 28.3859 7.4269 28.2713 7.25364 27.9568L6.26731 26.1678C6.09406 25.8532 6.20865 25.4572 6.52317 25.284L12.9909 21.7205L12.5779 20.9988C12.3996 20.6871 12.5074 20.2904 12.8191 20.1121L19.1726 16.4763L18.8943 15.989C18.7156 15.6767 18.8245 15.2781 19.1374 15.1004L28.5544 9.75369L28.1325 9.07693C27.8517 8.62616 28.2004 8.04718 28.7302 8.08475L32.9626 8.3865ZM17.0574 23.1931L17.1394 23.1385C17.1424 23.136 17.1442 23.1322 17.1472 23.1297C17.1196 23.1529 17.0902 23.1751 17.0574 23.1931ZM17.2761 22.4363C17.3127 22.5028 17.3338 22.5733 17.3415 22.6443C17.3377 22.6093 17.3317 22.5742 17.321 22.5398L17.2771 22.4363L16.8034 21.5769H16.8025L17.2761 22.4363Z" fill="white"/>
<path d="M11.5576 6.57471C12.0819 6.19396 12.8158 6.31123 13.1953 6.83643L15.3046 9.75928C15.6822 10.2825 15.5656 11.0126 15.0439 11.3921L7.94136 16.5522C6.40191 17.671 5.75772 19.6544 6.34565 21.4644L6.86225 23.0562L5.5019 23.8062C4.41086 24.4074 4.01422 25.7794 4.61518 26.8706L5.77534 28.978C6.25873 29.8556 7.24021 30.2822 8.17378 30.104V38.2681C8.17383 39.0887 8.83945 39.7543 9.66011 39.7544H10.4648C10.632 39.7544 10.7982 39.7257 10.956 39.6704L14.3857 38.4683L12.6874 40.8169C12.4672 41.1212 12.1142 41.3089 11.7402 41.2749C9.19929 41.0431 6.56815 39.3667 5.79096 36.9751L0.306589 20.0962C-0.531298 17.5165 0.387593 14.6896 2.58198 13.0952L11.5576 6.57471ZM38.6582 13.0952C40.8525 14.6896 41.7714 17.5165 40.9335 20.0962L35.4492 36.9751C34.6718 39.3673 31.9448 41.0437 29.3896 41.2749C29.0155 41.3086 28.6626 41.1212 28.4423 40.8169L26.1533 37.6548C25.7577 37.1076 26.1489 36.3423 26.8242 36.3423C28.7272 36.3421 30.4137 35.1161 31.0019 33.3062L31.2421 32.5659L33.372 31.8208C33.9678 31.6121 34.3671 31.0498 34.3671 30.4185V22.9487L34.8496 21.4644C35.265 20.1856 35.0631 18.8215 34.3671 17.7358V14.4897C34.367 14.0199 34.1481 13.6019 33.8076 13.3296L34.9824 10.4253L38.6582 13.0952ZM8.17378 28.0864L7.93354 28.2192L7.92182 28.2241C7.92531 28.2223 7.92911 28.2211 7.93257 28.2192L8.17378 28.0855V28.0864Z" fill="white"/>
<path d="M59.6155 33.0002H46.824L49.7934 16.1479H62.1789L61.6713 19.092H52.7121L52.0776 22.696H60.3261L59.7932 25.6654H51.5447L50.7833 30.0054H60.1485L59.6155 33.0002ZM71.7275 33.0002H68.4027L69.7479 25.437C69.824 25.0309 69.8494 24.6756 69.8494 24.371C69.8494 23.2543 69.291 22.9751 68.0474 22.9751C66.3216 22.9751 65.3064 23.9396 64.9764 25.8431L63.7074 33.0002H60.408L62.6161 20.5133H65.7632L65.4333 22.3406C66.4485 20.9447 67.8444 20.1833 69.8494 20.1833C71.9305 20.1833 73.3264 21.3001 73.3264 23.3812C73.3264 23.6858 73.3011 24.0157 73.2503 24.3457L71.7275 33.0002ZM84.771 24.7771L84.1365 28.3303C83.6543 30.9698 81.7508 33.3302 78.223 33.3302C75.1266 33.3302 73.9084 31.6551 73.9084 29.4978C73.9084 29.1171 73.9338 28.711 74.0099 28.3049L75.9642 17.1377H79.2128L78.6291 20.5133H85.5324L85.1264 22.8482H78.223L77.3093 27.975C77.2332 28.3557 77.2078 28.6856 77.2078 28.9648C77.2078 30.0562 77.7154 30.4622 78.7814 30.4622C80.0504 30.4622 80.8625 29.5739 81.1417 28.0258L81.7001 24.7771H84.771ZM87.9721 33.0002H84.6727V20.5133H87.769V22.0107C88.8604 20.3356 90.1294 20.1833 91.4745 20.1833H91.906V23.5589C91.6014 23.5081 91.2969 23.4827 90.9923 23.4827C88.9619 23.4827 87.9721 24.4979 87.9721 26.503V33.0002ZM95.1804 25.5385H100.282C100.231 23.6858 99.0128 22.7975 97.7184 22.7975C96.3986 22.7975 95.3073 23.8127 95.1804 25.5385ZM103.683 27.6197H95.0789C95.1804 29.4978 96.2464 30.716 97.8707 30.716C98.9366 30.716 99.8757 30.1831 100.104 29.3201H103.505C102.744 31.8835 100.688 33.3302 98.023 33.3302C93.8606 33.3302 91.7795 31.046 91.7795 26.5283C91.7795 22.6706 93.9875 20.1833 97.8199 20.1833C101.652 20.1833 103.683 22.6706 103.683 27.6197ZM111.143 30.513C113.731 30.513 114.772 28.4572 114.772 25.8431C114.772 23.5335 113.909 22.8736 112.513 22.8736C110.711 22.8736 108.96 24.7264 108.96 27.6704C108.96 29.8277 109.696 30.513 111.143 30.513ZM107.031 38.9138H103.782L107.031 20.5133H110.204L109.95 22.0361C110.965 20.7671 112.234 20.1833 113.757 20.1833C116.422 20.1833 118.148 22.1376 118.148 25.4116C118.148 29.8277 115.533 33.3302 111.726 33.3302C110.178 33.3302 109.061 32.6957 108.351 31.3759L107.031 38.9138ZM121.407 33.0002H118.108L120.316 20.5133H123.412L123.133 22.0107C124.529 20.3356 125.823 20.1833 127.169 20.1833H127.6L127.016 23.5589C126.712 23.5081 126.407 23.4827 126.103 23.4827C124.072 23.4827 122.905 24.4979 122.549 26.503L121.407 33.0002ZM138.057 27.6197H129.428V28.2034C129.428 29.98 130.265 30.716 131.712 30.716C132.778 30.716 133.818 30.1831 134.199 29.3201H137.6C136.382 31.8835 134.072 33.3302 131.407 33.3302C127.905 33.3302 126.154 31.5536 126.154 28.178C126.154 23.3558 129.047 20.1833 133.514 20.1833C136.661 20.1833 138.285 21.8584 138.285 25.1832C138.285 25.9192 138.209 26.7314 138.057 27.6197ZM129.808 25.5385H135.037C135.087 25.2593 135.087 25.0055 135.087 24.7771C135.087 23.1782 134.072 22.7975 132.956 22.7975C131.28 22.7975 130.291 23.9903 129.808 25.5385ZM149.578 33.0002H146.253V25.437C146.253 23.5081 145.695 22.9751 144.121 22.9751C142.395 22.9751 141.558 23.9396 141.558 25.8431V33.0002H138.258V20.5133H141.405V22.3406C142.167 20.9447 143.436 20.1833 145.441 20.1833C147.826 20.1833 149.578 21.63 149.578 24.3457V33.0002ZM154.144 25.5385H159.246C159.195 23.6858 157.977 22.7975 156.682 22.7975C155.363 22.7975 154.271 23.8127 154.144 25.5385ZM162.647 27.6197H154.043C154.144 29.4978 155.21 30.716 156.835 30.716C157.901 30.716 158.84 30.1831 159.068 29.3201H162.469C161.708 31.8835 159.652 33.3302 156.987 33.3302C152.825 33.3302 150.743 31.046 150.743 26.5283C150.743 22.6706 152.951 20.1833 156.784 20.1833C160.616 20.1833 162.647 22.6706 162.647 27.6197ZM175.03 33.0002H171.909V31.249C171.046 32.6703 169.751 33.3302 168.025 33.3302C165.538 33.3302 163.787 31.4774 163.787 28.7364V20.5133H167.086V28.2288C167.086 29.8024 167.797 30.5638 169.193 30.5638C170.868 30.5638 171.756 29.3709 171.756 27.7212V20.5133H175.03V33.0002ZM179.776 33.0002H176.477V20.5133H179.573V22.0107C180.665 20.3356 181.934 20.1833 183.279 20.1833H183.71V23.5589C183.406 23.5081 183.101 23.4827 182.797 23.4827C180.766 23.4827 179.776 24.4979 179.776 26.503V33.0002ZM194.845 24.2949H191.673C191.495 23.0767 190.835 22.6452 189.338 22.6452C188.094 22.6452 187.384 22.9498 187.384 23.6858C187.384 24.4218 188.069 24.7264 189.414 25.1071C190.835 25.5131 192.18 25.7923 193.145 26.173C194.465 26.706 195.201 27.5689 195.201 29.1932C195.201 31.782 193.297 33.3302 189.744 33.3302C185.912 33.3302 183.78 31.5282 183.729 28.9902H187.13C187.13 30.1577 188.12 30.8429 189.719 30.8429C190.886 30.8429 191.927 30.4876 191.927 29.5486C191.927 28.6603 190.988 28.3811 189.922 28.1273C187.815 27.6197 186.648 27.2644 185.759 26.706C184.592 25.97 184.186 25.0055 184.186 23.8888C184.186 21.7823 185.632 20.1833 189.439 20.1833C193.043 20.1833 194.668 21.6046 194.845 24.2949ZM207.451 33.0002H204.126L205.497 25.2593C205.573 24.8279 205.598 24.4726 205.598 24.1934C205.598 23.0005 204.989 22.7975 203.796 22.7975C202.121 22.7975 201.004 24.168 200.7 25.8431L199.431 33.0002H196.132L199.126 15.9449H202.426L201.334 22.1376C202.02 21.0209 203.695 20.1833 205.37 20.1833C207.629 20.1833 209.075 21.3508 209.075 23.3305C209.075 23.5843 209.05 23.8634 208.999 24.168L207.451 33.0002ZM212.271 33.0002H208.972L211.18 20.5133H214.479L212.271 33.0002ZM214.733 19.0159H211.434L211.967 15.9449H215.266L214.733 19.0159ZM220.098 30.513C222.687 30.513 223.728 28.4572 223.728 25.8431C223.728 23.5335 222.865 22.8736 221.469 22.8736C219.667 22.8736 217.916 24.7264 217.916 27.6704C217.916 29.8277 218.652 30.513 220.098 30.513ZM215.987 38.9138H212.738L215.987 20.5133H219.159L218.905 22.0361C219.921 20.7671 221.19 20.1833 222.712 20.1833C225.377 20.1833 227.103 22.1376 227.103 25.4116C227.103 29.8277 224.489 33.3302 220.682 33.3302C219.134 33.3302 218.017 32.6957 217.306 31.3759L215.987 38.9138Z" fill="white"/>
</svg>
