<svg width="59" height="68" viewBox="0 0 59 68" fill="none" xmlns="http://www.w3.org/2000/svg">
<path d="M31.4512 43.6844L31.2886 45.7152L33.1841 46.4962L31.1881 46.9702L31.0255 49.001L29.9545 47.2632L27.9584 47.7372L29.2926 46.1892L28.2216 44.4514L30.1171 45.2324L31.4512 43.6844Z" fill="url(#paint0_linear_87_940)"/>
<path d="M37.6942 37.7704L37.5232 39.9067L39.5164 40.7284L37.4175 41.227L37.2464 43.3634L36.1202 41.5352L34.0213 42.0339L35.4242 40.4054L34.298 38.5772L36.2913 39.3989L37.6942 37.7704Z" fill="url(#paint1_linear_87_940)"/>
<path d="M41.9556 30.7025L42.4161 32.8757L44.6422 33.1128L42.7008 34.2188L43.1613 36.3919L41.5009 34.9023L39.5594 36.0083L40.4747 33.9817L38.8142 32.4921L41.0403 32.7292L41.9556 30.7025Z" fill="url(#paint2_linear_87_940)"/>
<path d="M28.3727 51.5409C28.8641 50.7877 29.9674 50.7877 30.4589 51.5409L37.2406 61.9351C37.3959 62.1732 37.6279 62.3509 37.8982 62.4389L46.1718 65.1327C47.5201 65.5717 47.2041 67.5625 45.7862 67.5625H13.0452C11.6273 67.5625 11.3114 65.5717 12.6596 65.1327L20.9334 62.4389C21.2036 62.3509 21.4356 62.1731 21.5909 61.9351L28.3727 51.5409Z" fill="url(#paint3_linear_87_940)"/>
<path d="M28.3751 16.0216C28.8665 16.7748 29.9699 16.7748 30.4613 16.0216L37.2431 5.62735C37.3984 5.38935 37.6304 5.21161 37.9006 5.12363L46.1743 2.42979C47.5225 1.99081 47.2066 -1.46496e-05 45.7887 -1.46496e-05L13.0476 -1.46496e-05C11.6297 -1.46496e-05 11.3138 1.99082 12.662 2.42979L20.9358 5.12363C21.206 5.21161 21.438 5.38935 21.5933 5.62735L28.3751 16.0216Z" fill="url(#paint4_linear_87_940)"/>
<path d="M16.5059 9.4595C17.2606 8.90811 18.3204 9.07801 18.8653 9.83743L21.6651 13.7398C21.4163 13.5755 21.15 13.438 20.8712 13.3277L20.8702 13.3267L20.7022 13.2661C19.8693 12.9854 19.1372 13.0888 18.8301 13.1441C18.4182 13.2183 18.0622 13.3445 17.8057 13.4507C17.3436 13.6421 16.7679 13.9525 16.3038 14.3589L16.2715 14.3872C12.6322 17.6619 9.9616 22.623 8.94342 27.398C8.8988 27.5807 8.86138 27.7653 8.83307 27.9517C8.77865 28.2429 8.73023 28.533 8.68854 28.8218C8.22795 32.0128 8.49623 36.4384 9.89069 39.6558C10.3156 41.0813 11.2511 43.1332 11.8253 44.1597C12.4385 45.256 13.7554 47.2691 15.0831 49.1226C15.7563 50.0623 16.4651 51.0074 17.1231 51.8111C17.6876 52.5005 18.3797 53.2898 19.0557 53.8355C19.0412 54.958 19.1121 56.0407 19.2706 57.0933L18.1348 58.6724C17.8188 59.1114 17.3102 59.3812 16.7715 59.3316C13.1425 58.996 9.38656 56.5884 8.27643 53.1529L0.438539 28.8892C-0.759438 25.1806 0.553225 21.1178 3.68952 18.8257L16.5059 9.4595ZM50.6622 53.1529C49.5519 56.5892 45.6594 58.9967 42.0098 59.3316C41.4709 59.381 40.9617 59.1116 40.6456 58.6724L37.834 54.7642C39.3804 53.9227 41.0538 53.1738 42.8633 52.3745C44.9018 51.4742 47.1304 50.497 49.2286 49.3072C49.8665 49.0479 50.4197 48.6853 50.8096 48.4038C51.3415 48.0199 51.8654 47.5723 52.334 47.1392C52.4647 47.0184 52.5944 46.8942 52.7237 46.7691L50.6622 53.1529ZM45.7549 47.5249C45.6629 47.5705 45.571 47.6166 45.4786 47.6617C45.571 47.6165 45.6629 47.5706 45.7549 47.5249ZM46.3516 47.2271C46.2731 47.2675 46.1932 47.3053 46.1143 47.3452C46.2383 47.2824 46.3623 47.2197 46.4854 47.1558C46.4406 47.1791 46.3966 47.204 46.3516 47.2271ZM49.877 34.4507C49.543 34.6616 49.1428 34.9093 48.7149 35.1685V35.1675C49.1427 34.9084 49.543 34.6614 49.877 34.4507ZM39.9698 9.76126C40.5147 9.00194 41.5745 8.83284 42.3292 9.38431L55.2491 18.8257C58.3853 21.1178 59.698 25.1807 58.5001 28.8892L57.5391 31.8609C57.3895 30.5213 57.0397 29.3075 56.6592 28.2349C56.1747 26.8697 54.8338 25.9993 53.3897 26.1138C52.3327 26.1978 51.4137 26.7945 50.8936 27.6665C50.8528 25.9747 50.5834 23.8863 49.7266 22.2076C48.9589 20.1319 47.484 18.1028 45.9122 16.7281C45.0759 15.9261 43.5545 14.9518 42.2833 14.2681C41.568 13.8834 40.762 13.4974 39.9893 13.2271C39.605 13.0926 39.1504 12.9592 38.6719 12.8843C38.452 12.8499 38.1393 12.8139 37.7725 12.8238L39.9698 9.76126ZM37.5645 16.1451C37.6143 16.2239 37.6747 16.3043 37.7374 16.3833C37.6744 16.3042 37.6134 16.224 37.5635 16.1451H37.5645Z" fill="url(#paint5_linear_87_940)"/>
<path d="M18.9462 15.708C19.194 15.491 19.9197 15.1233 20.2275 15.2451C22.1529 16.0075 19.308 20.2761 18.7294 21.5693C18.355 22.4087 18.0522 23.2789 17.8242 24.1699C16.6914 28.6093 17.487 31.8419 19.7304 35.6757C21.926 38.5221 22.5121 39.0884 25.3095 41.4882C25.3003 41.6558 25.3179 41.6806 25.2304 41.8173C23.4494 44.8396 22.6622 46.5345 21.8388 49.8574L21.6542 50.331C20.1059 49.1484 16.2105 43.428 15.1533 41.538C14.6217 40.5878 13.7311 38.5905 13.4433 37.5087C12.2825 34.9934 11.9785 31.0824 12.3915 28.2207C13.0418 23.7154 15.5403 18.7725 18.9462 15.708ZM23.0712 24.7949C23.936 22.4978 26.6125 21.2349 28.913 22.0957C30.0623 22.5199 30.9926 23.3931 31.4941 24.5165C32.0341 25.6833 32.0882 27.0188 31.6435 28.2255C31.2385 29.2978 30.5439 29.9956 29.582 30.5781C25.7574 32.6779 21.2978 28.6833 23.0712 24.7949Z" fill="url(#paint6_linear_87_940)"/>
<path d="M38.2633 15.2212C43.6616 16.2449 52.7324 21.8439 45.8297 36.0503C48.7059 34.9376 54.4044 31.8041 54.192 28.1724C55.5195 31.8664 56.6088 40.2966 50.3434 44.4624C42.5115 49.6696 34.0151 51.2718 33.7497 53.1411C33.485 55.0115 37.7313 64.4894 31.0954 66.7593C26.6706 65.2906 19.2278 59.1754 24.8561 46.4644C31.8915 30.5759 41.0509 28.573 38.2633 15.2212ZM39.6149 25.5474C39.8998 34.6375 33.695 34.8958 27.2809 44.5181C22.1496 52.2161 26.3025 57.0917 29.0202 58.5669C33.6098 57.842 31.9282 51.1261 32.3161 49.9292C32.7039 48.7323 38.4295 48.6608 44.1364 46.145C48.7019 44.1324 48.9599 38.4703 48.5182 35.8911C48.2397 38.3005 44.1629 39.7012 42.1588 40.1001C48.2932 31.5671 43.0187 26.8427 39.6149 25.5474Z" fill="url(#paint7_linear_87_940)"/>
<defs>
<linearGradient id="paint0_linear_87_940" x1="31.4512" y1="43.6844" x2="29.3148" y2="48.8759" gradientUnits="userSpaceOnUse">
<stop stop-color="#003CEC"/>
<stop offset="1" stop-color="#00B0D8"/>
</linearGradient>
<linearGradient id="paint1_linear_87_940" x1="37.6942" y1="37.7704" x2="35.446" y2="43.2312" gradientUnits="userSpaceOnUse">
<stop stop-color="#003CEC"/>
<stop offset="1" stop-color="#00B0D8"/>
</linearGradient>
<linearGradient id="paint2_linear_87_940" x1="41.9556" y1="30.7025" x2="41.3109" y2="36.7819" gradientUnits="userSpaceOnUse">
<stop stop-color="#003CEC"/>
<stop offset="1" stop-color="#00B0D8"/>
</linearGradient>
<linearGradient id="paint3_linear_87_940" x1="29.4157" y1="49.9421" x2="29.4186" y2="67.5625" gradientUnits="userSpaceOnUse">
<stop stop-color="#003CEC"/>
<stop offset="1" stop-color="#00B0D8"/>
</linearGradient>
<linearGradient id="paint4_linear_87_940" x1="29.4181" y1="17.6204" x2="29.4211" y2="-1.47625e-05" gradientUnits="userSpaceOnUse">
<stop stop-color="#003CEC"/>
<stop offset="1" stop-color="#00B0D8"/>
</linearGradient>
<linearGradient id="paint5_linear_87_940" x1="29.4693" y1="9.06006" x2="29.4891" y2="59.3374" gradientUnits="userSpaceOnUse">
<stop stop-color="#003CEC"/>
<stop offset="1" stop-color="#00B0D8"/>
</linearGradient>
<linearGradient id="paint6_linear_87_940" x1="22.0792" y1="15.2209" x2="22.108" y2="50.331" gradientUnits="userSpaceOnUse">
<stop stop-color="#003CEC"/>
<stop offset="1" stop-color="#00B0D8"/>
</linearGradient>
<linearGradient id="paint7_linear_87_940" x1="39.0243" y1="15.2212" x2="39.0622" y2="66.7592" gradientUnits="userSpaceOnUse">
<stop stop-color="#003CEC"/>
<stop offset="1" stop-color="#00B0D8"/>
</linearGradient>
</defs>
</svg>
