<svg width="60" height="68" viewBox="0 0 60 68" fill="none" xmlns="http://www.w3.org/2000/svg">
<path d="M40.3692 9.52353C40.9167 8.76486 41.9764 8.59497 42.7335 9.14463L55.7921 18.6319C58.9592 20.9331 60.284 25.0122 59.0743 28.7354L51.1602 53.0948C50.0384 56.5472 46.1029 58.9663 42.4151 59.2999C41.8751 59.3487 41.3648 59.079 41.047 58.6397L37.7442 54.0753C37.1732 53.2856 37.7373 52.1808 38.712 52.1808C41.4587 52.1807 43.8934 50.4122 44.7423 47.7999L47.6221 38.9356H49.0714C51.0604 38.9357 52.5276 39.0189 54.0665 37.4874C54.9953 36.5715 55.5146 35.3191 55.5069 34.0147C55.5188 32.7039 54.9998 31.444 54.0675 30.5226C53.3677 29.8303 52.4795 29.3589 51.5137 29.1681C51.2687 29.1198 50.9391 29.0983 50.5948 29.089C50.7078 26.9792 49.7602 24.9048 47.9923 23.6202L37.6807 16.129C36.9271 15.5814 36.7577 14.527 37.3028 13.7716L40.3692 9.52353ZM16.6798 9.2208C17.4368 8.67097 18.4965 8.84098 19.044 9.59971L22.088 13.8175C22.6329 14.5728 22.4644 15.6264 21.711 16.1739L11.462 23.6202C9.69379 24.9049 8.74418 26.9798 8.8575 29.0899C8.53431 29.1023 8.2202 29.1294 7.94246 29.1856C6.9924 29.3836 6.12015 29.8532 5.43172 30.5372C4.50619 31.478 3.99627 32.7508 4.0157 34.0704C4.02682 35.3778 4.56102 36.6265 5.4991 37.5372C6.1794 38.1993 7.03758 38.6502 7.96883 38.8341C8.63278 38.9652 9.62026 38.9363 10.3145 38.9366H11.8321L14.712 47.7999C15.5608 50.4121 17.9947 52.1806 20.7413 52.1808C21.6765 52.1808 22.2183 53.2415 21.67 53.9991L18.3116 58.6397C17.9938 59.0789 17.4833 59.349 16.9434 59.2999C13.2764 58.9654 9.47907 56.5465 8.3575 53.0948L0.443435 28.7354C-0.766281 25.0122 0.558507 20.9331 3.72566 18.6319L16.6798 9.2208Z" fill="url(#paint0_linear_87_1073)"/>
<path d="M25.2037 56.7314C25.4133 57.2596 25.7359 57.7726 26.2399 58.2861C27.1662 59.2201 28.4245 59.7499 29.7399 59.7607C29.8642 59.7614 29.9918 59.7548 30.1158 59.748C31.5878 59.5626 32.7334 59.0304 33.6637 57.8291C33.9051 57.5164 34.1054 57.1761 34.2633 56.8174L37.608 61.9131C37.7645 62.1514 37.9979 62.3292 38.2692 62.417L46.6158 65.1191C47.9724 65.5585 47.656 67.5622 46.2301 67.5625H13.1803C11.754 67.5625 11.4376 65.5584 12.7946 65.1191L21.1422 62.417C21.4133 62.3291 21.647 62.1513 21.8033 61.9131L25.2037 56.7314ZM46.2301 0C47.656 0.000295276 47.9724 2.00298 46.6158 2.44238L38.2692 5.14453C37.9979 5.23234 37.7645 5.41105 37.608 5.64941L34.1373 10.9355C33.9041 10.479 33.6013 10.0582 33.233 9.69336C32.2853 8.74988 30.8243 8.13897 29.4772 8.26465C28.1836 8.35023 26.9451 8.91483 26.0836 9.89258C25.7806 10.235 25.5273 10.6157 25.3297 11.0234L21.8033 5.64941C21.6469 5.41109 21.4134 5.23241 21.1422 5.14453L12.7946 2.44238C11.4377 2.00307 11.7541 0 13.1803 0H46.2301Z" fill="url(#paint1_linear_87_1073)"/>
<path d="M33.873 47.1562L33.874 49.8252C33.874 50.3523 33.8942 51.1232 33.8144 51.6211C33.7076 52.2913 33.4334 52.9246 33.0185 53.4619C32.2413 54.4654 31.2852 54.9104 30.0556 55.0654C29.9519 55.071 29.8451 55.0766 29.7412 55.0761C28.6422 55.0672 27.5913 54.624 26.8173 53.8437C25.5807 52.584 25.6323 51.3358 25.6318 49.7207L25.6328 47.125L25.6337 44.455C26.9415 45.441 28.2869 46.3773 29.6709 47.2558C31.0669 46.3992 32.5231 45.3444 33.872 44.3193L33.873 47.1562ZM13.4804 29.4472H13.7744C14.2519 32.4075 16.0701 35.2562 18.167 37.6767H13.5068C12.9268 37.6765 12.1016 37.7013 11.5468 37.5918C10.7688 37.4381 10.0517 37.061 9.48336 36.5078C8.6996 35.7469 8.25332 34.7037 8.2441 33.6113C8.22787 32.5089 8.65367 31.4461 9.42672 30.6601C10.002 30.0885 10.7314 29.6956 11.5254 29.5302C12.1045 29.413 12.8708 29.4463 13.4804 29.4472ZM46.0898 29.4472C46.6025 29.4472 47.4535 29.4222 47.9277 29.5156C48.7347 29.675 49.4768 30.0689 50.0615 30.6474C50.8405 31.4173 51.2746 32.4701 51.2646 33.5654C51.271 34.6551 50.8374 35.7015 50.0615 36.4668C48.9364 37.5865 47.8568 37.6725 46.4912 37.6767H43.413L41.1474 37.6757C43.2793 35.2285 45.0892 32.4015 45.5615 29.4472H46.0898ZM29.5214 12.0507C30.6469 11.9458 31.8673 12.4568 32.6591 13.2451C33.2419 13.8225 33.6358 14.5631 33.789 15.3691C33.9017 15.9466 33.874 16.767 33.874 17.373L33.873 19.9101L33.872 20.8232C32.9151 21.2336 32.0274 21.7875 31.289 22.4521C30.6274 23.0476 30.1933 23.5596 29.6621 24.2675C28.6587 22.8146 27.2458 21.6253 25.6328 20.8906V19.9365L25.6318 17.3486C25.6317 16.8064 25.6135 15.9381 25.708 15.4179C25.8454 14.6724 26.184 13.9787 26.6865 13.4111C27.4063 12.5942 28.4407 12.1223 29.5214 12.0507Z" fill="url(#paint2_linear_87_1073)"/>
<path d="M36.8589 33.4262C37.023 33.7949 37.481 33.9245 37.814 33.6968L38.8579 32.9829H41.1324C39.815 35.713 37.3457 38.1685 35.2954 39.9594C34.852 40.3693 34.1306 40.9469 33.6509 41.3188C32.4413 42.2568 31.0655 43.2796 29.7603 44.0805C27.5123 42.6536 25.3898 41.0381 23.4156 39.2514C21.6068 37.6124 19.5504 35.4096 18.3853 32.9829H24.7281L26.9771 33.8081C27.2671 33.9144 27.5923 33.8008 27.7525 33.5366L28.4165 32.4399L30.357 37.4048C30.5794 37.9738 31.3942 37.9449 31.5757 37.3618L32.7788 33.4878H33.9751C34.2214 33.4877 34.4466 33.3475 34.5552 33.1264L35.6929 30.8091L36.8589 33.4262ZM36.2329 23.1635C37.8793 23.2621 39.42 24.0082 40.5181 25.2387C41.653 26.5308 42.1911 28.1678 42.0415 29.8706C41.9795 30.5772 41.8115 31.2755 41.564 31.9604H38.7408C38.6434 31.9605 38.5474 31.983 38.4605 32.0249L38.3765 32.0737L37.6089 32.5971L36.3013 29.6587L36.2544 29.5708C36.01 29.1858 35.4402 29.1751 35.1812 29.5503L35.1314 29.6362L33.7417 32.4653H32.5015C32.2541 32.4654 32.0314 32.6068 31.9234 32.8227L31.8843 32.9204L30.9175 36.0327L29.0913 31.3579C28.8961 30.8601 28.2146 30.8011 27.937 31.2583L27.0376 32.7407L25.0191 32.0005L24.9097 31.9712C24.8724 31.9645 24.8344 31.9604 24.7964 31.9604H17.9556C17.6923 31.2307 17.5182 30.4857 17.4654 29.7339C17.219 26.228 19.9098 23.3331 23.4224 23.1626C23.966 23.1366 24.5001 23.2046 25.0337 23.3022C26.935 23.6502 28.6601 24.8292 29.7534 26.4126C30.1617 25.8686 30.4952 25.4746 31.0034 25.0171C32.3679 23.7889 34.3957 23.0486 36.2329 23.1635Z" fill="url(#paint3_linear_87_1073)"/>
<defs>
<linearGradient id="paint0_linear_87_1073" x1="29.7589" y1="8.82202" x2="29.7786" y2="59.3056" gradientUnits="userSpaceOnUse">
<stop stop-color="#003CEC"/>
<stop offset="1" stop-color="#00B0D8"/>
</linearGradient>
<linearGradient id="paint1_linear_87_1073" x1="29.705" y1="0" x2="29.7643" y2="67.5624" gradientUnits="userSpaceOnUse">
<stop stop-color="#003CEC"/>
<stop offset="1" stop-color="#00B0D8"/>
</linearGradient>
<linearGradient id="paint2_linear_87_1073" x1="29.7542" y1="12.0371" x2="29.7741" y2="55.0762" gradientUnits="userSpaceOnUse">
<stop stop-color="#003CEC"/>
<stop offset="1" stop-color="#00B0D8"/>
</linearGradient>
<linearGradient id="paint3_linear_87_1073" x1="29.7579" y1="23.1519" x2="29.7661" y2="44.0805" gradientUnits="userSpaceOnUse">
<stop stop-color="#003CEC"/>
<stop offset="1" stop-color="#00B0D8"/>
</linearGradient>
</defs>
</svg>
