<svg width="59" height="68" viewBox="0 0 59 68" fill="none" xmlns="http://www.w3.org/2000/svg">
<path fill-rule="evenodd" clip-rule="evenodd" d="M31.4571 52.839C31.2076 52.4551 30.7671 52.2435 30.3097 52.2643C30.0309 52.2771 29.7506 52.2835 29.4689 52.2835C29.2234 52.2835 28.979 52.2786 28.7358 52.2689C28.2811 52.2508 27.8442 52.4624 27.5962 52.844L21.7019 61.9148C21.5477 62.1522 21.3168 62.3297 21.0477 62.4176L12.7053 65.1449C11.3648 65.5831 11.6802 67.5626 13.0905 67.5626H45.966C47.3763 67.5626 47.6917 65.5831 46.3512 65.1449L38.0089 62.4176C37.7398 62.3297 37.5089 62.1522 37.3547 61.9149L31.4571 52.839Z" fill="url(#paint0_linear_87_932)"/>
<path fill-rule="evenodd" clip-rule="evenodd" d="M24.2657 9.59339C24.731 10.3094 25.7813 10.345 26.4988 9.882C28.2958 8.72261 30.7117 8.73496 32.4954 9.9191C33.2158 10.3973 34.2856 10.3709 34.7568 9.64585L37.3547 5.64791C37.5089 5.41052 37.7398 5.23309 38.0089 5.14512L46.3512 2.41789C47.6917 1.97966 47.3763 0.00011903 45.966 0.00011903L13.0905 0.00011903C11.6802 0.00011903 11.3648 1.97967 12.7053 2.41789L21.0477 5.14512C21.3168 5.23309 21.5477 5.41053 21.7019 5.64792L24.2657 9.59339Z" fill="url(#paint1_linear_87_932)"/>
<path fill-rule="evenodd" clip-rule="evenodd" d="M43.0506 50.0318L43.0602 50.0792C43.7108 53.2994 41.6443 55.7919 39.0902 56.4725L41.1484 59.3449C45.0252 59.3449 49.4632 56.8237 50.6613 53.1001L58.4989 28.7384C59.6969 25.0147 58.3846 20.9353 55.2481 18.6339L40.9586 8.14893L35.9632 15.1398L39.7228 17.8985L42.1753 16.7755L42.2951 16.7221C47.3084 14.5532 51.9816 20.4426 48.8254 24.906C50.0533 26.5314 50.4536 28.6961 49.8049 30.7123L49.2222 32.5237L50.5578 33.2121C55.5602 35.7907 53.8388 43.4086 48.2239 43.5398L45.6588 43.5996L44.306 47.8047C44.0358 48.6445 43.6033 49.3971 43.0506 50.0318Z" fill="url(#paint2_linear_87_932)"/>
<path fill-rule="evenodd" clip-rule="evenodd" d="M8.27622 53.1001C9.47427 56.8237 13.7547 59.3449 17.6314 59.3449L19.716 56.4358C17.226 55.7067 15.243 53.2499 15.8753 50.0906C15.2977 49.4437 14.8466 48.6706 14.5681 47.8047L13.2147 43.5981L10.7139 43.5398C5.09884 43.4087 3.37734 35.7907 8.37999 33.2121L9.66094 32.5518L9.06911 30.7123C8.41467 28.6781 8.828 26.4926 10.0818 24.8624C6.96177 20.3688 11.7205 14.4667 16.7625 16.7755L19.1757 17.8806L22.8492 15.1851L17.8755 8.2247L3.68949 18.6339C0.553071 20.9353 -0.759443 25.0147 0.438542 28.7384L8.27622 53.1001ZM22.4227 52.33L22.4185 52.334L22.4149 52.3375C22.4356 52.315 22.4561 52.292 22.4761 52.2679C22.4585 52.2892 22.4408 52.3099 22.4227 52.33Z" fill="url(#paint3_linear_87_932)"/>
<path fill-rule="evenodd" clip-rule="evenodd" d="M27.8263 14.0696C28.2539 12.3607 30.6825 12.3607 31.11 14.0696L33.019 21.6991C31.8936 21.3623 30.7017 21.1815 29.4682 21.1815C28.2346 21.1815 27.0428 21.3623 25.9174 21.6991L27.8263 14.0696ZM41.037 29.0528C40.1241 26.778 38.5725 24.8336 36.607 23.4464L43.7328 20.1833C45.3298 19.452 46.846 21.3369 45.7896 22.7401L41.037 29.0528ZM41.9459 33.7833C41.9459 33.5117 41.9374 33.2421 41.9207 32.9748L48.9326 36.589C50.4912 37.3924 49.9497 39.7445 48.1967 39.7854L40.3419 39.9688C41.3632 38.1415 41.9459 36.0311 41.9459 33.7833ZM31.4593 46.2255C33.9016 45.8299 36.1071 44.7185 37.8582 43.1111L39.422 50.8515C39.7706 52.5766 37.5816 53.6216 36.4593 52.2659L31.4593 46.2255ZM21.0782 43.1111C22.8293 44.7185 25.0347 45.8299 27.477 46.2255L22.477 52.2659C21.3548 53.6216 19.1658 52.5766 19.5143 50.8515L21.0782 43.1111ZM16.9904 33.7833C16.9904 36.0311 17.5732 38.1415 18.5944 39.9688L10.7397 39.7854C8.98668 39.7445 8.44514 37.3924 10.0038 36.589L17.0157 32.9748C16.9989 33.2421 16.9904 33.5117 16.9904 33.7833ZM22.3294 23.4464C20.3638 24.8336 18.8122 26.778 17.8994 29.0528L13.1467 22.7401C12.0903 21.3369 13.6066 19.452 15.2035 20.1833L22.3294 23.4464Z" stroke="url(#paint4_linear_87_932)" stroke-width="1.85827" stroke-linejoin="round"/>
<path d="M28.4653 38.1516C28.6117 38.1518 28.7308 38.2709 28.731 38.4172V42.5852C28.731 42.6854 28.674 42.7774 28.5845 42.8225C28.495 42.8675 28.3877 42.8586 28.3071 42.7991C26.887 41.7456 25.8904 40.2105 25.4985 38.4758C25.4808 38.3973 25.4992 38.3151 25.5493 38.2522C25.5997 38.1892 25.6766 38.1516 25.7573 38.1516H28.4653ZM33.4019 38.1516C33.4825 38.1517 33.5585 38.1892 33.6089 38.2522C33.6591 38.3152 33.6783 38.3973 33.6606 38.4758C33.2688 40.2105 32.2722 41.7456 30.8521 42.7991C30.7715 42.8588 30.6643 42.8675 30.5747 42.8225C30.4851 42.7774 30.4282 42.6855 30.4282 42.5852V38.4172C30.4284 38.2708 30.5473 38.1516 30.6938 38.1516H33.4019ZM23.4282 38.1516L23.5151 38.1663C23.5973 38.1947 23.6623 38.2631 23.6851 38.3508C23.9402 39.3364 24.3069 40.2891 24.7778 41.1897C24.8343 41.2978 24.8095 41.4301 24.7183 41.511C24.627 41.5918 24.4926 41.6005 24.3921 41.5315C23.2668 40.7566 22.3259 39.7384 21.6382 38.551C21.5907 38.469 21.5909 38.3676 21.6382 38.2854C21.6855 38.2033 21.7729 38.1517 21.8677 38.1516H23.4282ZM37.3247 38.1516C37.4195 38.1518 37.5069 38.2033 37.5542 38.2854C37.6014 38.3676 37.6017 38.469 37.5542 38.551C36.8665 39.7384 35.9256 40.7565 34.8003 41.5315C34.6998 41.6006 34.5654 41.5918 34.4741 41.511C34.3828 41.4301 34.358 41.2978 34.4146 41.1897C34.8854 40.2891 35.2522 39.3364 35.5073 38.3508L35.5435 38.2708C35.5916 38.1983 35.6734 38.1516 35.7642 38.1516H37.3247ZM23.0269 31.3928C23.1027 31.3928 23.1747 31.4259 23.2251 31.4827C23.2754 31.5393 23.2994 31.6145 23.2905 31.6897C23.1144 33.1654 23.1144 34.6574 23.2905 36.1331C23.2995 36.2084 23.2755 36.2843 23.2251 36.3411C23.1747 36.3976 23.1026 36.4299 23.0269 36.4299H20.9546C20.8339 36.4299 20.7284 36.3484 20.6978 36.2317C20.2987 34.7111 20.2987 33.1117 20.6978 31.5911L20.7339 31.511C20.7822 31.439 20.8642 31.3928 20.9546 31.3928H23.0269ZM28.4653 31.3928C28.6118 31.393 28.7309 31.512 28.731 31.6584V36.1643C28.731 36.3108 28.6118 36.4298 28.4653 36.4299H25.2778C25.1455 36.4299 25.0335 36.3325 25.0151 36.2014C24.8044 34.6826 24.8044 33.1411 25.0151 31.6223L25.0259 31.5745C25.0614 31.4679 25.1619 31.3929 25.2778 31.3928H28.4653ZM33.8813 31.3928L33.9292 31.3977C34.0398 31.4181 34.1281 31.5074 34.144 31.6223C34.3547 33.1411 34.3548 34.6826 34.144 36.2014C34.1257 36.3324 34.0136 36.4297 33.8813 36.4299H30.6938C30.5472 36.4299 30.4282 36.3109 30.4282 36.1643V31.6584C30.4283 31.5119 30.5473 31.3928 30.6938 31.3928H33.8813ZM38.2046 31.3928C38.3252 31.3928 38.4308 31.4744 38.4614 31.5911C38.8605 33.1116 38.8604 34.7111 38.4614 36.2317C38.4308 36.3484 38.3253 36.4299 38.2046 36.4299H36.1323C36.0563 36.4299 35.9835 36.397 35.9331 36.3401C35.8829 36.2832 35.8595 36.2074 35.8687 36.1321C35.9584 35.3957 36.0025 34.6543 36.0005 33.9124V33.9104C36.0025 33.1684 35.9584 32.4271 35.8687 31.6907C35.8595 31.6153 35.8828 31.5396 35.9331 31.4827C35.9835 31.4258 36.0563 31.3928 36.1323 31.3928H38.2046ZM24.3569 26.2932C24.4567 26.2234 24.5911 26.23 24.6831 26.3098C24.7751 26.3898 24.8009 26.5225 24.7456 26.6311C24.286 27.5331 23.9307 28.4858 23.686 29.47C23.6565 29.5881 23.55 29.6711 23.4282 29.6711H21.8677C21.7731 29.671 21.6856 29.6202 21.6382 29.5383C21.5909 29.4565 21.5903 29.3557 21.6372 29.2737C22.315 28.0898 23.244 27.0721 24.3569 26.2932ZM28.3071 25.0247C28.3877 24.9649 28.4949 24.9552 28.5845 25.0002C28.6741 25.0453 28.731 25.1372 28.731 25.2375V29.4055C28.731 29.552 28.6118 29.671 28.4653 29.6711H25.7573C25.6766 29.6711 25.5997 29.6346 25.5493 29.5715C25.499 29.5085 25.4808 29.4256 25.4985 29.3469C25.8904 27.6124 26.8871 26.0781 28.3071 25.0247ZM30.5747 25.0002C30.6642 24.9553 30.7716 24.965 30.8521 25.0247C32.272 26.0781 33.2688 27.6124 33.6606 29.3469C33.6784 29.4256 33.6593 29.5085 33.6089 29.5715C33.5585 29.6344 33.4824 29.6711 33.4019 29.6711H30.6938C30.5472 29.6711 30.4282 29.5521 30.4282 29.4055V25.2375C30.4282 25.1372 30.4851 25.0453 30.5747 25.0002ZM34.4399 26.3118C34.5313 26.2309 34.6666 26.223 34.7671 26.2922C35.8924 27.0672 36.8334 28.0853 37.521 29.2727C37.5684 29.3548 37.5683 29.4562 37.521 29.5383C37.4736 29.6205 37.3854 29.6711 37.2905 29.6711H35.731C35.61 29.6711 35.5044 29.5891 35.4741 29.4719C35.219 28.4864 34.8522 27.5336 34.3813 26.6331C34.325 26.5251 34.3489 26.3926 34.4399 26.3118Z" fill="url(#paint5_linear_87_932)" stroke="url(#paint6_linear_87_932)" stroke-width="0.530969" stroke-linejoin="round"/>
<defs>
<linearGradient id="paint0_linear_87_932" x1="29.5282" y1="52.2153" x2="29.5304" y2="67.5626" gradientUnits="userSpaceOnUse">
<stop stop-color="#003CEC"/>
<stop offset="1" stop-color="#00B0D8"/>
</linearGradient>
<linearGradient id="paint1_linear_87_932" x1="29.5282" y1="23.9453" x2="29.5337" y2="0.000119501" gradientUnits="userSpaceOnUse">
<stop stop-color="#003CEC"/>
<stop offset="1" stop-color="#00B0D8"/>
</linearGradient>
<linearGradient id="paint2_linear_87_932" x1="29.4687" y1="8.14893" x2="29.4893" y2="59.3449" gradientUnits="userSpaceOnUse">
<stop stop-color="#003CEC"/>
<stop offset="1" stop-color="#00B0D8"/>
</linearGradient>
<linearGradient id="paint3_linear_87_932" x1="29.4687" y1="8.14893" x2="29.4893" y2="59.3449" gradientUnits="userSpaceOnUse">
<stop stop-color="#003CEC"/>
<stop offset="1" stop-color="#00B0D8"/>
</linearGradient>
<linearGradient id="paint4_linear_87_932" x1="29.4682" y1="7.50757" x2="29.4909" y2="57.4574" gradientUnits="userSpaceOnUse">
<stop stop-color="#003CEC"/>
<stop offset="1" stop-color="#00B0D8"/>
</linearGradient>
<linearGradient id="paint5_linear_87_932" x1="29.5794" y1="25.2375" x2="29.5872" y2="42.5856" gradientUnits="userSpaceOnUse">
<stop stop-color="#003CEC"/>
<stop offset="1" stop-color="#00B0D8"/>
</linearGradient>
<linearGradient id="paint6_linear_87_932" x1="29.5794" y1="25.2375" x2="29.5872" y2="42.5856" gradientUnits="userSpaceOnUse">
<stop stop-color="#003CEC"/>
<stop offset="1" stop-color="#00B0D8"/>
</linearGradient>
</defs>
</svg>
