<svg width="219" height="50" viewBox="0 0 219 50" fill="none" xmlns="http://www.w3.org/2000/svg">
<path d="M62.3241 21H58.7709L60.1161 13.4368H53.5426L52.1975 21H48.6697L51.6391 4.14768H55.167L54.0502 10.4927H60.6237L61.7404 4.14768H65.2936L62.3241 21ZM74.3774 21H71.2557V19.2488C70.3928 20.6701 69.0984 21.3299 67.3726 21.3299C64.8853 21.3299 63.1341 19.4772 63.1341 16.7362V8.51304H66.4335V16.2286C66.4335 17.8021 67.1441 18.5635 68.54 18.5635C70.2151 18.5635 71.1034 17.3707 71.1034 15.721V8.51304H74.3774V21ZM93.184 21H89.9608V13.4368C89.9608 11.9393 89.174 10.8734 88.0065 10.8734C86.7883 10.8734 85.9 12.0155 85.9 13.5383V21H82.6006V13.4875C82.6006 11.4825 82.0676 10.9749 80.6209 10.9749C79.3012 10.9749 78.6159 11.7871 78.6159 13.4114V21H75.3165V8.51304H78.4129V10.3404C79.2504 8.6907 80.4179 8.1831 82.0676 8.1831C83.768 8.1831 84.5802 8.71608 85.5446 10.1627C86.2299 8.79222 87.3466 8.1831 88.9202 8.1831C91.4328 8.1831 93.184 10.0105 93.184 12.3454V21ZM101.506 16.2539L101.532 14.8834C101.202 15.2134 100.618 15.391 99.3997 15.6194C97.5216 15.9748 96.9125 16.5077 96.9125 17.5737C96.9125 18.5128 97.4709 18.9696 98.5114 18.9696C100.212 18.9696 101.481 17.726 101.506 16.2539ZM104.831 21H101.76C101.659 20.6954 101.582 20.264 101.557 19.8833C100.77 20.7462 99.4505 21.3299 97.7754 21.3299C94.9329 21.3299 93.6131 19.934 93.6131 17.9036C93.6131 14.2997 96.0242 13.8936 99.349 13.4368C100.999 13.2083 101.456 12.8784 101.456 12.0155C101.456 11.2033 100.643 10.7211 99.349 10.7211C97.8516 10.7211 97.2424 11.4571 97.0902 12.5738H94.0192C94.0699 9.98508 95.4912 8.1831 99.5013 8.1831C103.461 8.1831 104.831 9.9597 104.831 13.1068V21ZM117.098 21H113.773V13.4368C113.773 11.5079 113.215 10.9749 111.641 10.9749C109.915 10.9749 109.078 11.9393 109.078 13.8428V21H105.778V8.51304H108.926V10.3404C109.687 8.9445 110.956 8.1831 112.961 8.1831C115.347 8.1831 117.098 9.62976 117.098 12.3454V21ZM131.543 7.06638H127V11.5586H131.416C133.294 11.5586 134.005 10.6196 134.005 9.3252C134.005 8.00544 133.294 7.06638 131.543 7.06638ZM136.847 21H133.395V16.66C133.395 15.0357 132.786 14.4012 130.756 14.4012H127V21H123.573V4.14768H132.126C135.248 4.14768 137.304 6.22884 137.304 9.02064C137.304 10.8226 136.416 12.3454 134.791 12.9292C136.289 13.4114 136.847 14.2489 136.847 16.2286V21ZM140.936 13.5383H146.038C145.987 11.6855 144.769 10.7972 143.474 10.7972C142.155 10.7972 141.063 11.8124 140.936 13.5383ZM149.439 15.6194H140.835C140.936 17.4976 142.002 18.7158 143.627 18.7158C144.693 18.7158 145.632 18.1828 145.86 17.3199H149.261C148.5 19.8833 146.444 21.3299 143.779 21.3299C139.617 21.3299 137.536 19.0457 137.536 14.5281C137.536 10.6703 139.744 8.1831 143.576 8.1831C147.408 8.1831 149.439 10.6703 149.439 15.6194ZM162.279 12.2947H159.107C159.107 11.0003 158.625 10.645 157.178 10.645C155.68 10.645 154.919 10.9749 154.919 11.8378C154.919 12.4469 155.554 12.7769 156.721 13.1068C160.274 14.122 161.848 14.2235 161.848 16.9138C161.848 19.4011 159.538 21.3299 155.528 21.3299C152.254 21.3299 150.3 19.9087 150.3 17.6498C150.3 17.4468 150.325 17.2184 150.351 16.99H153.752C153.726 17.1169 153.726 17.2438 153.726 17.3707C153.726 18.3859 154.615 18.8427 155.934 18.8427C157.279 18.8427 158.447 18.4112 158.447 17.4214C158.447 16.7362 157.838 16.4062 156.696 16.127C152.711 15.2134 151.645 14.1474 151.645 11.9901C151.645 10.1627 153.32 8.1831 157.711 8.1831C160.96 8.1831 162.33 9.4521 162.33 11.6094C162.33 11.8378 162.305 12.0662 162.279 12.2947ZM168.109 18.5635C170.672 18.5635 171.916 16.6854 171.916 13.7413C171.916 11.4825 171.078 10.9749 169.454 10.9749C166.865 10.9749 165.647 12.8276 165.647 15.7717C165.647 17.929 166.459 18.5635 168.109 18.5635ZM167.626 21.3299C164.124 21.3299 162.22 19.1473 162.22 15.9748C162.22 11.4317 165.393 8.1831 169.936 8.1831C173.311 8.1831 175.266 10.2896 175.266 13.5129C175.266 18.0813 172.093 21.3299 167.626 21.3299ZM185.952 21H182.831L183.135 19.2488C182.018 20.6701 180.622 21.3299 178.897 21.3299C176.739 21.3299 175.369 19.934 175.369 17.7767C175.369 17.4468 175.394 17.0915 175.47 16.7362L176.917 8.51304H180.216L178.846 16.2286C178.795 16.5585 178.744 16.8377 178.744 17.0915C178.744 18.259 179.379 18.5635 180.546 18.5635C182.171 18.5635 183.313 17.3707 183.617 15.721L184.886 8.51304H188.16L185.952 21ZM190.191 21H186.891L189.099 8.51304H192.196L191.917 10.0105C193.312 8.33538 194.607 8.1831 195.952 8.1831H196.383L195.8 11.5586C195.495 11.5079 195.191 11.4825 194.886 11.4825C192.856 11.4825 191.688 12.4977 191.333 14.5027L190.191 21ZM206.46 12.9799H203.135C203.135 12.853 203.16 12.7515 203.16 12.6246C203.16 11.381 202.272 10.9241 201.13 10.9241C199.379 10.9241 197.831 12.2185 197.831 15.6448C197.831 17.8529 198.617 18.5635 199.683 18.5635C200.978 18.5635 202.12 17.8275 202.475 16.4824H205.8C204.937 19.3757 202.247 21.3299 199.226 21.3299C196.333 21.3299 194.506 19.5533 194.506 16.127C194.506 10.7719 197.45 8.1831 201.638 8.1831C204.658 8.1831 206.485 9.78204 206.485 12.3708C206.485 12.5738 206.485 12.7769 206.46 12.9799ZM218.044 15.6194H209.415V16.2032C209.415 17.9798 210.253 18.7158 211.699 18.7158C212.765 18.7158 213.806 18.1828 214.187 17.3199H217.587C216.369 19.8833 214.06 21.3299 211.395 21.3299C207.892 21.3299 206.141 19.5533 206.141 16.1778C206.141 11.3556 209.034 8.1831 213.501 8.1831C216.648 8.1831 218.273 9.85818 218.273 13.183C218.273 13.919 218.197 14.7311 218.044 15.6194ZM209.796 13.5383H215.024C215.075 13.2591 215.075 13.0053 215.075 12.7769C215.075 11.1779 214.06 10.7972 212.943 10.7972C211.268 10.7972 210.278 11.9901 209.796 13.5383ZM52.096 41.1321H55.0147C58.0857 41.1321 59.4054 39.2032 59.4054 35.3962C59.4054 31.5892 58.0857 30.0664 54.7101 30.0664H52.096V41.1321ZM55.7253 44H48.6697V27.1477H55.1923C59.7607 27.1477 63.0094 30.2694 63.0094 35.3962C63.0094 40.5229 60.0907 44 55.7253 44ZM66.7763 36.5383H71.8777C71.8269 34.6855 70.6087 33.7972 69.3143 33.7972C67.9946 33.7972 66.9032 34.8124 66.7763 36.5383ZM75.2786 38.6194H66.6748C66.7763 40.4976 67.8423 41.7158 69.4666 41.7158C70.5326 41.7158 71.4716 41.1828 71.7 40.3199H75.101C74.3396 42.8833 72.2838 44.3299 69.6189 44.3299C65.4566 44.3299 63.3754 42.0457 63.3754 37.5281C63.3754 33.6703 65.5835 31.1831 69.4158 31.1831C73.2482 31.1831 75.2786 33.6703 75.2786 38.6194ZM82.3787 44H78.927L74.4601 31.513H78.1402L80.7544 39.7615L83.3939 31.513H86.8709L82.3787 44ZM89.5053 36.5383H94.6067C94.5559 34.6855 93.3377 33.7972 92.0433 33.7972C90.7235 33.7972 89.6322 34.8124 89.5053 36.5383ZM98.0076 38.6194H89.4038C89.5053 40.4976 90.5713 41.7158 92.1956 41.7158C93.2615 41.7158 94.2006 41.1828 94.429 40.3199H97.8299C97.0685 42.8833 95.0128 44.3299 92.3479 44.3299C88.1855 44.3299 86.1044 42.0457 86.1044 37.5281C86.1044 33.6703 88.3124 31.1831 92.1448 31.1831C95.9772 31.1831 98.0076 33.6703 98.0076 38.6194ZM101.94 44H98.6403V26.9446H101.94V44ZM108.959 41.5635C110.964 41.5635 111.979 40.2945 111.979 37.7565C111.979 35.2185 110.964 33.9749 108.959 33.9749C106.954 33.9749 105.939 35.2185 105.939 37.7565C105.939 40.2945 106.954 41.5635 108.959 41.5635ZM108.959 44.3299C104.924 44.3299 102.538 41.6397 102.538 37.7565C102.538 33.7972 105 31.1831 108.959 31.1831C112.868 31.1831 115.304 33.7719 115.304 37.7565C115.304 41.7158 112.842 44.3299 108.959 44.3299ZM121.879 41.5128C123.808 41.5128 124.722 40.2184 124.722 37.655C124.722 35.4216 123.554 33.8734 121.904 33.8734C120.331 33.8734 119.113 35.3454 119.113 37.452C119.113 40.1676 120.052 41.5128 121.879 41.5128ZM119.24 49.9135H115.991V31.513H119.163L119.189 33.0358C119.976 31.7668 121.143 31.1831 122.666 31.1831C125.813 31.1831 128.072 33.6703 128.072 37.8834C128.072 41.665 126.168 44.3299 122.945 44.3299C121.397 44.3299 120.179 43.6954 119.24 42.3757V49.9135ZM146.636 44H143.412L144.758 36.4368C144.808 36.1322 144.834 35.853 144.834 35.6246C144.834 34.381 144.199 33.8734 143.235 33.8734C141.966 33.8734 140.925 35.0155 140.671 36.5383L139.352 44H136.052L137.372 36.4875C137.448 35.9799 137.474 35.5738 137.499 35.2439C137.499 34.1526 136.966 33.9749 135.849 33.9749C134.529 33.9749 133.692 34.7871 133.413 36.4114L132.068 44H128.768L130.976 31.513H134.073L133.743 33.3404C134.885 31.6907 136.128 31.1831 137.778 31.1831C139.479 31.1831 140.189 31.7161 140.9 33.1627C141.839 31.7922 143.057 31.1831 144.631 31.1831C146.864 31.1831 148.235 32.6298 148.235 34.584C148.235 34.8124 148.209 35.0916 148.158 35.3454L146.636 44ZM159.958 38.6194H151.329V39.2032C151.329 40.9798 152.166 41.7158 153.613 41.7158C154.679 41.7158 155.719 41.1828 156.1 40.3199H159.501C158.283 42.8833 155.973 44.3299 153.308 44.3299C149.806 44.3299 148.055 42.5533 148.055 39.1778C148.055 34.3556 150.948 31.1831 155.415 31.1831C158.562 31.1831 160.186 32.8582 160.186 36.183C160.186 36.919 160.11 37.7311 159.958 38.6194ZM151.709 36.5383H156.938C156.988 36.2591 156.988 36.0053 156.988 35.7769C156.988 34.1779 155.973 33.7972 154.856 33.7972C153.181 33.7972 152.192 34.9901 151.709 36.5383ZM170.971 44H167.646L168.991 36.4368C169.067 36.0307 169.093 35.6754 169.093 35.3708C169.093 34.2541 168.534 33.9749 167.291 33.9749C165.565 33.9749 164.55 34.9393 164.22 36.8428L162.951 44H159.651L161.86 31.513H165.007L164.677 33.3404C165.692 31.9445 167.088 31.1831 169.093 31.1831C171.174 31.1831 172.57 32.2998 172.57 34.381C172.57 34.6855 172.544 35.0155 172.494 35.3454L170.971 44ZM183.507 35.7769L182.872 39.3301C182.39 41.9696 180.487 44.3299 176.959 44.3299C173.862 44.3299 172.644 42.6549 172.644 40.4976C172.644 40.1169 172.67 39.7108 172.746 39.3047L174.7 28.1375H177.949L177.365 31.513H184.268L183.862 33.848H176.959L176.045 38.9748C175.969 39.3555 175.944 39.6854 175.944 39.9646C175.944 41.0559 176.451 41.462 177.517 41.462C178.786 41.462 179.598 40.5737 179.878 39.0255L180.436 35.7769H183.507Z" fill="white"/>
<path d="M21.8508 30.3745L21.7387 31.7857L23.0461 32.3285L21.6693 32.6579L21.5572 34.0691L20.8184 32.8614L19.4416 33.1908L20.3619 32.1151L19.6231 30.9075L20.9306 31.4502L21.8508 30.3745Z" fill="white"/>
<path d="M26.1939 26.2647L26.0759 27.7493L27.4514 28.3203L26.003 28.6668L25.885 30.1514L25.1078 28.8809L23.6594 29.2275L24.6275 28.0958L23.8504 26.8254L25.2258 27.3964L26.1939 26.2647Z" fill="white"/>
<path d="M29.1626 21.3532L29.48 22.8634L31.0144 23.0281L29.6762 23.7967L29.9937 25.3068L28.8492 24.2717L27.5111 25.0403L28.1419 23.6319L26.9974 22.5968L28.5318 22.7616L29.1626 21.3532Z" fill="white"/>
<path d="M19.8364 35.8269C20.1786 35.3055 20.943 35.3055 21.2852 35.8269L26.0306 43.0578C26.1389 43.2229 26.3003 43.346 26.4881 43.4068L32.2659 45.2771C33.2052 45.5811 32.9863 46.9678 31.9991 46.9678H9.12243C8.13521 46.9678 7.91636 45.5811 8.8556 45.2771L14.6335 43.4068C14.8213 43.346 14.9827 43.2229 15.091 43.0578L19.8364 35.8269Z" fill="white"/>
<path d="M19.8379 11.1584C20.1801 11.6798 20.9445 11.6798 21.2866 11.1584L26.032 3.92751C26.1403 3.76248 26.3018 3.63937 26.4896 3.57857L32.2674 1.70829C33.2066 1.40426 32.9878 0.0175361 32.0006 0.0175361L9.1239 0.0175361C8.13667 0.0175361 7.91782 1.40426 8.85707 1.70829L14.6349 3.57858C14.8228 3.63937 14.9842 3.76248 15.0925 3.92752L19.8379 11.1584Z" fill="white"/>
<path d="M11.5447 6.58567C12.0687 6.20495 12.8024 6.32216 13.1814 6.84738L15.1512 9.5759C14.972 9.4561 14.7812 9.35434 14.5799 9.27512V9.27414L14.3484 9.19699C13.8196 9.04833 13.3647 9.11255 13.1658 9.14817C12.88 9.19938 12.6325 9.28658 12.4539 9.36008C12.1323 9.49248 11.7305 9.70733 11.407 9.98899C11.3995 9.99555 11.392 10.0028 11.3846 10.0095C8.89212 12.2393 7.05021 15.5966 6.3074 18.8562C6.23495 19.1005 6.18418 19.3509 6.15506 19.6052C6.1292 19.7518 6.10493 19.8979 6.08377 20.0437C5.76128 22.2648 5.9519 25.3451 6.92947 27.5837C7.22764 28.575 7.87653 29.9975 8.27713 30.7097C8.70582 31.4717 9.62633 32.8717 10.5545 34.1599C10.6184 34.2486 10.6832 34.337 10.7478 34.4255C10.7907 34.4876 10.8348 34.5486 10.8806 34.6081C11.2497 35.1088 11.6257 35.5975 11.9803 36.028C12.375 36.5074 12.859 37.0556 13.3308 37.4343C13.3211 38.2076 13.3695 38.9539 13.4783 39.6794L12.6746 40.7917C12.4546 41.0958 12.1011 41.2828 11.7273 41.2488C9.18911 41.0172 6.56129 39.3429 5.78494 36.9538L0.306426 20.0925C-0.530739 17.5154 0.386731 14.6921 2.57889 13.0993L11.5447 6.58567ZM35.4109 36.9538C34.6344 39.3435 31.9107 41.0178 29.3582 41.2488C28.9845 41.2825 28.6319 41.0956 28.4119 40.7917L26.4441 38.072C27.5232 37.4891 28.6909 36.9705 29.9519 36.4167C31.3772 35.7908 32.9342 35.1115 34.4002 34.2849C34.8443 34.1055 35.23 33.8546 35.5027 33.6589C35.8741 33.3924 36.2407 33.0819 36.5681 32.781C36.6654 32.6916 36.7601 32.5974 36.8562 32.5046L35.4109 36.9538ZM36.2879 22.7986C36.0385 23.0504 35.7453 23.3097 35.3982 23.613L35.3972 23.612C35.6288 23.4097 35.8364 23.2272 36.0232 23.0534L36.2879 22.7986ZM27.9422 6.79465C28.3212 6.26947 29.0549 6.15223 29.5789 6.53293L38.617 13.0993C40.8091 14.6921 41.7266 17.5154 40.8894 20.0925L40.2088 22.1863C40.1065 21.2419 39.8605 20.3872 39.5916 19.6335C39.2531 18.6856 38.3206 18.0818 37.3172 18.1618C36.5701 18.2216 35.9214 18.6492 35.5633 19.2722C35.5631 19.2652 35.5634 19.2577 35.5633 19.2507C35.5353 18.0726 35.3468 16.615 34.7459 15.4441C34.2336 14.0677 33.2727 12.7217 32.2332 11.7722L32.0154 11.5788C31.4205 11.0339 30.4019 10.3858 29.5447 9.92746C29.0451 9.66032 28.4819 9.39317 27.9431 9.20578C27.6751 9.1126 27.3587 9.01926 27.0262 8.9675C26.8734 8.94376 26.6569 8.91858 26.4031 8.92551L27.9422 6.79465ZM37.6043 20.698H37.6033L37.4949 20.3825V20.3816C37.5324 20.4868 37.5694 20.5925 37.6043 20.698ZM26.2566 11.237C26.373 11.4205 26.5748 11.6133 26.6394 11.7488H26.6385C26.6061 11.6811 26.5395 11.5994 26.4666 11.5114C26.3935 11.4234 26.3139 11.3288 26.2556 11.237H26.2566ZM12.948 11.6081C12.9175 11.6291 12.8914 11.65 12.8699 11.6687H12.8689C12.8905 11.6499 12.9172 11.6292 12.948 11.6081Z" fill="white"/>
<path d="M13.243 10.9333C13.4162 10.7825 13.9234 10.5274 14.1385 10.612C15.4844 11.1418 13.4958 14.1081 13.0916 15.0065C12.83 15.5898 12.6182 16.1941 12.4588 16.8132C11.6671 19.8982 12.2228 22.1451 13.7908 24.8093C15.3255 26.7873 15.7359 27.1806 17.6912 28.8483C17.6848 28.9647 17.6967 28.9819 17.6356 29.0768C16.3906 31.1772 15.841 32.3555 15.2655 34.6647L15.1366 34.9938C14.0544 34.1723 11.3305 30.1958 10.5916 28.8825C10.2201 28.2221 9.59749 26.8344 9.39632 26.0827C8.58511 24.3348 8.37233 21.6172 8.66097 19.6286C9.11548 16.4979 10.8624 13.0629 13.243 10.9333ZM16.1268 17.2477C16.7312 15.6514 18.6018 14.7746 20.2098 15.3727C21.013 15.6676 21.663 16.2738 22.0135 17.0544C22.391 17.8652 22.4288 18.7929 22.118 19.6315C21.835 20.3766 21.3497 20.8616 20.6776 21.2663C18.0042 22.7255 14.8869 19.9499 16.1268 17.2477Z" fill="white"/>
<path d="M26.7453 10.595C30.5185 11.3063 36.8591 15.1973 32.0343 25.0696C34.0447 24.2963 38.0275 22.1186 37.8791 19.595C38.8069 22.162 39.5681 28.0204 35.1886 30.9153C29.7148 34.5335 23.7774 35.6467 23.591 36.9456C23.4054 38.2445 26.3737 44.8321 21.7345 46.4094C18.6417 45.3886 13.4404 41.1395 17.3742 32.3069C22.2918 21.2655 28.6938 19.8734 26.7453 10.595ZM27.6896 17.7708C27.8888 24.0877 23.5519 24.2675 19.0685 30.9543C15.4823 36.3035 18.3848 39.6909 20.2843 40.7161C23.4924 40.2125 22.3171 35.5462 22.5881 34.7141C22.8592 33.8823 26.8618 33.8325 30.8507 32.0842C34.0416 30.6856 34.2219 26.7516 33.9132 24.9592C33.7183 26.6335 30.8686 27.6059 29.4679 27.8831C33.7554 21.9535 30.0687 18.6709 27.6896 17.7708Z" fill="white"/>
</svg>
