<svg width="83" height="83" viewBox="0 0 83 83" fill="none" xmlns="http://www.w3.org/2000/svg">
<path d="M53.3708 32.044C56.24 34.1285 57.4406 37.8235 56.3447 41.1964L53.3974 50.268C52.3015 53.6409 49.1583 55.9246 45.6118 55.9246H36.0727C32.5261 55.9246 29.383 53.6409 28.2871 50.268L25.3397 41.1962C24.2438 37.8234 25.4443 34.1285 28.3134 32.044L36.03 26.4373C38.8992 24.3527 42.7844 24.3526 45.6536 26.4372L53.3708 32.044ZM32.792 33.5C29.9229 35.5846 28.7224 39.2795 29.8183 42.6523L31.0536 46.4546C32.1496 49.8275 35.2927 52.1112 38.8392 52.1112H42.8374C46.3839 52.1112 49.5271 49.8275 50.623 46.4546L51.8583 42.6526C52.9542 39.2796 51.7536 35.5846 48.8844 33.5L45.6496 31.15C42.7804 29.0654 38.8953 29.0655 36.0262 31.1501L32.792 33.5Z" fill="url(#paint0_linear_87_896)"/>
<path d="M40.7508 18.0658C40.9174 17.6506 41.5051 17.6506 41.6717 18.0658L45.3425 27.2143C45.4732 27.5403 45.2332 27.8952 44.882 27.8952H37.5405C37.1893 27.8952 36.9493 27.5403 37.08 27.2143L40.7508 18.0658Z" fill="url(#paint1_linear_87_896)"/>
<path d="M40.7365 65.3183C40.899 65.7439 41.501 65.7439 41.6635 65.3183L45.3474 55.6702C45.4714 55.3454 45.2316 54.9971 44.8839 54.9971H37.5161C37.1685 54.9971 36.9286 55.3454 37.0526 55.6702L40.7365 65.3183Z" fill="url(#paint2_linear_87_896)"/>
<path d="M49.313 69.2827C49.4691 69.5203 49.7017 69.6981 49.9722 69.7856L58.3003 72.481C59.6541 72.9192 59.3385 74.9185 57.9155 74.9185H24.9409C23.518 74.9184 23.2025 72.9193 24.5562 72.481L32.8843 69.7856C33.1549 69.698 33.3883 69.5205 33.5444 69.2827L37.8853 62.6675L40.7544 69.8442C40.9207 70.2602 41.509 70.2602 41.6753 69.8442L44.7056 62.2622L49.313 69.2827Z" fill="url(#paint3_linear_87_896)"/>
<path d="M17.0966 38.0999C16.6554 37.9441 16.6554 37.3202 17.0966 37.1643L27.577 33.4617C27.8998 33.3477 28.2384 33.5872 28.2384 33.9295V41.3348C28.2384 41.6771 27.8998 41.9166 27.577 41.8026L17.0966 38.0999Z" fill="url(#paint4_linear_87_896)"/>
<path d="M65.9347 38.228C66.3916 38.0794 66.3916 37.433 65.9347 37.2844L54.8247 33.6708C54.5041 33.5665 54.1751 33.8055 54.1751 34.1426V41.3697C54.1751 41.7069 54.5041 41.9458 54.8247 41.8416L65.9347 38.228Z" fill="url(#paint5_linear_87_896)"/>
<path d="M57.9155 7.24316C59.3385 7.24316 59.6541 9.24242 58.3003 9.68066L49.9721 12.377C49.7014 12.4646 49.4691 12.642 49.3129 12.8799L44.4848 20.2344L41.6381 13.7383C41.4646 13.3423 40.9035 13.3423 40.7299 13.7383L38.0776 19.7881L33.5444 12.8799C33.3883 12.642 33.1549 12.4646 32.8842 12.377L24.5561 9.68066C23.2025 9.2423 23.518 7.24325 24.9409 7.24316H57.9155Z" fill="url(#paint6_linear_87_896)"/>
<path d="M69.6038 12.9056C70.0737 12.5317 70.6964 13.1371 70.3118 13.5939L48.1411 39.9267C47.9526 40.1505 47.6065 40.1673 47.3961 39.9627L42.4828 35.1857C42.2724 34.9812 42.2896 34.6447 42.5199 34.4614L69.6038 12.9056Z" fill="url(#paint7_linear_87_896)"/>
<path d="M11.69 69.2133C11.3054 69.6701 11.9281 70.2756 12.3979 69.9016L39.4818 48.3458C39.7121 48.1626 39.7293 47.8261 39.5189 47.6215L34.6057 42.8445C34.3952 42.64 34.0492 42.6567 33.8607 42.8806L11.69 69.2133Z" fill="url(#paint8_linear_87_896)"/>
<path d="M45.9979 46.4027C43.2854 49.1152 38.8875 49.1152 36.1749 46.4027C33.4624 43.6901 33.4624 39.2922 36.1749 36.5797C38.8875 33.8672 43.2854 33.8672 45.9979 36.5797C48.7105 39.2922 48.7105 43.6901 45.9979 46.4027ZM38.0036 38.4083C36.301 40.1109 36.301 42.8714 38.0036 44.574C39.7062 46.2766 42.4667 46.2766 44.1693 44.574C45.8719 42.8714 45.8719 40.1109 44.1693 38.4083C42.4667 36.7057 39.7062 36.7057 38.0036 38.4083Z" fill="url(#paint9_linear_87_896)"/>
<path d="M45.6471 46.0519C45.8408 46.2456 46.1565 46.2467 46.3359 46.0396C46.8234 45.4771 47.2179 44.8389 47.5036 44.1493C47.8527 43.3065 48.0323 42.4033 48.0323 41.4912C48.0323 40.579 47.8527 39.6758 47.5036 38.8331C47.1545 37.9904 46.6429 37.2247 45.9979 36.5797C45.3529 35.9347 44.5872 35.4231 43.7445 35.074C42.9018 34.725 41.9986 34.5453 41.0864 34.5453C40.1743 34.5453 39.2711 34.725 38.4283 35.074C37.7387 35.3597 37.1006 35.7543 36.538 36.2417C36.3309 36.4211 36.332 36.7368 36.5258 36.9305L39.2635 39.6683C39.4573 39.862 39.7694 39.8557 40.0034 39.7132C40.0948 39.6576 40.1905 39.6089 40.2897 39.5678C40.5423 39.4632 40.813 39.4093 41.0864 39.4093C41.3598 39.4093 41.6305 39.4632 41.8831 39.5678C42.1357 39.6724 42.3652 39.8258 42.5585 40.0191C42.7518 40.2124 42.9052 40.4419 43.0098 40.6945C43.1144 40.9471 43.1683 41.2178 43.1683 41.4912C43.1683 41.7646 43.1144 42.0353 43.0098 42.2879C42.9687 42.3871 42.9201 42.4828 42.8644 42.5742C42.7219 42.8082 42.7156 43.1203 42.9093 43.3141L45.6471 46.0519Z" fill="url(#paint10_linear_87_896)"/>
<path d="M45.9984 46.4351C43.2859 49.1477 38.888 49.1477 36.1754 46.4351C33.4629 43.7226 33.4629 39.3247 36.1754 36.6122C38.888 33.8996 43.2859 33.8996 45.9984 36.6122C48.7109 39.3247 48.7109 43.7226 45.9984 46.4351ZM38.0041 38.4408C36.3015 40.1434 36.3015 42.9039 38.0041 44.6065C39.7067 46.3091 42.4672 46.3091 44.1698 44.6065C45.8724 42.9039 45.8724 40.1434 44.1698 38.4408C42.4672 36.7382 39.7067 36.7382 38.0041 38.4408Z" fill="url(#paint11_linear_87_896)"/>
<path d="M45.6476 46.0843C45.8413 46.2781 46.157 46.2792 46.3364 46.0721C46.8238 45.5095 47.2184 44.8714 47.5041 44.1817C47.8531 43.339 48.0328 42.4358 48.0328 41.5237C48.0328 40.6115 47.8531 39.7083 47.5041 38.8656C47.155 38.0229 46.6434 37.2572 45.9984 36.6122C45.3534 35.9672 44.5877 35.4556 43.745 35.1065C42.9023 34.7574 41.9991 34.5778 41.0869 34.5778C40.1748 34.5778 39.2716 34.7574 38.4288 35.1065C37.7392 35.3922 37.101 35.7867 36.5385 36.2742C36.3314 36.4536 36.3325 36.7692 36.5262 36.963L39.264 39.7007C39.4578 39.8945 39.7699 39.8882 40.0039 39.7457C40.0953 39.69 40.191 39.6414 40.2902 39.6003C40.5428 39.4956 40.8135 39.4418 41.0869 39.4418C41.3603 39.4418 41.631 39.4956 41.8836 39.6003C42.1362 39.7049 42.3657 39.8582 42.559 40.0516C42.7523 40.2449 42.9057 40.4744 43.0103 40.727C43.1149 40.9795 43.1688 41.2503 43.1688 41.5237C43.1688 41.797 43.1149 42.0678 43.0103 42.3203C42.9692 42.4196 42.9205 42.5153 42.8649 42.6066C42.7224 42.8406 42.7161 43.1528 42.9098 43.3466L45.6476 46.0843Z" fill="url(#paint12_linear_87_896)"/>
<path d="M32.5089 59.6029C33.4414 59.603 33.9815 60.6604 33.4356 61.4162L30.0845 66.0476C29.7675 66.4853 29.2588 66.7544 28.7206 66.7057C26.4279 66.4965 24.0847 65.4699 22.3788 63.8855L29.0528 58.5733C30.0571 59.229 31.2498 59.6027 32.5089 59.6029ZM21.3747 62.789L21.3741 62.7883L27.8927 57.601L27.8934 57.6017L21.3747 62.789ZM28.4569 16.7414C29.212 16.1932 30.2701 16.3625 30.8164 17.1191L33.8527 21.3279C34.3962 22.0815 34.228 23.133 33.4764 23.6792L23.2509 31.108C22.2528 31.8332 21.5159 32.8118 21.0847 33.9053L13.7913 37.2116C13.403 37.3877 13.4031 37.9387 13.7913 38.1148L22.164 41.9093L25.114 50.9857L19.3011 57.8883L12.2569 36.2131C11.0501 32.4984 12.373 28.4272 15.5328 26.1313L28.4569 16.7414ZM67.4796 26.132C70.6391 28.4278 71.9614 32.4972 70.7548 36.2117L62.8572 60.515C61.7378 63.9593 57.8114 66.3728 54.1323 66.7057C53.5941 66.7539 53.0855 66.4854 52.7685 66.0476L49.4726 61.4935C48.9035 60.7059 49.4662 59.6049 50.4379 59.6042C53.1781 59.6041 55.6083 57.8391 56.4553 55.2332L60.7 42.1662L69.3503 38.2391C69.7376 38.0627 69.7378 37.5121 69.3503 37.3359L61.8759 33.9412C61.4466 32.8332 60.7062 31.8411 59.6973 31.108L58.3591 30.1343L63.9123 23.5383L67.4796 26.132ZM51.6947 25.293L49.4104 23.6343C48.6587 23.088 48.4897 22.036 49.0334 21.2824L52.0918 17.0432C52.6381 16.2867 53.6962 16.1173 54.4513 16.6655L58.6774 19.7356L51.6947 25.293Z" fill="url(#paint13_linear_87_896)"/>
<defs>
<linearGradient id="paint0_linear_87_896" x1="40.8422" y1="24.8738" x2="40.8562" y2="55.9246" gradientUnits="userSpaceOnUse">
<stop stop-color="#003CEC"/>
<stop offset="1" stop-color="#00B0D8"/>
</linearGradient>
<linearGradient id="paint1_linear_87_896" x1="41.2113" y1="16.9182" x2="41.221" y2="31.5542" gradientUnits="userSpaceOnUse">
<stop stop-color="#003CEC"/>
<stop offset="1" stop-color="#00B0D8"/>
</linearGradient>
<linearGradient id="paint2_linear_87_896" x1="41.2" y1="66.5322" x2="41.2107" y2="51.152" gradientUnits="userSpaceOnUse">
<stop stop-color="#003CEC"/>
<stop offset="1" stop-color="#00B0D8"/>
</linearGradient>
<linearGradient id="paint3_linear_87_896" x1="41.4283" y1="62.2622" x2="41.4304" y2="74.9185" gradientUnits="userSpaceOnUse">
<stop stop-color="#003CEC"/>
<stop offset="1" stop-color="#00B0D8"/>
</linearGradient>
<linearGradient id="paint4_linear_87_896" x1="15.7725" y1="37.6321" x2="32.3937" y2="37.6196" gradientUnits="userSpaceOnUse">
<stop stop-color="#003CEC"/>
<stop offset="1" stop-color="#00B0D8"/>
</linearGradient>
<linearGradient id="paint5_linear_87_896" x1="67.3853" y1="37.7562" x2="49.7717" y2="37.7418" gradientUnits="userSpaceOnUse">
<stop stop-color="#003CEC"/>
<stop offset="1" stop-color="#00B0D8"/>
</linearGradient>
<linearGradient id="paint6_linear_87_896" x1="41.4283" y1="7.24316" x2="41.4305" y2="20.2344" gradientUnits="userSpaceOnUse">
<stop stop-color="#003CEC"/>
<stop offset="1" stop-color="#00B0D8"/>
</linearGradient>
<linearGradient id="paint7_linear_87_896" x1="73.5062" y1="9.79974" x2="36.5929" y2="47.9694" gradientUnits="userSpaceOnUse">
<stop stop-color="#003CEC"/>
<stop offset="1" stop-color="#00B0D8"/>
</linearGradient>
<linearGradient id="paint8_linear_87_896" x1="8.49549" y1="73.0075" x2="45.6176" y2="35.0298" gradientUnits="userSpaceOnUse">
<stop stop-color="#003CEC"/>
<stop offset="1" stop-color="#00B0D8"/>
</linearGradient>
<linearGradient id="paint9_linear_87_896" x1="45.9979" y1="36.5797" x2="36.1795" y2="46.4072" gradientUnits="userSpaceOnUse">
<stop stop-color="#003CEC"/>
<stop offset="1" stop-color="#00B0D8"/>
</linearGradient>
<linearGradient id="paint10_linear_87_896" x1="45.9979" y1="36.5797" x2="36.1795" y2="46.4072" gradientUnits="userSpaceOnUse">
<stop stop-color="#003CEC"/>
<stop offset="1" stop-color="#00B0D8"/>
</linearGradient>
<linearGradient id="paint11_linear_87_896" x1="45.9984" y1="36.6122" x2="36.18" y2="46.4397" gradientUnits="userSpaceOnUse">
<stop stop-color="#003CEC"/>
<stop offset="1" stop-color="#00B0D8"/>
</linearGradient>
<linearGradient id="paint12_linear_87_896" x1="45.9984" y1="36.6122" x2="36.18" y2="46.4397" gradientUnits="userSpaceOnUse">
<stop stop-color="#003CEC"/>
<stop offset="1" stop-color="#00B0D8"/>
</linearGradient>
<linearGradient id="paint13_linear_87_896" x1="62.2522" y1="20.7471" x2="20.7655" y2="62.2722" gradientUnits="userSpaceOnUse">
<stop stop-color="#003CEC"/>
<stop offset="1" stop-color="#00B0D8"/>
</linearGradient>
</defs>
</svg>
