<svg width="148" height="60" viewBox="0 0 148 60" fill="none" xmlns="http://www.w3.org/2000/svg">
<path d="M54.1987 5.27268H50.3751V9.05362H54.0919C55.6727 9.05362 56.2708 8.26326 56.2708 7.17383C56.2708 6.06305 55.6727 5.27268 54.1987 5.27268ZM58.6632 17H55.7581V13.3472C55.7581 11.9801 55.2454 11.4461 53.5365 11.4461H50.3751V17H47.4913V2.81614H54.69C57.3175 2.81614 59.0477 4.56776 59.0477 6.9175C59.0477 8.43415 58.3001 9.71582 56.933 10.2071C58.1933 10.613 58.6632 11.3179 58.6632 12.9841V17ZM62.1051 10.7198H66.3987C66.3559 9.16043 65.3306 8.41278 64.2412 8.41278C63.1304 8.41278 62.2119 9.26723 62.1051 10.7198ZM69.2611 12.4714H62.0196C62.1051 14.0521 63.0022 15.0775 64.3694 15.0775C65.2665 15.0775 66.0569 14.6289 66.2491 13.9026H69.1115C68.4707 16.0601 66.7404 17.2777 64.4975 17.2777C60.9943 17.2777 59.2427 15.3552 59.2427 11.5529C59.2427 8.30598 61.1011 6.21258 64.3266 6.21258C67.5522 6.21258 69.2611 8.30598 69.2611 12.4714ZM80.0684 9.6731H77.3982C77.3982 8.58367 76.9923 8.28462 75.7747 8.28462C74.5144 8.28462 73.8736 8.56231 73.8736 9.28859C73.8736 9.80126 74.4076 10.079 75.3902 10.3567C78.3808 11.2111 79.7052 11.2966 79.7052 13.5608C79.7052 15.6542 77.7613 17.2777 74.3863 17.2777C71.6307 17.2777 69.9859 16.0815 69.9859 14.1803C69.9859 14.0094 70.0072 13.8172 70.0286 13.6249H72.891C72.8696 13.7317 72.8696 13.8385 72.8696 13.9453C72.8696 14.7998 73.6173 15.1843 74.728 15.1843C75.8602 15.1843 76.8428 14.8212 76.8428 13.9881C76.8428 13.4113 76.3301 13.1336 75.3689 12.8986C72.0152 12.1296 71.118 11.2325 71.118 9.41676C71.118 7.87875 72.5278 6.21258 76.2233 6.21258C78.9576 6.21258 80.1111 7.28064 80.1111 9.09634C80.1111 9.28859 80.0897 9.48085 80.0684 9.6731ZM90.0158 12.4714H82.753V12.9627C82.753 14.458 83.4579 15.0775 84.6755 15.0775C85.5727 15.0775 86.4485 14.6289 86.7689 13.9026H89.6313C88.606 16.0601 86.6621 17.2777 84.4192 17.2777C81.4714 17.2777 79.9974 15.7824 79.9974 12.9414C79.9974 8.88273 82.4326 6.21258 86.1922 6.21258C88.841 6.21258 90.2081 7.62242 90.2081 10.4207C90.2081 11.0402 90.144 11.7238 90.0158 12.4714ZM83.0734 10.7198H87.4739C87.5166 10.4848 87.5166 10.2712 87.5166 10.079C87.5166 8.7332 86.6621 8.41278 85.7222 8.41278C84.3124 8.41278 83.4793 9.41676 83.0734 10.7198ZM96.8286 13.0054L97.0422 11.8519C96.7218 12.1296 96.2091 12.2792 95.141 12.4714C93.1544 12.8346 92.7486 13.3686 92.7486 14.3512C92.7486 15.0134 93.2613 15.2911 93.9875 15.2911C95.3333 15.2911 96.5936 14.2444 96.8286 13.0054ZM98.922 17H96.3373C96.3159 16.8718 96.2945 16.7223 96.2945 16.5514C96.2945 16.4019 96.3159 16.231 96.3373 16.0601C95.5469 16.7864 94.3507 17.2777 92.9408 17.2777C90.8474 17.2777 89.8862 16.3164 89.8862 14.8852C89.8862 11.7665 92.0864 11.0829 95.4401 10.6344C97.3412 10.378 97.4267 10.0149 97.4267 9.43812C97.4267 8.54095 96.8286 8.3487 95.8246 8.3487C94.5643 8.3487 93.9448 8.96818 93.6671 9.90807H91.0824C91.5096 7.72923 92.9622 6.21258 96.3373 6.21258C99.1356 6.21258 100.204 7.25928 100.204 9.16043C100.204 9.54493 100.161 9.92943 100.097 10.3567L98.922 17ZM102.496 17H99.7194L101.578 6.49027H104.184L103.949 7.75059C105.124 6.34075 106.213 6.21258 107.345 6.21258H107.708L107.217 9.05362C106.961 9.0109 106.704 8.98954 106.448 8.98954C104.739 8.98954 103.757 9.84399 103.458 11.5315L102.496 17ZM116.189 10.2499H113.391C113.391 10.143 113.412 10.0576 113.412 9.95079C113.412 8.90409 112.665 8.51959 111.703 8.51959C110.229 8.51959 108.926 9.60901 108.926 12.4928C108.926 14.3512 109.589 14.9493 110.486 14.9493C111.575 14.9493 112.536 14.3298 112.835 13.1977H115.634C114.908 15.6329 112.643 17.2777 110.101 17.2777C107.666 17.2777 106.128 15.7824 106.128 12.8986C106.128 8.39142 108.606 6.21258 112.131 6.21258C114.673 6.21258 116.211 7.55834 116.211 9.73718C116.211 9.90807 116.211 10.079 116.189 10.2499ZM124.893 17H122.094L123.248 10.4848C123.312 10.1217 123.333 9.82263 123.333 9.58765C123.333 8.58367 122.821 8.41278 121.817 8.41278C120.407 8.41278 119.467 9.56629 119.211 10.9761L118.143 17H115.366L117.886 2.64525H120.663L119.745 7.85739C120.321 6.9175 121.731 6.21258 123.141 6.21258C125.042 6.21258 126.26 7.19519 126.26 8.86137C126.26 9.07498 126.238 9.30996 126.196 9.56629L124.893 17ZM137.435 12.685V8.86137H140.105V12.685C140.105 15.5688 138.161 17.4913 135.32 17.4913C132.094 17.4913 130.236 15.5688 130.236 13.0482C130.236 11.7238 130.962 10.1858 131.945 9.75854C130.834 9.18179 130.3 8.17781 130.3 6.78933C130.3 4.41823 132.479 2.81614 135.64 2.81614V5.14452C133.718 5.14452 133.034 5.72127 133.034 7.10975C133.034 8.30598 133.782 8.86137 135.64 8.86137V10.8693C133.953 10.8693 132.949 11.5742 132.949 13.0054C132.949 14.1803 133.675 15.2057 135.299 15.2057C136.73 15.2057 137.435 14.3298 137.435 12.685ZM54.3269 36H51.3577L53.4297 24.294H49.1575L49.5847 21.8161H61.1198L60.6925 24.294H56.3989L54.3269 36ZM67.3187 31.4714H60.0559V31.9627C60.0559 33.458 60.7608 34.0775 61.9784 34.0775C62.8756 34.0775 63.7514 33.6289 64.0718 32.9026H66.9342C65.9089 35.0601 63.965 36.2777 61.7221 36.2777C58.7742 36.2777 57.3003 34.7824 57.3003 31.9414C57.3003 27.8827 59.7355 25.2126 63.495 25.2126C66.1438 25.2126 67.511 26.6224 67.511 29.4207C67.511 30.0402 67.4469 30.7238 67.3187 31.4714ZM60.3763 29.7198H64.7767C64.8194 29.4848 64.8194 29.2712 64.8194 29.079C64.8194 27.7332 63.965 27.4128 63.0251 27.4128C61.6153 27.4128 60.7822 28.4168 60.3763 29.7198ZM77.7415 29.2499H74.9432C74.9432 29.143 74.9645 29.0576 74.9645 28.9508C74.9645 27.9041 74.2169 27.5196 73.2556 27.5196C71.7817 27.5196 70.4787 28.609 70.4787 31.4928C70.4787 33.3512 71.1409 33.9493 72.038 33.9493C73.1275 33.9493 74.0887 33.3298 74.3878 32.1977H77.1861C76.4598 34.6329 74.1955 36.2777 71.6535 36.2777C69.2184 36.2777 67.6803 34.7824 67.6803 31.8986C67.6803 27.3914 70.1582 25.2126 73.6828 25.2126C76.2248 25.2126 77.7628 26.5583 77.7628 28.7372C77.7628 28.9081 77.7628 29.079 77.7415 29.2499ZM86.445 36H83.6467V29.4848C83.6467 27.9041 83.1127 27.4128 81.8524 27.4128C80.4639 27.4128 79.6949 28.5663 79.6949 29.9761V36H76.9179V21.6453H79.6949V26.8574C80.1007 25.9175 81.3824 25.2126 82.7922 25.2126C84.9497 25.2126 86.445 26.4729 86.445 28.5663V36ZM96.761 36H93.9627V29.6344C93.9627 28.0109 93.4927 27.5623 92.1683 27.5623C90.7158 27.5623 90.0108 28.374 90.0108 29.9761V36H87.2339V25.4903H89.8827V27.0283C90.5235 25.8534 91.5916 25.2126 93.2791 25.2126C95.2871 25.2126 96.761 26.4302 96.761 28.7158V36ZM102.719 33.9493C104.407 33.9493 105.261 32.8813 105.261 30.7451C105.261 28.609 104.407 27.5623 102.719 27.5623C101.032 27.5623 100.177 28.609 100.177 30.7451C100.177 32.8813 101.032 33.9493 102.719 33.9493ZM102.719 36.2777C99.3228 36.2777 97.3149 34.0134 97.3149 30.7451C97.3149 27.4128 99.3869 25.2126 102.719 25.2126C106.009 25.2126 108.06 27.3914 108.06 30.7451C108.06 34.0775 105.988 36.2777 102.719 36.2777ZM111.415 36H108.638V21.6453H111.415V36ZM117.323 33.9493C119.01 33.9493 119.864 32.8813 119.864 30.7451C119.864 28.609 119.01 27.5623 117.323 27.5623C115.635 27.5623 114.781 28.609 114.781 30.7451C114.781 32.8813 115.635 33.9493 117.323 33.9493ZM117.323 36.2777C113.926 36.2777 111.918 34.0134 111.918 30.7451C111.918 27.4128 113.99 25.2126 117.323 25.2126C120.612 25.2126 122.663 27.3914 122.663 30.7451C122.663 34.0775 120.591 36.2777 117.323 36.2777ZM128.282 33.9066C129.628 33.9066 130.653 32.7745 130.653 31.0015C130.653 28.7158 129.863 27.6264 128.282 27.6264C126.723 27.6264 125.911 28.6731 125.911 30.8306C125.911 32.7104 126.915 33.9066 128.282 33.9066ZM130.568 36.3204V34.5902C130.183 35.5301 129.051 36.0854 127.684 36.0854C124.224 36.0854 123.027 33.4367 123.027 30.6811C123.027 27.4128 125.078 25.2126 127.62 25.2126C128.944 25.2126 129.906 25.7252 130.568 26.7933V25.4903H133.345V36.1068C133.345 39.2683 131.038 40.9772 128.111 40.9772C125.185 40.9772 123.027 39.2896 123.027 36.5768H125.612C125.612 37.8371 126.531 38.5847 127.919 38.5847C129.393 38.5847 130.568 37.7089 130.568 36.3204ZM140.827 36.3204V34.6115C140.443 35.5514 139.289 36.1068 137.986 36.1068C135.786 36.1068 134.141 34.6115 134.141 32.3045V25.4903H136.918V31.8986C136.918 33.2017 137.516 33.8639 138.691 33.8639C139.951 33.8639 140.827 33.0308 140.827 31.8986V25.4903H143.604V36.2777C143.604 39.2469 141.468 40.9772 138.776 40.9772C135.7 40.9772 134.141 39.2896 134.141 36.5768H136.726C136.726 37.8157 137.452 38.5847 138.905 38.5847C139.909 38.5847 140.827 37.7089 140.827 36.3204ZM55.5872 49.6383L53.8142 43.999H53.7929L51.9772 49.6383H55.5872ZM60.5644 55H57.3388L56.4417 52.0735H51.2082L50.2042 55H47.0641L52.1267 40.8161H55.5659L60.5644 55ZM65.8102 52.9066C67.4337 52.9066 68.2027 51.8172 68.2027 49.6597C68.2027 47.7799 67.2201 46.4769 65.8316 46.4769C64.5072 46.4769 63.4819 47.7158 63.4819 49.4888C63.4819 51.7745 64.2722 52.9066 65.8102 52.9066ZM63.5887 59.9772H60.8544V44.4903H63.5246L63.5459 45.7719C64.2081 44.7039 65.1908 44.2126 66.4724 44.2126C69.1212 44.2126 71.0224 46.306 71.0224 49.8519C71.0224 53.0348 69.4203 55.2777 66.7074 55.2777C65.4044 55.2777 64.379 54.7437 63.5887 53.6329V59.9772ZM76.5643 52.9066C78.1877 52.9066 78.9567 51.8172 78.9567 49.6597C78.9567 47.7799 77.9741 46.4769 76.5856 46.4769C75.2612 46.4769 74.2359 47.7158 74.2359 49.4888C74.2359 51.7745 75.0263 52.9066 76.5643 52.9066ZM74.3427 59.9772H71.6085V44.4903H74.2786L74.3 45.7719C74.9622 44.7039 75.9448 44.2126 77.2265 44.2126C79.8753 44.2126 81.7764 46.306 81.7764 49.8519C81.7764 53.0348 80.1743 55.2777 77.4614 55.2777C76.1584 55.2777 75.1331 54.7437 74.3427 53.6329V59.9772ZM85.1395 55H82.3625V40.6453H85.1395V55ZM88.719 55H85.942V44.4903H88.719V55ZM88.719 43.23H85.942V40.6453H88.719V43.23ZM96.225 51.1977H99.0233C98.7242 53.6329 96.7376 55.2777 94.1956 55.2777C91.3332 55.2777 89.368 53.3765 89.368 49.617C89.368 45.8574 91.3332 44.2126 94.2811 44.2126C97.0153 44.2126 98.8737 45.7719 99.0446 48.2499H96.2463C96.0968 47.1604 95.3064 46.5196 94.2597 46.5196C93.0849 46.5196 92.1236 47.2672 92.1236 49.5529C92.1236 51.8385 93.0849 52.9493 94.1743 52.9493C95.2637 52.9493 96.1181 52.3298 96.225 51.1977ZM105.783 51.0054L105.804 49.8519C105.527 50.1296 105.035 50.2792 104.01 50.4714C102.429 50.7705 101.917 51.2191 101.917 52.1162C101.917 52.9066 102.386 53.2911 103.262 53.2911C104.694 53.2911 105.762 52.2444 105.783 51.0054ZM108.581 55H105.997C105.911 54.7437 105.847 54.3805 105.826 54.0601C105.163 54.7864 104.053 55.2777 102.643 55.2777C100.25 55.2777 99.1396 54.1028 99.1396 52.3939C99.1396 49.3606 101.169 49.0189 103.967 48.6344C105.356 48.4421 105.74 48.1644 105.74 47.4381C105.74 46.7546 105.057 46.3487 103.967 46.3487C102.707 46.3487 102.194 46.9682 102.066 47.9081H99.4814C99.5241 45.7292 100.72 44.2126 104.095 44.2126C107.428 44.2126 108.581 45.7079 108.581 48.3567V55ZM115.338 50.8132V48.079H117.923V51.0695C117.923 53.2911 116.641 55.2777 113.672 55.2777C110.596 55.2777 109.379 53.3125 109.379 51.0482V41.6492H112.113V44.4903H117.923V46.4555H112.113V50.7705C112.113 52.0949 112.583 52.8639 113.715 52.8639C114.826 52.8639 115.338 52.1162 115.338 50.8132ZM121.472 55H118.695V44.4903H121.472V55ZM121.472 43.23H118.695V40.6453H121.472V43.23ZM127.482 52.9493C129.17 52.9493 130.024 51.8813 130.024 49.7451C130.024 47.609 129.17 46.5623 127.482 46.5623C125.795 46.5623 124.94 47.609 124.94 49.7451C124.94 51.8813 125.795 52.9493 127.482 52.9493ZM127.482 55.2777C124.086 55.2777 122.078 53.0134 122.078 49.7451C122.078 46.4128 124.15 44.2126 127.482 44.2126C130.772 44.2126 132.823 46.3914 132.823 49.7451C132.823 53.0775 130.751 55.2777 127.482 55.2777ZM142.928 55H140.13V48.6344C140.13 47.0109 139.66 46.5623 138.335 46.5623C136.883 46.5623 136.178 47.374 136.178 48.9761V55H133.401V44.4903H136.05V46.0283C136.69 44.8534 137.759 44.2126 139.446 44.2126C141.454 44.2126 142.928 45.4302 142.928 47.7158V55Z" fill="white"/>
<path d="M18.9961 40.9965C19.3529 40.4529 20.1498 40.4529 20.5065 40.9965L25.4538 48.535C25.5668 48.7071 25.7351 48.8354 25.9309 48.8988L31.9545 50.8487C32.9337 51.1657 32.7055 52.6114 31.6763 52.6114H7.82625C6.79702 52.6114 6.56886 51.1657 7.54807 50.8487L13.5718 48.8988C13.7676 48.8354 13.9359 48.7071 14.0488 48.535L18.9961 40.9965Z" fill="white"/>
<path d="M18.9961 17.0324C19.3529 17.5759 20.1498 17.5759 20.5065 17.0324L25.4538 9.49376C25.5668 9.3217 25.7351 9.19336 25.9309 9.12998L31.9545 7.18012C32.9337 6.86315 32.7055 5.41741 31.6763 5.41741L7.82625 5.41741C6.79702 5.41741 6.56886 6.86315 7.54807 7.18012L13.5718 9.12998C13.7676 9.19336 13.9359 9.3217 14.0488 9.49377L18.9961 17.0324Z" fill="white"/>
<path d="M10.9298 12.4801C11.4257 12.12 12.1198 12.2313 12.4786 12.7281L14.4737 15.4928C14.7145 15.8269 14.7413 16.2492 14.5821 16.5992C13.9501 16.3261 13.3071 16.0884 12.6544 15.8922C11.9443 15.6788 10.8597 15.4965 10.1378 15.5533C7.41422 15.6974 6.01275 17.5456 6.21398 20.2125C6.27737 21.0521 6.46858 21.8623 6.73644 22.649C5.85713 23.7248 5.55719 25.1948 6.00109 26.5611L7.85363 32.2642C7.81939 32.3313 7.78441 32.3979 7.75109 32.4654C6.54706 34.8524 5.08546 38.7296 7.46105 40.9244C8.4771 41.863 9.72906 41.9586 11.0382 41.8717C11.8704 41.8163 12.8006 41.5639 13.588 41.2701C13.8066 41.1886 14.0244 41.1012 14.2423 41.0103C14.3788 41.2503 14.3867 41.5629 14.1993 41.8219L11.9991 44.8629C11.7909 45.1505 11.4563 45.3276 11.1027 45.2955C8.69993 45.0763 6.21183 43.4915 5.47667 41.2301L0.29015 25.2682C-0.502561 22.8284 0.366269 20.155 2.44152 18.6471L10.9298 12.4801ZM26.4532 12.6783C26.8122 12.1815 27.5062 12.071 28.0021 12.4312L36.5587 18.6471C38.634 20.155 39.5028 22.8284 38.7101 25.2682L33.5235 41.2301C32.7882 43.4921 30.2094 45.0769 27.7931 45.2955C27.4394 45.3273 27.1048 45.1505 26.8966 44.8629L24.7325 41.8726C24.5489 41.6188 24.5448 41.3152 24.6632 41.0719C25.5057 41.4107 26.367 41.676 27.2296 41.8209C27.6731 41.8955 28.2524 41.891 28.7091 41.8853C31.4725 41.796 32.7547 39.7369 32.5275 37.1793C32.3767 35.484 31.7866 33.9851 31.0294 32.4928L32.9571 26.5611C33.4237 25.125 33.0672 23.5758 32.0812 22.4889C32.373 21.5799 32.54 20.6481 32.5343 19.5475C32.5204 16.8984 30.6325 15.3853 28.0411 15.5562C26.7159 15.6591 25.4885 16.0232 24.3165 16.5289C24.1775 16.187 24.2118 15.7837 24.4435 15.4625L26.4532 12.6783ZM9.63976 37.7603C9.79881 38.2497 10.0452 38.6919 10.3546 39.0767C10.0707 39.0778 9.81323 39.0428 9.60558 38.9537C8.87316 38.6389 8.95947 37.5119 9.22277 36.4771L9.63976 37.7603ZM29.6193 36.8316C29.6618 37.0585 29.6954 37.2892 29.715 37.525C29.7845 38.3782 29.5558 39.0454 28.6105 39.066C28.9161 38.6835 29.1608 38.2454 29.3185 37.7603L29.6193 36.8316ZM10.0646 18.4068C10.5973 18.3391 11.3204 18.4746 11.9825 18.6666L9.15538 20.7203C9.14875 20.6894 9.1422 20.6598 9.13683 20.6314C9.03216 20.0789 8.91652 19.267 9.27062 18.773C9.46036 18.5087 9.76329 18.4501 10.0646 18.4068ZM26.9112 18.6207C27.669 18.4055 28.3889 18.3104 28.9591 18.4459C29.7565 18.6355 29.8452 19.5356 29.6319 20.5973L26.9112 18.6207Z" fill="white"/>
<path fill-rule="evenodd" clip-rule="evenodd" d="M31.0868 20.5014C31.1374 21.144 30.9752 22.1095 30.7852 22.7416C29.6916 26.3795 27.1384 29.6731 24.5878 32.4248C24.169 32.8663 23.7289 33.289 23.2989 33.7195C22.9673 34.0513 22.5384 34.3578 22.3799 34.8161C22.2675 35.1401 22.2934 35.4959 22.4516 35.8C22.6003 36.0874 22.8156 36.2562 23.0926 36.4337C23.9584 36.9886 28.1023 38.9788 28.512 37.2542C28.8613 35.7842 27.5049 33.1945 26.7405 31.9153C27.3267 31.2624 27.8867 30.5242 28.4242 29.8306C29.6876 31.8806 30.8922 33.9687 31.0839 36.4371C31.2361 38.7438 29.8896 40.4245 27.5316 40.4368C25.694 40.4464 24.3832 39.9206 22.7493 39.1198C21.5259 38.5205 20.6008 37.6666 19.1508 37.7715C18.0276 37.8526 17.4509 38.3081 16.5127 38.8352C15.0151 39.6326 13.5375 40.2791 11.8379 40.4302C9.56113 40.6327 7.72799 39.4917 7.64853 37.0318C7.64349 36.6253 7.6398 36.11 7.7062 35.7153C8.05406 33.6442 9.17201 31.5777 10.2946 29.8421C10.868 30.5346 11.3389 31.2316 11.9745 31.9115C11.113 33.3639 10.166 35.1549 10.1554 36.8918C10.1499 37.7772 10.7549 37.9907 11.5299 37.9275C12.831 37.8198 13.9643 37.2876 15.1222 36.7109C15.9454 36.3008 16.7843 35.694 16.2466 34.6251C16.0412 34.2165 15.4564 33.7735 15.1131 33.4332C14.7234 33.0476 14.3413 32.654 13.9676 32.2525C11.673 29.8127 9.37246 26.7252 8.19654 23.5723C7.93502 22.8714 7.71018 22.0436 7.66095 21.3028C7.58354 20.1375 7.66869 19.0234 8.50429 18.119C10.4579 16.0045 13.9083 17.3055 16.033 18.3772C16.3495 18.5334 16.66 18.7009 16.9643 18.8793C17.3314 19.0927 17.6971 19.3296 18.0972 19.4744C18.5815 19.6476 19.0964 19.7188 19.6096 19.6834C20.7905 19.6113 21.488 18.9809 22.507 18.4606C23.902 17.7519 25.362 17.128 26.9393 17.0089C29.3133 16.8296 30.9586 18.077 31.0868 20.5014ZM27.9935 23.0699C28.2868 22.3575 28.6424 21.185 28.5471 20.4359C28.5086 20.1678 28.4565 19.8988 28.2212 19.7299C27.7816 19.4144 27.0585 19.5172 26.5666 19.6104C25.6192 19.7899 23.0378 20.7755 22.5274 21.5185C22.3186 21.8226 22.2759 22.1687 22.3398 22.5247C22.3756 22.7246 22.5069 22.9231 22.6332 23.0798C22.8808 23.387 23.2013 23.642 23.4825 23.9189C24.0563 24.4838 24.6329 25.0587 25.1626 25.6654C24.6887 26.3839 24.1802 27.0788 23.6387 27.7478C23.2504 27.3137 22.854 26.8868 22.4496 26.4677C21.5784 25.5692 20.888 24.9525 19.5484 24.8826C18.569 24.828 17.6092 25.1729 16.8885 25.8384C16.2682 26.4065 15.6411 27.1283 15.0686 27.7465C14.5305 27.0758 14.0218 26.3818 13.5443 25.6667C14.0935 25.0584 14.6613 24.4672 15.2468 23.8939C15.7577 23.3845 16.4463 22.9573 16.4056 22.1429C16.3884 21.7961 16.1827 21.4566 15.9143 21.2342C15.405 20.8534 14.5392 20.4355 13.9527 20.1956C13.1917 19.8728 10.7246 18.943 10.2584 20.0276C9.92087 20.8132 10.4284 22.3985 10.7659 23.2039C11.2005 24.2171 11.7222 25.1908 12.325 26.1139C13.3889 27.7688 14.6935 29.3474 16.0483 30.7739C16.3453 31.0865 16.7886 31.5573 17.114 31.8147C17.3707 32.0203 17.6564 32.1871 17.9614 32.3101C18.8648 32.6799 19.8786 32.6743 20.7779 32.2944C21.6535 31.9239 22.4044 31.0596 23.0578 30.3498C25.0041 28.2356 26.8926 25.7441 27.9935 23.0699Z" fill="white"/>
</svg>
