<svg width="59" height="70" viewBox="0 0 59 70" fill="none" xmlns="http://www.w3.org/2000/svg">
<path d="M16.4806 9.7489C17.244 9.1776 18.329 9.35067 18.8761 10.1317L21.9102 14.4647C22.4335 15.2117 22.2693 16.2395 21.5391 16.786L14.4571 22.0858C11.23 20.9848 7.74264 20.577 4.36922 20.7948C5.26075 25.2099 6.91057 29.1921 9.29793 32.3729L14.5684 49.0839C15.4091 51.7489 17.8194 53.5534 20.5391 53.5536C21.474 53.5536 22.0218 54.607 21.4845 55.3719L18.1358 60.1385C17.8196 60.5888 17.3026 60.8671 16.755 60.8143C13.1308 60.4648 9.38488 58.0003 8.27645 54.4862L0.43856 29.6327C-0.759441 25.8338 0.553166 21.671 3.68954 19.3231L16.4806 9.7489ZM39.9591 10.0546C40.5062 9.27362 41.5912 9.1003 42.3546 9.67175L55.2481 19.3231C58.3845 21.671 59.6971 25.8338 58.4991 29.6327L50.6612 54.4862C49.5525 58.0013 45.6697 60.4659 42.0245 60.8143C41.4768 60.8667 40.9599 60.5888 40.6436 60.1385L37.3497 55.4491C36.7896 54.6517 37.3606 53.5536 38.335 53.5536C41.0548 53.5535 43.4651 51.7489 44.3057 49.0839L46.1163 43.3407C51.5964 40.8454 55.0753 35.2872 56.4415 28.5214C54.3313 28.3851 52.1676 28.5381 50.0802 29.0048C49.9057 27.2082 49.0059 25.5219 47.5245 24.413L37.2735 16.7401C36.5434 16.1936 36.3792 15.1658 36.9024 14.4188L39.9591 10.0546Z" fill="url(#paint0_linear_87_995)"/>
<path d="M7.27884 23.2014C12.2819 23.1607 17.5606 25.2948 20.0567 30.017C21.0512 31.8985 21.6473 33.8341 21.9535 35.9524C21.6626 35.9569 21.3717 35.9853 21.0779 36.0125C20.7743 36.0407 20.4669 36.0676 20.15 36.0643C16.3991 36.0254 13.4489 34.6065 11.3026 32.2966C9.16161 29.9925 7.81842 26.8 7.27884 23.2014Z" fill="url(#paint1_linear_87_995)" stroke="url(#paint2_linear_87_995)" stroke-width="0.0492215"/>
<path d="M53.7166 31.018C48.7874 30.0725 43.2159 31.2216 39.9482 35.4287C38.6462 37.1052 37.7287 38.9076 37.0655 40.9423C37.3515 40.9994 37.6334 41.0802 37.9185 41.1602C38.2134 41.2429 38.5122 41.3247 38.8256 41.3788C42.5331 42.0191 45.6851 41.153 48.1964 39.2624C50.7014 37.3766 52.5709 34.4704 53.7166 31.018Z" fill="url(#paint3_linear_87_995)" stroke="url(#paint4_linear_87_995)" stroke-width="0.049327"/>
<path d="M28.3672 52.8359C28.9202 51.9678 30.1872 51.9678 30.7402 52.8359L37.5117 63.4668C37.6466 63.6785 37.8507 63.8376 38.0889 63.917L46.5156 66.7275C48.0293 67.2327 47.6661 69.4696 46.0703 69.4697H13.0371C11.4413 69.4696 11.0781 67.2326 12.5918 66.7275L21.0186 63.917C21.2567 63.8376 21.4608 63.6786 21.5957 63.4668L28.3672 52.8359Z" fill="url(#paint5_linear_87_995)" stroke="url(#paint6_linear_87_995)" stroke-width="0.312948"/>
<path d="M28.231 16.79C28.7839 17.6582 30.051 17.6582 30.604 16.79L37.3755 6.15918C37.5104 5.94744 37.7145 5.78842 37.9526 5.70898L46.3794 2.89844C47.893 2.39332 47.5298 0.156422 45.9341 0.15625L12.9009 0.15625C11.3051 0.156383 10.9419 2.39334 12.4556 2.89844L20.8823 5.70898C21.1205 5.78842 21.3246 5.94742 21.4595 6.15918L28.231 16.79Z" fill="url(#paint7_linear_87_995)" stroke="url(#paint8_linear_87_995)" stroke-width="0.312948"/>
<path d="M29.5571 23.9324C37.4746 23.9326 43.9253 30.5515 43.9253 38.7566C43.9252 46.9616 37.4745 53.5806 29.5571 53.5808C21.6395 53.5808 15.1881 46.9618 15.188 38.7566C15.188 30.5513 21.6395 23.9324 29.5571 23.9324Z" stroke="url(#paint9_linear_87_995)" stroke-width="1.28334"/>
<path d="M29.5747 15.7979L29.5809 61.9673" stroke="url(#paint10_linear_87_995)" stroke-width="2.37812" stroke-linecap="round"/>
<path d="M29.5747 20.7527L29.5747 17.796" stroke="url(#paint11_linear_87_995)" stroke-width="6.68092" stroke-linecap="round"/>
<path d="M26.4114 45.7092C27.7844 45.6311 29.1466 47.4777 29.6731 48.677C30.1996 47.4778 31.5618 45.6321 32.9348 45.7102C33.7947 45.7954 34.5463 46.1578 35.0774 46.7102C35.7672 47.4278 35.9318 48.3821 35.7922 49.2629C35.4959 51.1311 31.545 51.86 30.1682 54.6584C30.0402 54.7382 29.9088 54.8167 29.7756 54.8928V55.007C29.7408 54.9891 29.7075 54.9682 29.6731 54.9494C29.6387 54.9682 29.6054 54.9891 29.5706 55.007V54.8918C29.4379 54.8158 29.3068 54.738 29.179 54.6584C27.8024 51.8596 23.8501 51.1313 23.554 49.2629C23.4144 48.382 23.5789 47.4278 24.2688 46.7102C24.8 46.1577 25.5514 45.7945 26.4114 45.7092Z" fill="url(#paint12_linear_87_995)"/>
<path d="M32.9348 36.4062C33.7946 36.4914 34.5462 36.8539 35.0774 37.4062C35.7673 38.1239 35.9318 39.079 35.7922 39.9599C35.4956 41.828 31.5448 42.5569 30.1682 45.3554C30.0402 45.4352 29.9086 45.5131 29.7756 45.5888V45.7031C29.7407 45.6852 29.7075 45.6642 29.6731 45.6455C29.6386 45.6642 29.6054 45.6852 29.5705 45.7031V45.5878C29.4379 45.5119 29.3067 45.4341 29.1789 45.3544C27.8021 42.5559 23.85 41.8273 23.5539 39.9589C23.4144 39.0781 23.5789 38.1238 24.2688 37.4062C24.7999 36.8538 25.5514 36.4915 26.4113 36.4062C27.7845 36.3282 29.1467 38.1748 29.6731 39.374C30.1994 38.1748 31.5616 36.3282 32.9348 36.4062Z" fill="url(#paint13_linear_87_995)"/>
<path d="M32.9348 27.1027C33.7946 27.188 34.5462 27.5504 35.0774 28.1027C35.7672 28.8205 35.9319 29.7755 35.7922 30.6564C35.4954 32.5245 31.5447 33.2534 30.1682 36.052C30.0402 36.1317 29.9087 36.2096 29.7756 36.2854V36.3996C29.7407 36.3817 29.7075 36.3608 29.6731 36.342C29.6386 36.3607 29.6054 36.3817 29.5705 36.3996V36.2844C29.4379 36.2084 29.3068 36.1306 29.1789 36.051C27.8023 33.2523 23.8502 32.5238 23.5539 30.6555C23.4144 29.7746 23.5789 28.8204 24.2688 28.1027C24.7999 27.5503 25.5514 27.188 26.4114 27.1027C27.7844 27.0247 29.1466 28.8704 29.6731 30.0695C30.1997 28.8703 31.5618 27.0247 32.9348 27.1027Z" fill="url(#paint14_linear_87_995)"/>
<path d="M32.9348 17.799C33.7947 17.8843 34.5462 18.2467 35.0774 18.799C35.7673 19.5167 35.9319 20.4718 35.7922 21.3527C35.4954 23.2206 31.5449 23.9492 30.1682 26.7473C30.0401 26.8271 29.9088 26.9056 29.7756 26.9816V27.0959C29.7407 27.078 29.7075 27.0571 29.6731 27.0383C29.6387 27.057 29.6054 27.078 29.5705 27.0959V26.9807C29.4379 26.9047 29.3067 26.8269 29.1789 26.7473C27.8023 23.9486 23.8501 23.2201 23.5539 21.3518C23.4144 20.4709 23.5789 19.5167 24.2688 18.799C24.7999 18.2466 25.5515 17.8843 26.4114 17.799C27.7842 17.721 29.1454 19.5666 29.6721 20.7658C30.1985 19.5667 31.5617 17.721 32.9348 17.799Z" fill="url(#paint15_linear_87_995)"/>
<defs>
<linearGradient id="paint0_linear_87_995" x1="29.4688" y1="9.33472" x2="29.4896" y2="60.8207" gradientUnits="userSpaceOnUse">
<stop stop-color="#003CEC"/>
<stop offset="1" stop-color="#00B0D8"/>
</linearGradient>
<linearGradient id="paint1_linear_87_995" x1="11.5118" y1="21.4543" x2="18.0415" y2="37.569" gradientUnits="userSpaceOnUse">
<stop stop-color="#003CEC"/>
<stop offset="1" stop-color="#00B0D8"/>
</linearGradient>
<linearGradient id="paint2_linear_87_995" x1="11.5118" y1="21.4543" x2="18.0415" y2="37.569" gradientUnits="userSpaceOnUse">
<stop stop-color="#003CEC"/>
<stop offset="1" stop-color="#00B0D8"/>
</linearGradient>
<linearGradient id="paint3_linear_87_995" x1="49.8382" y1="28.5271" x2="40.5592" y2="43.1881" gradientUnits="userSpaceOnUse">
<stop stop-color="#003CEC"/>
<stop offset="1" stop-color="#00B0D8"/>
</linearGradient>
<linearGradient id="paint4_linear_87_995" x1="49.8382" y1="28.5271" x2="40.5592" y2="43.1881" gradientUnits="userSpaceOnUse">
<stop stop-color="#003CEC"/>
<stop offset="1" stop-color="#00B0D8"/>
</linearGradient>
<linearGradient id="paint5_linear_87_995" x1="29.5536" y1="51.2637" x2="29.5567" y2="69.3129" gradientUnits="userSpaceOnUse">
<stop stop-color="#003CEC"/>
<stop offset="1" stop-color="#00B0D8"/>
</linearGradient>
<linearGradient id="paint6_linear_87_995" x1="29.5536" y1="51.2637" x2="29.5567" y2="69.3129" gradientUnits="userSpaceOnUse">
<stop stop-color="#003CEC"/>
<stop offset="1" stop-color="#00B0D8"/>
</linearGradient>
<linearGradient id="paint7_linear_87_995" x1="29.4174" y1="18.3623" x2="29.4205" y2="0.313073" gradientUnits="userSpaceOnUse">
<stop stop-color="#003CEC"/>
<stop offset="1" stop-color="#00B0D8"/>
</linearGradient>
<linearGradient id="paint8_linear_87_995" x1="29.4174" y1="18.3623" x2="29.4205" y2="0.313073" gradientUnits="userSpaceOnUse">
<stop stop-color="#003CEC"/>
<stop offset="1" stop-color="#00B0D8"/>
</linearGradient>
<linearGradient id="paint9_linear_87_995" x1="29.5567" y1="23.2908" x2="29.5714" y2="54.222" gradientUnits="userSpaceOnUse">
<stop stop-color="#003CEC"/>
<stop offset="1" stop-color="#00B0D8"/>
</linearGradient>
<linearGradient id="paint10_linear_87_995" x1="30.0747" y1="15.7978" x2="31.0632" y2="61.9462" gradientUnits="userSpaceOnUse">
<stop stop-color="#003CEC"/>
<stop offset="1" stop-color="#00B0D8"/>
</linearGradient>
<linearGradient id="paint11_linear_87_995" x1="29.0747" y1="20.7527" x2="29.0707" y2="17.796" gradientUnits="userSpaceOnUse">
<stop stop-color="#003CEC"/>
<stop offset="1" stop-color="#00B0D8"/>
</linearGradient>
<linearGradient id="paint12_linear_87_995" x1="29.6731" y1="45.7068" x2="29.6763" y2="55.007" gradientUnits="userSpaceOnUse">
<stop stop-color="#003CEC"/>
<stop offset="1" stop-color="#00B0D8"/>
</linearGradient>
<linearGradient id="paint13_linear_87_995" x1="29.6731" y1="36.4038" x2="29.6763" y2="45.7031" gradientUnits="userSpaceOnUse">
<stop stop-color="#003CEC"/>
<stop offset="1" stop-color="#00B0D8"/>
</linearGradient>
<linearGradient id="paint14_linear_87_995" x1="29.6731" y1="27.1003" x2="29.6763" y2="36.3996" gradientUnits="userSpaceOnUse">
<stop stop-color="#003CEC"/>
<stop offset="1" stop-color="#00B0D8"/>
</linearGradient>
<linearGradient id="paint15_linear_87_995" x1="29.6731" y1="17.7966" x2="29.6763" y2="27.0959" gradientUnits="userSpaceOnUse">
<stop stop-color="#003CEC"/>
<stop offset="1" stop-color="#00B0D8"/>
</linearGradient>
</defs>
</svg>
