<svg width="185" height="51" viewBox="0 0 185 51" fill="none" xmlns="http://www.w3.org/2000/svg">
<path d="M63.7552 9.37216H60.405C60.405 9.24526 60.4304 9.09298 60.4304 8.96608C60.4304 7.26562 59.466 6.80878 57.461 6.80878C55.2529 6.80878 54.0854 7.64632 54.0854 9.09298C54.0854 9.93052 54.7961 10.5904 56.3696 10.9711C58.4254 11.4787 59.8721 11.8848 61.1157 12.4431C62.2578 12.9761 63.0953 13.8644 63.0953 15.7679C63.0953 19.7526 59.5421 21.8337 55.7097 21.8337C51.319 21.8337 49.1363 20.2602 49.1363 17.24C49.1363 16.91 49.1617 16.5801 49.2125 16.1994H52.6134C52.588 16.4024 52.5626 16.5801 52.5626 16.7577C52.5626 18.3567 53.9078 18.9912 55.7605 18.9912C58.197 18.9912 59.5929 17.9506 59.5929 16.3263C59.5929 15.4634 59.0853 14.8035 57.3341 14.4228C52.791 13.433 50.786 12.57 50.786 9.67672C50.786 6.4027 53.2986 3.83932 57.9939 3.83932C61.6994 3.83932 63.806 5.66668 63.806 8.50924C63.806 8.78842 63.7806 9.09298 63.7552 9.37216ZM68.7672 18.8135C70.7722 18.8135 71.7874 17.5445 71.7874 15.0065C71.7874 12.4685 70.7722 11.2249 68.7672 11.2249C66.7621 11.2249 65.7469 12.4685 65.7469 15.0065C65.7469 17.5445 66.7621 18.8135 68.7672 18.8135ZM68.7672 21.5799C64.7317 21.5799 62.346 18.8897 62.346 15.0065C62.346 11.0472 64.8079 8.4331 68.7672 8.4331C72.6757 8.4331 75.1121 11.0219 75.1121 15.0065C75.1121 18.9658 72.6503 21.5799 68.7672 21.5799ZM83.7176 16.7324H87.0423C86.687 19.6257 84.3267 21.5799 81.3065 21.5799C77.9055 21.5799 75.5706 19.3211 75.5706 14.8542C75.5706 10.3874 77.9055 8.4331 81.408 8.4331C84.6566 8.4331 86.8647 10.2858 87.0677 13.2299H83.7429C83.5653 11.9355 82.6262 11.1741 81.3826 11.1741C79.9867 11.1741 78.8446 12.0624 78.8446 14.7781C78.8446 17.4938 79.9867 18.8135 81.2811 18.8135C82.5755 18.8135 83.5907 18.0775 83.7176 16.7324ZM90.886 21.25H87.5866V8.76304H90.886V21.25ZM90.886 7.26562H87.5866V4.19464H90.886V7.26562ZM99.4488 16.5039L99.4742 15.1334C99.1442 15.4634 98.5605 15.641 97.3423 15.8694C95.4641 16.2248 94.855 16.7577 94.855 17.8237C94.855 18.7628 95.4134 19.2196 96.454 19.2196C98.1544 19.2196 99.4234 17.976 99.4488 16.5039ZM102.774 21.25H99.7026C99.6011 20.9454 99.5249 20.514 99.4996 20.1333C98.7128 20.9962 97.393 21.5799 95.7179 21.5799C92.8754 21.5799 91.5556 20.184 91.5556 18.1536C91.5556 14.5497 93.9667 14.1436 97.2915 13.6868C98.9412 13.4583 99.398 13.1284 99.398 12.2655C99.398 11.4533 98.5859 10.9711 97.2915 10.9711C95.7941 10.9711 95.185 11.7071 95.0327 12.8238H91.9617C92.0125 10.2351 93.4337 8.4331 97.4438 8.4331C101.403 8.4331 102.774 10.2097 102.774 13.3568V21.25ZM107.02 21.25H103.721V4.19464H107.02V21.25ZM52.1819 41.3821H55.1006C58.1716 41.3821 59.4914 39.4532 59.4914 35.6462C59.4914 31.8392 58.1716 30.3164 54.7961 30.3164H52.1819V41.3821ZM55.8113 44.25H48.7556V27.3977H55.2783C59.8467 27.3977 63.0953 30.5194 63.0953 35.6462C63.0953 40.7729 60.1766 44.25 55.8113 44.25ZM66.8623 36.7883H71.9636C71.9129 34.9355 70.6946 34.0472 69.4003 34.0472C68.0805 34.0472 66.9892 35.0624 66.8623 36.7883ZM75.3646 38.8694H66.7607C66.8623 40.7476 67.9282 41.9658 69.5525 41.9658C70.6185 41.9658 71.5576 41.4328 71.786 40.5699H75.1869C74.4255 43.1333 72.3697 44.5799 69.7048 44.5799C65.5425 44.5799 63.4613 42.2957 63.4613 37.7781C63.4613 33.9203 65.6694 31.4331 69.5018 31.4331C73.3342 31.4331 75.3646 33.9203 75.3646 38.8694ZM82.4646 44.25H79.0129L74.5461 31.763H78.2262L80.8403 40.0115L83.4798 31.763H86.9569L82.4646 44.25ZM89.5912 36.7883H94.6926C94.6419 34.9355 93.4236 34.0472 92.1292 34.0472C90.8095 34.0472 89.7181 35.0624 89.5912 36.7883ZM98.0935 38.8694H89.4897C89.5912 40.7476 90.6572 41.9658 92.2815 41.9658C93.3475 41.9658 94.2865 41.4328 94.515 40.5699H97.9159C97.1545 43.1333 95.0987 44.5799 92.4338 44.5799C88.2715 44.5799 86.1903 42.2957 86.1903 37.7781C86.1903 33.9203 88.3984 31.4331 92.2308 31.4331C96.0631 31.4331 98.0935 33.9203 98.0935 38.8694ZM102.026 44.25H98.7263V27.1946H102.026V44.25ZM109.045 41.8135C111.05 41.8135 112.065 40.5445 112.065 38.0065C112.065 35.4685 111.05 34.2249 109.045 34.2249C107.04 34.2249 106.025 35.4685 106.025 38.0065C106.025 40.5445 107.04 41.8135 109.045 41.8135ZM109.045 44.5799C105.01 44.5799 102.624 41.8897 102.624 38.0065C102.624 34.0472 105.086 31.4331 109.045 31.4331C112.954 31.4331 115.39 34.0219 115.39 38.0065C115.39 41.9658 112.928 44.5799 109.045 44.5799ZM121.965 41.7628C123.894 41.7628 124.808 40.4684 124.808 37.905C124.808 35.6716 123.64 34.1234 121.99 34.1234C120.417 34.1234 119.199 35.5954 119.199 37.702C119.199 40.4176 120.138 41.7628 121.965 41.7628ZM119.325 50.1635H116.077V31.763H119.249L119.275 33.2858C120.062 32.0168 121.229 31.4331 122.752 31.4331C125.899 31.4331 128.158 33.9203 128.158 38.1334C128.158 41.915 126.254 44.5799 123.031 44.5799C121.483 44.5799 120.265 43.9454 119.325 42.6257V50.1635ZM146.722 44.25H143.498L144.844 36.6868C144.894 36.3822 144.92 36.103 144.92 35.8746C144.92 34.631 144.285 34.1234 143.321 34.1234C142.052 34.1234 141.011 35.2655 140.757 36.7883L139.438 44.25H136.138L137.458 36.7375C137.534 36.2299 137.559 35.8238 137.585 35.4939C137.585 34.4026 137.052 34.2249 135.935 34.2249C134.615 34.2249 133.778 35.0371 133.499 36.6614L132.154 44.25H128.854L131.062 31.763H134.159L133.829 33.5904C134.971 31.9407 136.214 31.4331 137.864 31.4331C139.564 31.4331 140.275 31.9661 140.986 33.4127C141.925 32.0422 143.143 31.4331 144.717 31.4331C146.95 31.4331 148.321 32.8798 148.321 34.834C148.321 35.0624 148.295 35.3416 148.244 35.5954L146.722 44.25ZM160.044 38.8694H151.415V39.4532C151.415 41.2298 152.252 41.9658 153.699 41.9658C154.765 41.9658 155.805 41.4328 156.186 40.5699H159.587C158.369 43.1333 156.059 44.5799 153.394 44.5799C149.892 44.5799 148.141 42.8033 148.141 39.4278C148.141 34.6056 151.034 31.4331 155.501 31.4331C158.648 31.4331 160.272 33.1082 160.272 36.433C160.272 37.169 160.196 37.9811 160.044 38.8694ZM151.795 36.7883H157.024C157.074 36.5091 157.074 36.2553 157.074 36.0269C157.074 34.4279 156.059 34.0472 154.942 34.0472C153.267 34.0472 152.277 35.2401 151.795 36.7883ZM171.057 44.25H167.732L169.077 36.6868C169.153 36.2807 169.179 35.9254 169.179 35.6208C169.179 34.5041 168.62 34.2249 167.377 34.2249C165.651 34.2249 164.636 35.1893 164.306 37.0928L163.037 44.25H159.737L161.945 31.763H165.093L164.763 33.5904C165.778 32.1945 167.174 31.4331 169.179 31.4331C171.26 31.4331 172.656 32.5498 172.656 34.631C172.656 34.9355 172.63 35.2655 172.58 35.5954L171.057 44.25ZM183.593 36.0269L182.958 39.5801C182.476 42.2196 180.573 44.5799 177.045 44.5799C173.948 44.5799 172.73 42.9049 172.73 40.7476C172.73 40.3669 172.756 39.9608 172.832 39.5547L174.786 28.3875H178.035L177.451 31.763H184.354L183.948 34.098H177.045L176.131 39.2248C176.055 39.6055 176.03 39.9354 176.03 40.2146C176.03 41.3059 176.537 41.712 177.603 41.712C178.872 41.712 179.684 40.8237 179.963 39.2755L180.522 36.0269H183.593Z" fill="white"/>
<path d="M11.5924 6.62569C12.1185 6.24378 12.8545 6.36215 13.235 6.88936L15.3512 9.82002C15.7301 10.345 15.6123 11.0782 15.0885 11.4587L10.1461 15.0485C7.88151 14.2987 5.43434 14.0203 3.06703 14.1687C3.6919 17.1721 4.85017 19.8794 6.52211 22.0446L10.2243 33.4382C10.8142 35.2537 12.5067 36.4831 14.4157 36.4831C15.0653 36.4835 15.441 37.2194 15.0602 37.7458L12.7262 40.9714C12.5053 41.2767 12.1504 41.4646 11.775 41.4304C9.22656 41.1978 6.5877 39.5166 5.80824 37.1179L0.308243 20.1882C-0.532359 17.6006 0.388427 14.7659 2.58949 13.1667L11.5924 6.62569ZM28.0563 6.83663C28.4369 6.30926 29.1737 6.19167 29.6998 6.57393L38.775 13.1667C40.9759 14.7659 41.8968 17.6007 41.0563 20.1882L35.5553 37.1179C34.7757 39.5172 32.0411 41.1985 29.4782 41.4304C29.1028 41.4643 28.7479 41.2767 28.527 40.9714L26.2321 37.7995C25.835 37.2508 26.2267 36.4834 26.9039 36.4831C28.8129 36.4831 30.5054 35.2537 31.0954 33.4382L32.3668 29.5231C36.2116 27.823 38.6533 24.0399 39.612 19.4323C38.1305 19.3395 36.6115 19.4434 35.1461 19.7614C35.0237 18.5377 34.3937 17.3889 33.3541 16.6335L26.1871 11.4274C25.6634 11.0469 25.5466 10.3137 25.9254 9.78877L28.0563 6.83663Z" fill="white"/>
<path d="M5.10782 15.8085C8.6195 15.7805 12.3247 17.2343 14.0766 20.4509C14.7745 21.7323 15.1919 23.0507 15.4068 24.4934C15.2028 24.4965 14.9987 24.5165 14.7927 24.535C14.5795 24.5542 14.3635 24.5716 14.141 24.5694C11.5086 24.5428 9.43831 23.577 7.93212 22.0038C6.4296 20.4343 5.48647 18.2597 5.10782 15.8085Z" fill="white" stroke="white" stroke-width="0.034241"/>
<path d="M37.7003 21.132C34.2405 20.4877 30.3297 21.2719 28.0364 24.1379C27.1229 25.2795 26.4791 26.5066 26.0137 27.8921C26.2144 27.931 26.4123 27.9859 26.6124 28.0405C26.8194 28.0968 27.0291 28.1534 27.2491 28.1903C29.851 28.6264 32.0631 28.0361 33.8255 26.7485C35.5836 25.4638 36.8962 23.484 37.7003 21.132Z" fill="white" stroke="white" stroke-width="0.0343145"/>
<path d="M19.9233 35.9722C20.3099 35.3831 21.1735 35.3831 21.5601 35.9722L26.3247 43.2319C26.4198 43.3769 26.5621 43.4852 26.7271 43.5386L32.5278 45.4165C33.5887 45.7599 33.3419 47.3262 32.2271 47.3267H9.25732C8.14207 47.3267 7.89452 45.76 8.95557 45.4165L14.7573 43.5386C14.9221 43.4851 15.0636 43.3768 15.1587 43.2319L19.9233 35.9722Z" fill="white" stroke="white" stroke-width="0.217703"/>
<path d="M19.8276 11.4634C20.2142 12.0524 21.0778 12.0524 21.4644 11.4634L26.229 4.20361C26.3241 4.05864 26.4664 3.95038 26.6313 3.89697L32.4321 2.01904C33.493 1.67563 33.2462 0.109327 32.1313 0.108887L9.16162 0.108887C8.04637 0.108887 7.79882 1.67557 8.85986 2.01904L14.6616 3.89697C14.8264 3.95042 14.9679 4.05875 15.063 4.20361L19.8276 11.4634Z" fill="white" stroke="white" stroke-width="0.217703"/>
<circle cx="20.7435" cy="26.4037" r="10.0882" stroke="white" stroke-width="0.892758"/>
<path d="M20.7559 10.7654L20.7599 42.2141" stroke="white" stroke-width="1.65435" stroke-linecap="round"/>
<path d="M20.7559 14.1404L20.7559 12.1264" stroke="white" stroke-width="4.64759" stroke-linecap="round"/>
<path d="M23.1142 31.1398C23.7177 31.1979 24.2453 31.4452 24.6181 31.8215C25.1024 32.3103 25.2171 32.9606 25.1191 33.5607C24.9109 34.8332 22.1379 35.3293 21.1718 37.2355C21.0823 37.2897 20.9903 37.3421 20.8974 37.3937V37.4728C20.8727 37.4605 20.8494 37.4456 20.8251 37.4328C20.8009 37.4456 20.7774 37.4606 20.7529 37.4728V37.3937C20.6599 37.3421 20.5679 37.2896 20.4784 37.2355C19.5122 35.3293 16.7392 34.8332 16.5312 33.5607C16.4332 32.9606 16.548 32.3103 17.0321 31.8215C17.4049 31.4451 17.9325 31.1979 18.5361 31.1398C19.5 31.0867 20.4558 32.3454 20.8251 33.1623C21.1943 32.3455 22.1503 31.0869 23.1142 31.1398Z" fill="white"/>
<path d="M23.1142 24.8034C23.7176 24.8615 24.2453 25.1079 24.6181 25.484C25.1023 25.9729 25.217 26.6232 25.1191 27.2233C24.9112 28.4959 22.1381 28.9919 21.1718 30.8981C21.0823 30.9522 20.9903 31.0047 20.8974 31.0563V31.1354C20.8727 31.1231 20.8494 31.1082 20.8251 31.0954C20.8008 31.1082 20.7775 31.1232 20.7528 31.1354V31.0563C20.6599 31.0047 20.5679 30.9522 20.4784 30.8981C19.5121 28.992 16.739 28.4959 16.5312 27.2233C16.4332 26.6232 16.5479 25.9729 17.0321 25.484C17.4049 25.1078 17.9326 24.8615 18.536 24.8034C19.4995 24.7503 20.4555 26.0071 20.8251 26.8239C21.1947 26.0072 22.1507 24.7505 23.1142 24.8034Z" fill="white"/>
<path d="M23.1142 18.466C23.7176 18.5241 24.2453 18.7704 24.6181 19.1467C25.1024 19.6355 25.2171 20.2858 25.1191 20.8859C24.9111 22.1585 22.138 22.6545 21.1718 24.5607C21.0823 24.6149 20.9903 24.6673 20.8974 24.7189V24.798C20.8728 24.7857 20.8494 24.7708 20.8251 24.758C20.8009 24.7708 20.7774 24.7858 20.7529 24.798V24.7189C20.6599 24.6673 20.5679 24.6148 20.4784 24.5607C19.5122 22.6546 16.7392 22.1584 16.5312 20.8859C16.4332 20.2858 16.5479 19.6355 17.0321 19.1467C17.4049 18.7704 17.9326 18.5241 18.5361 18.466C19.4996 18.4129 20.4555 19.6697 20.8251 20.4865C21.1947 19.6698 22.1507 18.4131 23.1142 18.466Z" fill="white"/>
<path d="M23.1142 12.1279C23.7177 12.1859 24.2453 12.4333 24.6181 12.8095C25.1024 13.2984 25.2171 13.9486 25.1191 14.5488C24.9112 15.8213 22.138 16.3173 21.1718 18.2236C21.0823 18.2777 20.9903 18.3302 20.8974 18.3818V18.4609C20.8727 18.4486 20.8494 18.4337 20.8251 18.4208C20.8009 18.4336 20.7774 18.4486 20.7529 18.4609V18.3818C20.6599 18.3302 20.5679 18.2777 20.4784 18.2236C19.5122 16.3174 16.7391 15.8213 16.5312 14.5488C16.4332 13.9487 16.5479 13.2984 17.0322 12.8095C17.4049 12.4332 17.9325 12.186 18.5361 12.1279C19.4999 12.0747 20.4558 13.3334 20.8251 14.1503C21.1944 13.3335 22.1504 12.075 23.1142 12.1279Z" fill="white"/>
</svg>
