<svg width="126" height="47" viewBox="0 0 126 47" fill="none" xmlns="http://www.w3.org/2000/svg">
<path d="M52.1897 21.0322H48.6619L51.6313 4.17991H55.1591L52.1897 21.0322ZM64.2839 21.0322H60.9591L62.3042 13.469C62.3804 13.0629 62.4057 12.7076 62.4057 12.403C62.4057 11.2863 61.8474 11.0071 60.6038 11.0071C58.8779 11.0071 57.8627 11.9716 57.5328 13.8751L56.2638 21.0322H52.9644L55.1724 8.54527H58.3196L57.9896 10.3726C59.0048 8.97673 60.4007 8.21533 62.4057 8.21533C64.4869 8.21533 65.8828 9.33205 65.8828 11.4132C65.8828 11.7178 65.8574 12.0477 65.8066 12.3776L64.2839 21.0322ZM72.3021 16.0577V12.8091H75.3731V16.3623C75.3731 19.0018 73.8503 21.3622 70.3225 21.3622C66.6678 21.3622 65.2211 19.0272 65.2211 16.3369V5.16973H68.4698V8.54527H75.3731V10.8802H68.4698V16.007C68.4698 17.5805 69.0281 18.4942 70.3733 18.4942C71.693 18.4942 72.3021 17.6059 72.3021 16.0577ZM79.3356 13.5705H84.437C84.3862 11.7178 83.168 10.8295 81.8736 10.8295C80.5538 10.8295 79.4625 11.8447 79.3356 13.5705ZM87.8379 15.6517H79.2341C79.3356 17.5298 80.4015 18.748 82.0259 18.748C83.0918 18.748 84.0309 18.215 84.2593 17.3521H87.6602C86.8988 19.9155 84.843 21.3622 82.1781 21.3622C78.0158 21.3622 75.9347 19.078 75.9347 14.5603C75.9347 10.7026 78.1427 8.21533 81.9751 8.21533C85.8075 8.21533 87.8379 10.7026 87.8379 15.6517ZM91.77 21.0322H88.4706V8.54527H91.567V10.0427C92.6583 8.36761 93.9273 8.21533 95.2724 8.21533H95.7039V11.5909C95.3993 11.5401 95.0948 11.5147 94.7902 11.5147C92.7598 11.5147 91.77 12.5299 91.77 14.5349V21.0322ZM107.437 21.0322H104.112V13.469C104.112 11.5401 103.554 11.0071 101.98 11.0071C100.254 11.0071 99.4167 11.9716 99.4167 13.8751V21.0322H96.1173V8.54527H99.2644V10.3726C100.026 8.97673 101.295 8.21533 103.3 8.21533C105.686 8.21533 107.437 9.66199 107.437 12.3776V21.0322ZM115.937 16.2862L115.963 14.9156C115.633 15.2456 115.049 15.4232 113.831 15.6517C111.953 16.007 111.344 16.54 111.344 17.6059C111.344 18.545 111.902 19.0018 112.942 19.0018C114.643 19.0018 115.912 17.7582 115.937 16.2862ZM119.262 21.0322H116.191C116.09 20.7277 116.013 20.2962 115.988 19.9155C115.201 20.7784 113.882 21.3622 112.206 21.3622C109.364 21.3622 108.044 19.9663 108.044 17.9359C108.044 14.3319 110.455 13.9258 113.78 13.469C115.43 13.2406 115.887 12.9106 115.887 12.0477C115.887 11.2355 115.074 10.7533 113.78 10.7533C112.283 10.7533 111.673 11.4893 111.521 12.6061H108.45C108.501 10.0173 109.922 8.21533 113.932 8.21533C117.892 8.21533 119.262 9.99193 119.262 13.139V21.0322ZM123.509 21.0322H120.209V3.97687H123.509V21.0322ZM59.4991 37.6618L58.5854 30.9615H58.5601L55.2099 37.6618H59.4991ZM64.1944 44.0322H60.4636L60.0067 40.5552H53.7886L51.9866 44.0322H48.1543L57.1388 27.1799H61.225L64.1944 44.0322ZM67.5949 44.0322H64.3463L66.1483 33.8802H64.2955L64.7016 31.5453H66.5544C67.0873 28.4997 69.0924 26.9769 72.6456 26.9769L72.1887 29.6418C70.5136 29.6418 70.0568 30.0986 69.803 31.5453H71.9349L71.5288 33.8802H69.3969L67.5949 44.0322ZM74.5725 44.0322H71.3238L73.1258 33.8802H71.2731L71.6791 31.5453H73.5319C74.0649 28.4997 76.0699 26.9769 79.6231 26.9769L79.1662 29.6418C77.4912 29.6418 77.0343 30.0986 76.7805 31.5453H78.9124L78.5064 33.8802H76.3744L74.5725 44.0322ZM84.5702 39.2862L84.5956 37.9156C84.2656 38.2456 83.6819 38.4232 82.4637 38.6517C80.5855 39.007 79.9764 39.54 79.9764 40.6059C79.9764 41.545 80.5348 42.0018 81.5754 42.0018C83.2758 42.0018 84.5448 40.7582 84.5702 39.2862ZM87.895 44.0322H84.824C84.7225 43.7277 84.6463 43.2962 84.621 42.9155C83.8342 43.7784 82.5144 44.3622 80.8393 44.3622C77.9968 44.3622 76.677 42.9663 76.677 40.9359C76.677 37.3319 79.0881 36.9258 82.4129 36.469C84.0626 36.2406 84.5194 35.9106 84.5194 35.0477C84.5194 34.2355 83.7073 33.7533 82.4129 33.7533C80.9155 33.7533 80.3064 34.4893 80.1541 35.6061H77.0831C77.1339 33.0173 78.5551 31.2153 82.5652 31.2153C86.5245 31.2153 87.895 32.9919 87.895 36.139V44.0322ZM92.2179 44.0322H88.9185V31.5453H92.2179V44.0322ZM92.2179 30.0478H88.9185V26.9769H92.2179V30.0478ZM96.5168 44.0322H93.2174V31.5453H96.3138V33.0427C97.4051 31.3676 98.6741 31.2153 100.019 31.2153H100.451V34.5909C100.146 34.5401 99.8416 34.5147 99.5371 34.5147C97.5067 34.5147 96.5168 35.5299 96.5168 37.5349V44.0322ZM111.078 35.3269H107.906C107.728 34.1086 107.068 33.6772 105.571 33.6772C104.327 33.6772 103.617 33.9817 103.617 34.7178C103.617 35.4538 104.302 35.7583 105.647 36.139C107.068 36.5451 108.413 36.8243 109.378 37.205C110.698 37.738 111.434 38.6009 111.434 40.2252C111.434 42.814 109.53 44.3622 105.977 44.3622C102.144 44.3622 100.013 42.5602 99.9618 40.0222H103.363C103.363 41.1897 104.353 41.8749 105.951 41.8749C107.119 41.8749 108.16 41.5196 108.16 40.5805C108.16 39.6922 107.22 39.4131 106.155 39.1593C104.048 38.6517 102.88 38.2963 101.992 37.738C100.825 37.002 100.419 36.0375 100.419 34.9208C100.419 32.8143 101.865 31.2153 105.672 31.2153C109.276 31.2153 110.901 32.6366 111.078 35.3269Z" fill="white"/>
<path fill-rule="evenodd" clip-rule="evenodd" d="M21.8827 36.3965C21.7089 36.1316 21.4039 35.9858 21.0874 36.0002C20.8924 36.009 20.6964 36.0135 20.4994 36.0135C20.3276 36.0135 20.1565 36.0101 19.9863 36.0034C19.6716 35.9909 19.3692 36.1367 19.1964 36.3999L15.097 42.6466C14.9892 42.8108 14.8285 42.9333 14.6416 42.9938L8.89125 44.8552C7.95648 45.1578 8.17429 46.5379 9.15681 46.5379H31.9245C32.907 46.5379 33.1248 45.1578 32.19 44.8552L26.4398 42.9938C26.2528 42.9333 26.0922 42.8108 25.9844 42.6466L21.8827 36.3965Z" fill="white"/>
<path fill-rule="evenodd" clip-rule="evenodd" d="M16.8817 6.61088C17.2058 7.10468 17.9306 7.12909 18.4278 6.81022C19.6802 6.00696 21.3669 6.01548 22.6101 6.83582C23.1093 7.16523 23.8477 7.14714 24.1759 6.6471L25.9844 3.89136C26.0922 3.72711 26.2528 3.60459 26.4398 3.54409L32.19 1.68272C33.1248 1.38013 32.907 1.77924e-05 31.9245 1.77924e-05L9.15682 1.77924e-05C8.17429 1.77924e-05 7.95649 1.38014 8.89125 1.68272L14.6416 3.54409C14.8285 3.60459 14.9892 3.72711 15.097 3.89137L16.8817 6.61088Z" fill="white"/>
<path fill-rule="evenodd" clip-rule="evenodd" d="M29.9482 34.4623L29.9549 34.4949C30.4075 36.713 28.9699 38.4299 27.1932 38.8987L28.625 40.8772C31.3219 40.8772 34.4092 39.1406 35.2426 36.5758L40.6949 19.7952C41.5283 17.2303 40.6153 14.4204 38.4335 12.8352L28.4929 5.61304L25.0179 10.4284L27.6333 12.3286L29.3393 11.5551L29.4227 11.5183C32.9102 10.0243 36.1611 14.081 33.9655 17.1554C34.8197 18.275 35.0982 19.7661 34.6469 21.1548L34.2415 22.4025L35.1706 22.8767C38.6506 24.6529 37.4531 29.9002 33.5471 29.9905L31.7627 30.0317L30.8216 32.9282C30.6336 33.5067 30.3327 34.0251 29.9482 34.4623Z" fill="white"/>
<path fill-rule="evenodd" clip-rule="evenodd" d="M5.75737 36.5758C6.5908 39.1406 9.56848 40.8772 12.2653 40.8772L13.7155 38.8734C11.9833 38.3712 10.6038 36.6789 11.0437 34.5028C10.6419 34.0572 10.3281 33.5247 10.1343 32.9282L9.19284 30.0307L7.45313 29.9905C3.54702 29.9003 2.34945 24.6529 5.82956 22.8767L6.72066 22.4219L6.30895 21.1548C5.85368 19.7537 6.14122 18.2483 7.01342 17.1254C4.84297 14.0302 8.15341 9.96478 11.6608 11.5551L13.3396 12.3163L15.8951 10.4596L12.4352 5.66523L2.5666 12.8352C0.384745 14.4204 -0.528308 17.2303 0.305072 19.7952L5.75737 36.5758ZM15.5984 36.0453L15.5955 36.0481L15.593 36.0505C15.6073 36.035 15.6216 36.0191 15.6355 36.0025C15.6233 36.0172 15.611 36.0314 15.5984 36.0453Z" fill="white"/>
<path fill-rule="evenodd" clip-rule="evenodd" d="M15.5973 36.0461C15.61 36.0323 15.6232 36.0171 15.6354 36.0025C15.6215 36.0191 15.6072 36.0349 15.5928 36.0504L15.5953 36.048L15.5973 36.0461Z" fill="white"/>
<path fill-rule="evenodd" clip-rule="evenodd" d="M22.9709 14.9465L21.6423 9.68857C21.3428 8.50335 19.6588 8.50335 19.3593 9.68857L18.0306 14.9465C18.8134 14.7146 19.6427 14.5899 20.5008 14.5899C21.3589 14.5899 22.1882 14.7146 22.9709 14.9465ZM25.4671 16.1502C26.8345 17.1057 27.9138 18.4451 28.5486 20.0118L31.831 15.6949C32.5709 14.7218 31.5209 13.4052 30.4075 13.91L25.4671 16.1502ZM29.1633 22.7134C29.1748 22.8975 29.181 23.0831 29.181 23.2701C29.181 24.8185 28.7755 26.2722 28.0649 27.5309L33.488 27.4055C34.7101 27.3773 35.0848 25.7355 33.996 25.1798L29.1633 22.7134ZM26.3371 29.6953C25.119 30.8025 23.5849 31.568 21.8859 31.8405L25.3652 36.0023C26.1493 36.9402 27.6666 36.2095 27.4221 35.0117L26.3371 29.6953ZM19.1157 31.8405C17.4167 31.568 15.8826 30.8025 14.6645 29.6953L13.5795 35.0117C13.335 36.2096 14.8522 36.9402 15.6363 36.0023L19.1157 31.8405ZM12.9367 27.5309C12.226 26.2722 11.8206 24.8185 11.8206 23.2701C11.8206 23.0831 11.8267 22.8975 11.8383 22.7134L7.00561 25.1798C5.91673 25.7355 6.29144 27.3773 7.51361 27.4055L12.9367 27.5309ZM12.4529 20.0118C13.0878 18.4451 14.167 17.1057 15.5345 16.1502L10.594 13.91C9.48065 13.4052 8.43068 14.7218 9.1706 15.6949L12.4529 20.0118Z" fill="white"/>
<path fill-rule="evenodd" clip-rule="evenodd" d="M15.5948 36.0482L15.5967 36.0463C15.605 36.0373 15.6134 36.0278 15.6216 36.0182C15.6236 36.0159 15.6255 36.0137 15.6274 36.0115C15.6159 36.0249 15.6041 36.0379 15.5923 36.0506L15.5948 36.0482ZM16.2906 16.4904L16.2959 16.4922C16.2972 16.4927 16.2985 16.4934 16.2999 16.4939C16.2933 16.4916 16.2867 16.4893 16.2802 16.4868C16.2836 16.4881 16.2871 16.4893 16.2906 16.4904Z" fill="white"/>
<path fill-rule="evenodd" clip-rule="evenodd" d="M26.3357 29.695C26.4904 29.5545 26.6405 29.4082 26.7848 29.2567C26.8987 29.1369 27.0095 29.0139 27.1166 28.8879C26.8739 29.1734 26.6131 29.443 26.3357 29.695ZM28.0635 27.5305C27.9376 27.7536 27.8023 27.9702 27.658 28.1803C27.6461 28.1978 27.6339 28.2153 27.6216 28.2328C27.7796 28.0063 27.9271 27.772 28.0635 27.5305Z" fill="white"/>
<path fill-rule="evenodd" clip-rule="evenodd" d="M12.3356 20.3185C12.3443 20.2944 12.3533 20.2704 12.3623 20.2464C12.3847 20.186 12.4074 20.1261 12.4312 20.0664C12.398 20.1497 12.3663 20.234 12.3356 20.3185ZM11.9053 22.0556C11.9074 22.0408 11.9096 22.0262 11.9118 22.0114C11.9334 21.8626 11.9587 21.715 11.9875 21.569C11.9558 21.7297 11.928 21.8918 11.9053 22.0556ZM29.1643 22.727C29.17 22.8217 29.1744 22.9166 29.1773 23.0118C29.1798 23.0962 29.1812 23.181 29.1812 23.2659C29.1812 23.085 29.1751 22.9056 29.1643 22.727Z" fill="white"/>
<path d="M22.6043 16.3557C22.4826 16.3029 22.497 16.2606 22.623 16.3022C22.6324 16.3053 22.6413 16.3082 22.6496 16.311C23.5051 16.5963 24.3001 17.0384 24.9938 17.6146C26.4774 18.8415 27.413 20.6072 27.595 22.5236C27.7827 24.4584 27.1873 26.3876 25.942 27.8801C24.9092 29.1204 23.4933 29.9821 21.9172 30.3298C21.3291 30.459 20.8079 29.9728 20.8107 29.3707C20.8115 29.1813 20.8124 28.9927 20.8124 28.8065L20.8125 25.5049L20.8131 21.6376C20.8132 21.2061 21.3415 21.0256 21.6052 21.3672L22.4722 22.4897C22.8819 23.0202 23.1035 23.6679 23.1038 24.3383C23.1014 25.4783 24.2879 26.1192 24.9709 25.2064C25.0119 25.1516 25.0517 25.0965 25.0899 25.0413C25.9712 23.7613 26.307 22.1834 26.0234 20.6556C25.7154 19.0019 24.7119 17.5603 23.2682 16.6971C23.0549 16.5684 22.8331 16.4543 22.6043 16.3557Z" fill="white"/>
<path d="M18.7589 30.2898C18.8807 30.3426 18.8663 30.3849 18.7403 30.3433C18.7309 30.3402 18.722 30.3373 18.7137 30.3345C17.8581 30.0492 17.0632 29.6071 16.3694 29.0309C14.8859 27.804 13.9503 26.0383 13.7682 24.1219C13.5806 22.1871 14.176 20.2579 15.4213 18.7654C16.4541 17.5251 17.87 16.6634 19.4461 16.3158C20.0342 16.1865 20.5554 16.6727 20.5526 17.2748C20.5517 17.4642 20.5508 17.6528 20.5508 17.839L20.5508 21.1406L20.5502 25.0079C20.5501 25.4394 20.0218 25.6199 19.7581 25.2784L18.8911 24.1558C18.4813 23.6253 18.2598 22.9776 18.2595 22.3072C18.2619 21.1672 17.0754 20.5263 16.3924 21.4391C16.3513 21.4939 16.3116 21.549 16.2733 21.6042C15.3921 22.8842 15.0563 24.4621 15.3399 25.9899C15.6479 27.6436 16.6513 29.0852 18.0951 29.9484C18.3084 30.0771 18.5302 30.1912 18.7589 30.2898Z" fill="white"/>
</svg>
