<svg width="182" height="69" viewBox="0 0 182 69" fill="none" xmlns="http://www.w3.org/2000/svg">
<path d="M79.1975 29.7869H66.406L69.3755 12.9345H81.7609L81.2533 15.8786H72.2942L71.6597 19.4826H79.9082L79.3752 22.452H71.1267L70.3653 26.792H79.7305L79.1975 29.7869ZM91.208 29.7869H87.2487L85.7259 26.0306L82.9341 29.7869H78.8987L84.2031 23.4165L81.2337 17.2999H85.1422L86.6142 20.9292L89.3807 17.2999H93.2892L88.0609 23.4165L91.208 29.7869ZM102.295 24.4063H93.6655V24.99C93.6655 26.7666 94.5031 27.5027 95.9497 27.5027C97.0157 27.5027 98.0563 26.9697 98.437 26.1068H101.838C100.62 28.6701 98.3101 30.1168 95.6452 30.1168C92.1427 30.1168 90.3915 28.3402 90.3915 24.9647C90.3915 20.1425 93.2848 16.97 97.7517 16.97C100.899 16.97 102.523 18.645 102.523 21.9698C102.523 22.7058 102.447 23.518 102.295 24.4063ZM94.0462 22.3251H99.2745C99.3253 22.046 99.3253 21.7922 99.3253 21.5637C99.3253 19.9648 98.3101 19.5841 97.1933 19.5841C95.5183 19.5841 94.5284 20.777 94.0462 22.3251ZM114.678 21.7668H111.354C111.354 21.6399 111.379 21.5384 111.379 21.4115C111.379 20.1678 110.491 19.711 109.349 19.711C107.597 19.711 106.049 21.0054 106.049 24.4317C106.049 26.6397 106.836 27.3504 107.902 27.3504C109.196 27.3504 110.338 26.6144 110.694 25.2692H114.018C113.156 28.1625 110.465 30.1168 107.445 30.1168C104.552 30.1168 102.724 28.3402 102.724 24.9139C102.724 19.5587 105.668 16.97 109.856 16.97C112.876 16.97 114.704 18.5689 114.704 21.1577C114.704 21.3607 114.704 21.5637 114.678 21.7668ZM124.943 29.7869H121.821L122.126 28.0356C121.009 29.4569 119.613 30.1168 117.888 30.1168C115.73 30.1168 114.36 28.7209 114.36 26.5636C114.36 26.2337 114.385 25.8783 114.461 25.523L115.908 17.2999H119.207L117.837 25.0154C117.786 25.3454 117.735 25.6245 117.735 25.8783C117.735 27.0458 118.37 27.3504 119.537 27.3504C121.162 27.3504 122.304 26.1575 122.608 24.5078L123.877 17.2999H127.151L124.943 29.7869ZM137.481 21.5637L136.846 25.1169C136.364 27.7565 134.461 30.1168 130.933 30.1168C127.837 30.1168 126.618 28.4417 126.618 26.2844C126.618 25.9037 126.644 25.4976 126.72 25.0916L128.674 13.9244H131.923L131.339 17.2999H138.242L137.836 19.6349H130.933L130.019 24.7616C129.943 25.1423 129.918 25.4723 129.918 25.7514C129.918 26.8428 130.425 27.2489 131.491 27.2489C132.76 27.2489 133.572 26.3606 133.852 24.8124L134.41 21.5637H137.481ZM140.251 29.7869H136.951L139.159 17.2999H142.459L140.251 29.7869ZM142.712 15.8025H139.413L139.946 12.7315H143.245L142.712 15.8025ZM148.585 29.7869H145.133L142.874 17.2999H146.453L147.595 25.5484L151.707 17.2999H155.285L148.585 29.7869ZM165.153 24.4063H156.524V24.99C156.524 26.7666 157.361 27.5027 158.808 27.5027C159.874 27.5027 160.914 26.9697 161.295 26.1068H164.696C163.478 28.6701 161.168 30.1168 158.503 30.1168C155.001 30.1168 153.25 28.3402 153.25 24.9647C153.25 20.1425 156.143 16.97 160.61 16.97C163.757 16.97 165.381 18.645 165.381 21.9698C165.381 22.7058 165.305 23.518 165.153 24.4063ZM156.904 22.3251H162.133C162.183 22.046 162.183 21.7922 162.183 21.5637C162.183 19.9648 161.168 19.5841 160.051 19.5841C158.376 19.5841 157.387 20.777 156.904 22.3251ZM69.8069 49.9189H74.2738C75.8981 49.9189 76.8626 48.8783 76.8626 47.5078C76.8626 46.0358 75.8981 45.3759 74.3246 45.3759H69.8069V49.9189ZM74.0454 38.8532H69.8069V42.508H74.2484C75.6443 42.508 76.3803 41.8735 76.3803 40.6806C76.3803 39.3862 75.6951 38.8532 74.0454 38.8532ZM73.9946 52.7869H66.406V35.9345H74.7053C78.0047 35.9345 79.7813 37.7111 79.7813 40.5283C79.7813 41.975 78.893 43.1932 77.7255 43.6754C79.1468 44.2084 80.2889 45.3505 80.2889 47.7616C80.2889 50.8326 78.2331 52.7869 73.9946 52.7869ZM86.6902 50.3504C88.6952 50.3504 89.7104 49.0814 89.7104 46.5434C89.7104 44.0054 88.6952 42.7618 86.6902 42.7618C84.6852 42.7618 83.67 44.0054 83.67 46.5434C83.67 49.0814 84.6852 50.3504 86.6902 50.3504ZM86.6902 53.1168C82.6548 53.1168 80.269 50.4265 80.269 46.5434C80.269 42.5841 82.7309 39.97 86.6902 39.97C90.5987 39.97 93.0352 42.5587 93.0352 46.5434C93.0352 50.5027 90.5733 53.1168 86.6902 53.1168ZM101.285 48.0408L101.311 46.6703C100.981 47.0002 100.397 47.1779 99.1787 47.4063C97.3006 47.7616 96.6915 48.2946 96.6915 49.3606C96.6915 50.2996 97.2498 50.7565 98.2904 50.7565C99.9909 50.7565 101.26 49.5128 101.285 48.0408ZM104.61 52.7869H101.539C101.438 52.4823 101.361 52.0508 101.336 51.6701C100.549 52.5331 99.2295 53.1168 97.5544 53.1168C94.7118 53.1168 93.3921 51.7209 93.3921 49.6905C93.3921 46.0865 95.8032 45.6805 99.128 45.2236C100.778 44.9952 101.235 44.6653 101.235 43.8023C101.235 42.9902 100.422 42.508 99.128 42.508C97.6305 42.508 97.0214 43.244 96.8691 44.3607H93.7982C93.8489 41.7719 95.2702 39.97 99.2802 39.97C103.24 39.97 104.61 41.7466 104.61 44.8937V52.7869ZM108.857 52.7869H105.557V40.2999H108.654V41.7973C109.745 40.1222 111.014 39.97 112.359 39.97H112.791V43.3455C112.486 43.2947 112.182 43.2694 111.877 43.2694C109.847 43.2694 108.857 44.2846 108.857 46.2896V52.7869ZM118.349 50.4265C119.923 50.4265 121.141 48.9545 121.141 46.8479C121.141 44.1323 120.202 42.7871 118.375 42.7871C116.446 42.7871 115.532 44.0815 115.532 46.6449C115.532 48.8783 116.7 50.4265 118.349 50.4265ZM124.263 52.7869H121.09L121.065 51.2641C120.278 52.5331 119.111 53.1168 117.588 53.1168C114.441 53.1168 112.182 50.6296 112.182 46.4165C112.182 42.6349 114.086 39.97 117.309 39.97C118.857 39.97 120.075 40.6045 121.014 41.9242V35.7315H124.263V52.7869Z" fill="white"/>
<path d="M44.3525 26.7016C46.3574 28.1583 47.1963 30.7403 46.4305 33.0972L43.5675 41.9086C42.8017 44.2656 40.6052 45.8614 38.1269 45.8614H28.8622C26.3839 45.8614 24.1875 44.2656 23.4216 41.9086L20.5587 33.0974C19.7929 30.7404 20.6318 28.1583 22.6368 26.7016L30.1325 21.2556C32.1375 19.7989 34.8526 19.7989 36.8576 21.2557L44.3525 26.7016ZM26.31 27.8958C24.3049 29.3525 23.4659 31.9349 24.232 34.292L25.691 38.7811C26.4569 41.1378 28.6533 42.7334 31.1314 42.7334H35.8525C38.3308 42.7334 40.5272 41.1377 41.2931 38.7807L42.7517 34.2916C43.5176 31.9347 42.6787 29.3526 40.6738 27.8959L36.8546 25.1209C34.8496 23.6641 32.1346 23.6641 30.1296 25.1208L26.31 27.8958Z" fill="white"/>
<path d="M33.4755 14.6755C33.5919 14.3854 34.0026 14.3854 34.119 14.6755L37.2179 22.3994C37.3093 22.6272 37.1416 22.8752 36.8961 22.8752H30.6983C30.4529 22.8752 30.2852 22.6272 30.3766 22.3994L33.4755 14.6755Z" fill="white"/>
<path d="M33.4641 53.7112C33.5776 54.0086 33.9983 54.0086 34.1119 53.7112L37.22 45.5705C37.3066 45.3435 37.139 45.1001 36.8961 45.1001H30.6799C30.4369 45.1001 30.2693 45.3435 30.356 45.5705L33.4641 53.7112Z" fill="white"/>
<path d="M40.4695 56.8596C40.5786 57.0258 40.7414 57.15 40.9305 57.2112L48.7234 59.7336C49.6695 60.0399 49.4493 61.4368 48.4549 61.4368H19.4949C18.5006 61.4366 18.2804 60.0399 19.2264 59.7336L27.0193 57.2112C27.2084 57.15 27.3712 57.0257 27.4803 56.8596L31.0691 51.3899L33.4783 57.4153C33.5945 57.706 34.0057 57.706 34.1219 57.4153L36.6619 51.0579L40.4695 56.8596Z" fill="white"/>
<path d="M13.8618 31.1869C13.5535 31.078 13.5535 30.642 13.8618 30.5331L22.6966 27.4117C22.9222 27.332 23.1588 27.4994 23.1588 27.7386V33.9814C23.1588 34.2206 22.9222 34.388 22.6966 34.3083L13.8618 31.1869Z" fill="white"/>
<path d="M54.2471 31.2914C54.5664 31.1875 54.5664 30.7359 54.2471 30.632L44.8821 27.5859C44.6581 27.513 44.4282 27.68 44.4282 27.9156V34.0078C44.4282 34.2434 44.6581 34.4104 44.8821 34.3375L54.2471 31.2914Z" fill="white"/>
<path d="M48.4548 5.94019C49.4492 5.94019 49.6694 7.33609 48.7234 7.64233L40.9304 10.1658C40.7414 10.227 40.5785 10.3512 40.4695 10.5173L36.4822 16.5925L34.0925 11.1394C33.9712 10.8628 33.5781 10.8628 33.4568 11.1394L31.2273 16.2263L27.4802 10.5173C27.3711 10.3511 27.2084 10.227 27.0193 10.1658L19.2263 7.64233C18.2804 7.33605 18.5006 5.94035 19.4948 5.94019H48.4548Z" fill="white"/>
<path d="M57.5538 10.2065C57.8821 9.94516 58.3173 10.3682 58.0485 10.6874L39.4374 32.7924C39.3056 32.9489 39.0638 32.9606 38.9168 32.8176L34.7924 28.8076C34.6453 28.6647 34.6574 28.4295 34.8183 28.3015L57.5538 10.2065Z" fill="white"/>
<path d="M9.20112 57.2182C8.93237 57.5374 9.3675 57.9605 9.69582 57.6992L32.4314 39.6042C32.5923 39.4761 32.6043 39.241 32.4573 39.098L28.3329 35.088C28.1858 34.9451 27.944 34.9568 27.8123 35.1132L9.20112 57.2182Z" fill="white"/>
<path d="M37.723 38.0523C35.4986 40.2767 31.8921 40.2767 29.6676 38.0523C27.4432 35.8278 27.4432 32.2213 29.6676 29.9969C31.8921 27.7725 35.4986 27.7725 37.723 29.9969C39.9474 32.2213 39.9474 35.8278 37.723 38.0523ZM31.1672 31.4965C29.771 32.8927 29.771 35.1565 31.1672 36.5527C32.5634 37.9489 34.8272 37.9489 36.2234 36.5527C37.6196 35.1565 37.6196 32.8927 36.2234 31.4965C34.8272 30.1003 32.5634 30.1003 31.1672 31.4965Z" fill="white"/>
<path d="M37.4778 37.8071C37.6132 37.9425 37.8336 37.9432 37.9605 37.7998C38.3785 37.3275 38.7158 36.7885 38.9577 36.2044C39.244 35.5133 39.3913 34.7726 39.3913 34.0246C39.3913 33.2766 39.244 32.5359 38.9577 31.8448C38.6715 31.1538 38.2519 30.5258 37.723 29.9969C37.1941 29.468 36.5661 29.0484 35.8751 28.7622C35.184 28.4759 34.4433 28.3286 33.6953 28.3286C32.9473 28.3286 32.2066 28.4759 31.5155 28.7622C30.9314 29.0041 30.3924 29.3414 29.9201 29.7594C29.7767 29.8863 29.7774 30.1067 29.9128 30.2421L32.243 32.5722C32.3784 32.7076 32.5965 32.704 32.7564 32.5987C32.8464 32.5395 32.942 32.4887 33.042 32.4473C33.2491 32.3615 33.4711 32.3174 33.6953 32.3174C33.9195 32.3174 34.1415 32.3615 34.3486 32.4473C34.5558 32.5331 34.744 32.6589 34.9025 32.8174C35.061 32.9759 35.1868 33.1641 35.2726 33.3713C35.3584 33.5784 35.4025 33.8004 35.4025 34.0246C35.4025 34.2488 35.3584 34.4708 35.2726 34.6779C35.2312 34.7779 35.1804 34.8735 35.1212 34.9635C35.0159 35.1234 35.0123 35.3415 35.1477 35.4769L37.4778 37.8071Z" fill="white"/>
<path d="M37.7225 38.0789C35.4981 40.3033 31.8916 40.3033 29.6671 38.0789C27.4427 35.8545 27.4427 32.248 29.6671 30.0235C31.8916 27.7991 35.4981 27.7991 37.7225 30.0235C39.9469 32.248 39.9469 35.8545 37.7225 38.0789ZM31.1667 31.5231C29.7705 32.9193 29.7705 35.1831 31.1667 36.5793C32.563 37.9755 34.8267 37.9755 36.2229 36.5793C37.6191 35.1831 37.6191 32.9193 36.2229 31.5231C34.8267 30.1269 32.563 30.1269 31.1667 31.5231Z" fill="white"/>
<path d="M37.4773 37.8337C37.6127 37.9691 37.8331 37.9698 37.96 37.8264C38.3781 37.3542 38.7153 36.8151 38.9572 36.231C39.2435 35.5399 39.3908 34.7992 39.3908 34.0512C39.3908 33.3032 39.2435 32.5625 38.9572 31.8714C38.671 31.1804 38.2514 30.5525 37.7225 30.0235C37.1936 29.4946 36.5657 29.075 35.8746 28.7888C35.1835 28.5025 34.4428 28.3552 33.6948 28.3552C32.9468 28.3552 32.2061 28.5025 31.5151 28.7888C30.9309 29.0308 30.3919 29.368 29.9196 29.786C29.7762 29.9129 29.7769 30.1333 29.9123 30.2687L32.2425 32.5989C32.3779 32.7343 32.596 32.7307 32.7559 32.6253C32.8459 32.5661 32.9415 32.5154 33.0415 32.4739C33.2486 32.3881 33.4706 32.344 33.6948 32.344C33.919 32.344 34.141 32.3881 34.3482 32.4739C34.5553 32.5597 34.7435 32.6855 34.902 32.844C35.0605 33.0025 35.1863 33.1907 35.2721 33.3979C35.3579 33.605 35.4021 33.827 35.4021 34.0512C35.4021 34.2754 35.3579 34.4974 35.2721 34.7045C35.2307 34.8045 35.1799 34.9001 35.1207 34.9901C35.0154 35.15 35.0118 35.3682 35.1472 35.5036L37.4773 37.8337Z" fill="white"/>
<path d="M26.661 48.8768C27.4257 48.8771 27.868 49.7452 27.4199 50.3649L24.6115 54.2464C24.3899 54.5525 24.0339 54.7397 23.6572 54.7104C21.6846 54.5562 19.6554 53.6584 18.222 52.2638L23.6703 47.9273C24.5252 48.5306 25.5623 48.8767 26.661 48.8768ZM23.5032 13.6077C24.0308 13.2249 24.7704 13.3431 25.1522 13.8715L27.8826 17.6543C28.2622 18.1808 28.1432 18.9168 27.6181 19.2984L19.0679 25.5105C18.2494 26.1053 17.6454 26.9077 17.2919 27.8044L11.1903 30.5693C10.9189 30.6923 10.919 31.0788 11.1903 31.2019L18.1764 34.368L20.6617 42.0129L15.8949 47.6732L10.0537 29.6951C9.06441 26.6492 10.1484 23.3114 12.7392 21.4287L23.5032 13.6077ZM55.3375 21.4294C57.9285 23.3119 59.0135 26.6484 58.0244 29.6944L51.5492 49.6253C50.6208 52.4821 47.3369 54.4739 44.2903 54.7104C43.9135 54.7396 43.5577 54.5525 43.336 54.2464L40.5718 50.4284C40.1046 49.7823 40.5672 48.8775 41.3646 48.8775C43.6114 48.8771 45.6032 47.4304 46.2977 45.2936L49.7787 34.5786L56.9927 31.3034C57.2635 31.1802 57.2641 30.7948 56.9934 30.6715L50.7427 27.8334C50.3907 26.9249 49.7831 26.1117 48.9556 25.5105L47.7147 24.608L52.3917 19.2874L55.3375 21.4294ZM42.4038 20.7486L40.3543 19.2611C39.8293 18.8793 39.7134 18.1441 40.0933 17.6177L42.8402 13.8101C43.222 13.2818 43.9603 13.1635 44.4878 13.5463L48.2616 16.287L42.4038 20.7486Z" fill="white"/>
</svg>
