<svg width="59" height="67" viewBox="0 0 59 67" fill="none" xmlns="http://www.w3.org/2000/svg">
<path fill-rule="evenodd" clip-rule="evenodd" d="M31.4564 52.3199C31.2066 51.9392 30.7682 51.7295 30.3132 51.7502C30.0329 51.763 29.7511 51.7694 29.4679 51.7694C29.221 51.7694 28.9751 51.7645 28.7304 51.7548C28.278 51.7369 27.8433 51.9465 27.5949 52.3249L21.702 61.3044C21.547 61.5405 21.3161 61.7166 21.0474 61.8036L12.7813 64.4793C11.4375 64.9143 11.7506 66.8982 13.163 66.8982H45.8915C47.3039 66.8982 47.617 64.9143 46.2733 64.4793L38.0072 61.8036C37.7386 61.7166 37.5076 61.5405 37.3527 61.3044L31.4564 52.3199Z" fill="url(#paint0_linear_87_959)"/>
<path fill-rule="evenodd" clip-rule="evenodd" d="M24.2675 9.50323C24.7334 10.2131 25.7753 10.2482 26.49 9.78979C28.2904 8.6351 30.7151 8.64735 32.5022 9.82658C33.2198 10.3001 34.2812 10.2741 34.7529 9.5553L37.3527 5.59393C37.5076 5.35781 37.7386 5.18169 38.0072 5.09472L46.2733 2.419C47.617 1.98403 47.3039 0.000116298 45.8915 0.000116298L13.163 0.000116298C11.7506 0.000116298 11.4375 1.98404 12.7813 2.419L21.0474 5.09472C21.3161 5.18169 21.547 5.35782 21.702 5.59393L24.2675 9.50323Z" fill="url(#paint1_linear_87_959)"/>
<path fill-rule="evenodd" clip-rule="evenodd" d="M43.0506 49.5394L43.0602 49.5863C43.7108 52.7748 41.6443 55.2428 39.0902 55.9167L41.1484 58.7608C45.0252 58.7608 49.4632 56.2645 50.6613 52.5775L58.4989 28.4555C59.6969 24.7684 58.3846 20.7291 55.2481 18.4504L40.9586 8.0686L35.9632 14.9907L39.7228 17.7222L42.1753 16.6103L42.2951 16.5574C47.3084 14.4099 51.9816 20.2413 48.8254 24.6608C50.0533 26.2702 50.4536 28.4136 49.8049 30.41L49.2222 32.2035L50.5578 32.8852C55.5602 35.4384 53.8388 42.9814 48.2239 43.1113L45.6588 43.1705L44.306 47.3342C44.0358 48.1657 43.6033 48.9109 43.0506 49.5394Z" fill="url(#paint2_linear_87_959)"/>
<path fill-rule="evenodd" clip-rule="evenodd" d="M8.27622 52.5775C9.47427 56.2645 13.7547 58.7608 17.6314 58.7608L19.716 55.8804C17.226 55.1585 15.243 52.7258 15.8753 49.5976C15.2977 48.9571 14.8466 48.1916 14.5681 47.3342L13.2147 43.169L10.7139 43.1113C5.09884 42.9815 3.37734 35.4384 8.37999 32.8852L9.66094 32.2314L9.06911 30.41C8.41467 28.3958 8.828 26.2318 10.0818 24.6177C6.96177 20.1683 11.7205 14.3242 16.7625 16.6103L19.1757 17.7045L22.8492 15.0355L17.8755 8.14363L3.68949 18.4504C0.553071 20.7291 -0.759443 24.7684 0.438542 28.4555L8.27622 52.5775ZM22.4227 51.8149L22.4185 51.819L22.4149 51.8225C22.4356 51.8002 22.4561 51.7773 22.4761 51.7535C22.4585 51.7746 22.4408 51.795 22.4227 51.8149Z" fill="url(#paint3_linear_87_959)"/>
<path fill-rule="evenodd" clip-rule="evenodd" d="M22.421 51.8163C22.4392 51.7965 22.4581 51.7746 22.4757 51.7536C22.4557 51.7775 22.4352 51.8003 22.4145 51.8226L22.4181 51.8191L22.421 51.8163Z" fill="url(#paint4_linear_87_959)"/>
<path fill-rule="evenodd" clip-rule="evenodd" d="M33.0205 21.4856L31.1105 13.9273C30.68 12.2235 28.2593 12.2235 27.8288 13.9273L25.9188 21.4856C27.044 21.1522 28.2361 20.973 29.4696 20.973C30.7032 20.973 31.8953 21.1522 33.0205 21.4856ZM36.6087 23.2159C38.5744 24.5895 40.1258 26.5147 41.0384 28.767L45.7568 22.5614C46.8204 21.1625 45.3111 19.2699 43.7106 19.9956L36.6087 23.2159ZM41.922 32.6504C41.9386 32.9151 41.9474 33.1819 41.9474 33.4508C41.9474 35.6765 41.3646 37.7662 40.3431 39.5756L48.1387 39.3954C49.8956 39.3548 50.4342 36.9947 48.869 36.1959L41.922 32.6504ZM37.8593 42.687C36.1083 44.2786 33.903 45.3789 31.4608 45.7706L36.4623 51.7533C37.5894 53.1016 39.7704 52.0512 39.419 50.3293L37.8593 42.687ZM27.4785 45.7706C25.0363 45.3789 22.831 44.2786 21.0799 42.687L19.5202 50.3293C19.1688 52.0512 21.3498 53.1016 22.477 51.7533L27.4785 45.7706ZM18.5962 39.5756C17.5747 37.7662 16.9919 35.6765 16.9919 33.4508C16.9919 33.1819 17.0007 32.9151 17.0173 32.6504L10.0703 36.1959C8.50506 36.9947 9.04371 39.3548 10.8006 39.3954L18.5962 39.5756ZM17.9009 28.767C18.8135 26.5147 20.3649 24.5895 22.3306 23.2159L15.2287 19.9956C13.6282 19.2699 12.1189 21.1625 13.1825 22.5614L17.9009 28.767Z" fill="url(#paint5_linear_87_959)"/>
<path fill-rule="evenodd" clip-rule="evenodd" d="M22.4177 51.8191L22.4205 51.8165C22.4323 51.8036 22.4444 51.7899 22.4563 51.7761C22.459 51.7728 22.4618 51.7696 22.4646 51.7664C22.448 51.7857 22.431 51.8043 22.4141 51.8226L22.4177 51.8191ZM23.4179 23.7049L23.4254 23.7075C23.4274 23.7082 23.4293 23.7092 23.4312 23.7099C23.4217 23.7066 23.4123 23.7033 23.4029 23.6997C23.4079 23.7016 23.4129 23.7033 23.4179 23.7049Z" fill="url(#paint6_linear_87_959)"/>
<path fill-rule="evenodd" clip-rule="evenodd" d="M37.8575 42.6864C38.08 42.4844 38.2957 42.2742 38.5031 42.0564C38.6669 41.8842 38.8261 41.7074 38.9801 41.5262C38.6312 41.9366 38.2563 42.3242 37.8575 42.6864ZM40.3413 39.575C40.1603 39.8957 39.9658 40.2071 39.7584 40.5091C39.7413 40.5343 39.7237 40.5594 39.7061 40.5846C39.9332 40.2589 40.1453 39.9221 40.3413 39.575Z" fill="url(#paint7_linear_87_959)"/>
<path fill-rule="evenodd" clip-rule="evenodd" d="M17.7324 29.2077C17.7448 29.1729 17.7578 29.1384 17.7707 29.104C17.8029 29.0171 17.8356 28.931 17.8698 28.8452C17.8221 28.965 17.7764 29.0861 17.7324 29.2077ZM17.1138 31.7046C17.1169 31.6834 17.12 31.6624 17.1231 31.6411C17.1542 31.4272 17.1905 31.2151 17.232 31.0051C17.1864 31.2361 17.1464 31.4692 17.1138 31.7046ZM41.9236 32.6698C41.9319 32.806 41.9381 32.9423 41.9422 33.0792C41.9459 33.2006 41.948 33.3224 41.948 33.4445C41.948 33.1845 41.9391 32.9265 41.9236 32.6698Z" fill="url(#paint8_linear_87_959)"/>
<path d="M32.4933 23.5112C32.3182 23.4354 32.3389 23.3745 32.5201 23.4343C32.5336 23.4387 32.5464 23.443 32.5583 23.4469C33.7882 23.8571 34.931 24.4926 35.9282 25.3209C38.0608 27.0845 39.4057 29.6228 39.6674 32.3776C39.9372 35.1589 39.0813 37.9321 37.2912 40.0776C35.8065 41.8605 33.7712 43.0992 31.5055 43.5989C30.6601 43.7847 29.9109 43.0859 29.9149 42.2203C29.9161 41.9481 29.9174 41.6769 29.9174 41.4092L29.9175 36.6633L29.9184 31.1039C29.9185 30.4837 30.678 30.2242 31.057 30.7152L32.3033 32.3288C32.8923 33.0915 33.2108 34.0225 33.2113 34.9862C33.2077 36.6249 34.9133 37.5463 35.8952 36.2342C35.9542 36.1553 36.0113 36.0761 36.0663 35.9967C37.3331 34.1567 37.8159 31.8885 37.4082 29.6923C36.9655 27.3152 35.523 25.2428 33.4475 24.002C33.1409 23.817 32.8221 23.653 32.4933 23.5112Z" fill="url(#paint9_linear_87_959)"/>
<path d="M26.9657 43.5415C27.1408 43.6173 27.12 43.6782 26.9389 43.6185C26.9254 43.614 26.9126 43.6098 26.9007 43.6058C25.6708 43.1956 24.528 42.5601 23.5308 41.7319C21.3982 39.9682 20.0532 37.43 19.7916 34.6751C19.5218 31.8939 20.3777 29.1206 22.1678 26.9751C23.6525 25.1922 25.6878 23.9535 27.9535 23.4538C28.7988 23.268 29.548 23.9669 29.5441 24.8324C29.5428 25.1046 29.5416 25.3758 29.5416 25.6435L29.5415 30.3895L29.5406 35.9488C29.5405 36.5691 28.781 36.8286 28.402 36.3375L27.1557 34.7239C26.5666 33.9612 26.2482 33.0303 26.2477 32.0666C26.2513 30.4278 24.5457 29.5065 23.5638 30.8186C23.5048 30.8974 23.4477 30.9767 23.3926 31.056C22.1259 32.896 21.6431 35.1642 22.0508 37.3605C22.4935 39.7375 23.936 41.81 26.0115 43.0507C26.318 43.2358 26.6369 43.3998 26.9657 43.5415Z" fill="url(#paint10_linear_87_959)"/>
<defs>
<linearGradient id="paint0_linear_87_959" x1="29.5272" y1="51.7019" x2="29.5294" y2="66.8982" gradientUnits="userSpaceOnUse">
<stop stop-color="#003CEC"/>
<stop offset="1" stop-color="#00B0D8"/>
</linearGradient>
<linearGradient id="paint1_linear_87_959" x1="29.5272" y1="23.7097" x2="29.5326" y2="0.000117557" gradientUnits="userSpaceOnUse">
<stop stop-color="#003CEC"/>
<stop offset="1" stop-color="#00B0D8"/>
</linearGradient>
<linearGradient id="paint2_linear_87_959" x1="29.4687" y1="8.0686" x2="29.4889" y2="58.7608" gradientUnits="userSpaceOnUse">
<stop stop-color="#003CEC"/>
<stop offset="1" stop-color="#00B0D8"/>
</linearGradient>
<linearGradient id="paint3_linear_87_959" x1="29.4687" y1="8.0686" x2="29.4889" y2="58.7608" gradientUnits="userSpaceOnUse">
<stop stop-color="#003CEC"/>
<stop offset="1" stop-color="#00B0D8"/>
</linearGradient>
<linearGradient id="paint4_linear_87_959" x1="30.1241" y1="23.6921" x2="30.1335" y2="51.8226" gradientUnits="userSpaceOnUse">
<stop stop-color="#003CEC"/>
<stop offset="1" stop-color="#00B0D8"/>
</linearGradient>
<linearGradient id="paint5_linear_87_959" x1="29.4696" y1="7.43384" x2="29.4919" y2="56.8922" gradientUnits="userSpaceOnUse">
<stop stop-color="#003CEC"/>
<stop offset="1" stop-color="#00B0D8"/>
</linearGradient>
<linearGradient id="paint6_linear_87_959" x1="22.9226" y1="23.6997" x2="23.2813" y2="51.8181" gradientUnits="userSpaceOnUse">
<stop stop-color="#003CEC"/>
<stop offset="1" stop-color="#00B0D8"/>
</linearGradient>
<linearGradient id="paint7_linear_87_959" x1="28.7844" y1="30.9932" x2="28.7871" y2="42.6864" gradientUnits="userSpaceOnUse">
<stop stop-color="#003CEC"/>
<stop offset="1" stop-color="#00B0D8"/>
</linearGradient>
<linearGradient id="paint8_linear_87_959" x1="29.5309" y1="28.8452" x2="29.5313" y2="33.4445" gradientUnits="userSpaceOnUse">
<stop stop-color="#003CEC"/>
<stop offset="1" stop-color="#00B0D8"/>
</linearGradient>
<linearGradient id="paint9_linear_87_959" x1="34.8144" y1="23.228" x2="34.8344" y2="43.8248" gradientUnits="userSpaceOnUse">
<stop stop-color="#003CEC"/>
<stop offset="1" stop-color="#00B0D8"/>
</linearGradient>
<linearGradient id="paint10_linear_87_959" x1="24.6446" y1="43.8247" x2="24.6246" y2="23.2279" gradientUnits="userSpaceOnUse">
<stop stop-color="#003CEC"/>
<stop offset="1" stop-color="#00B0D8"/>
</linearGradient>
</defs>
</svg>
