<svg width="57" height="65" viewBox="0 0 57 65" fill="none" xmlns="http://www.w3.org/2000/svg">
<path d="M27.3223 48.7441C27.8383 47.9943 28.9456 47.9943 29.4616 48.7441L36.5844 59.0931C36.75 59.3337 36.9919 59.5114 37.271 59.5976L45.5349 62.1483C46.9584 62.5877 46.6417 64.6875 45.152 64.6875H11.6318C10.142 64.6875 9.82534 62.5877 11.2489 62.1483L19.5129 59.5976C19.792 59.5114 20.0339 59.3337 20.1995 59.093L27.3223 48.7441Z" fill="url(#paint0_linear_87_1032)"/>
<path d="M27.3223 15.9434C27.8383 16.6932 28.9456 16.6932 29.4616 15.9434L36.5844 5.59445C36.75 5.35381 36.9919 5.17605 37.271 5.08989L45.5349 2.53921C46.9584 2.09983 46.6417 -2.68525e-05 45.152 -2.68525e-05L11.6318 -2.68525e-05C10.142 -2.68525e-05 9.82534 2.09984 11.2489 2.53921L19.5129 5.0899C19.792 5.17605 20.0339 5.35381 20.1995 5.59445L27.3223 15.9434Z" fill="url(#paint1_linear_87_1032)"/>
<path d="M38.039 9.93614C38.5541 9.25562 39.5142 9.1015 40.2158 9.5875L52.5527 18.1344C55.5358 20.2012 56.7838 23.8646 55.6445 27.2086L48.1894 49.0875C47.1304 52.1948 43.4106 54.3704 39.9306 54.6627C39.4345 54.7044 38.9641 54.4626 38.663 54.066L35.5937 50.0211C35.3225 49.6637 35.3122 49.2287 35.4814 48.8814C36.6835 49.3408 37.9122 49.7 39.1425 49.8971C39.78 49.9993 40.6121 49.9937 41.2685 49.9859C45.2412 49.8636 47.0847 47.0407 46.7578 43.5348C46.541 41.2112 45.6929 39.1574 44.6044 37.1119L47.375 28.982C48.0459 27.013 47.5361 24.8863 46.1181 23.3961C46.5369 22.1514 46.7768 20.8749 46.7685 19.3678C46.7484 15.7368 44.0338 13.6636 40.3085 13.898C38.4198 14.0379 36.6698 14.5296 34.998 15.2135C34.8037 14.7161 34.8633 14.1319 35.2109 13.6725L38.039 9.93614ZM15.748 9.65586C16.4494 9.16998 17.4097 9.32327 17.9248 10.0035L20.7324 13.7125C21.0932 14.1894 21.1417 14.8008 20.9199 15.3102C20.0248 14.9429 19.1142 14.6228 18.1904 14.358C17.1697 14.0655 15.6109 13.8154 14.5732 13.8932C10.658 14.0906 8.6432 16.6243 8.93257 20.2799C9.02363 21.4299 9.29891 22.5392 9.68355 23.6168C8.41861 25.0918 7.98845 27.1084 8.62691 28.982L11.289 36.7955C11.2394 36.8882 11.1909 36.9815 11.1425 37.0748C9.41175 40.3466 7.31066 45.6602 10.7255 48.6686C12.1861 49.9551 13.9853 50.0866 15.8671 49.9674C17.0634 49.8916 18.4003 49.5449 19.5322 49.1422C19.8374 49.0336 20.142 48.9181 20.4462 48.7975C20.6406 49.1394 20.649 49.5859 20.373 49.9498L17.249 54.066C16.948 54.4625 16.4783 54.7034 15.9824 54.6617C12.5214 54.3688 8.93189 52.1942 7.873 49.0875L0.416946 27.2086C-0.722291 23.8646 0.526534 20.2011 3.50972 18.1344L15.748 9.65586ZM13.8574 44.3316C14.0855 45.001 14.4354 45.6085 14.8789 46.1354C14.4728 46.1363 14.1047 46.0891 13.8076 45.9674C12.7544 45.5357 12.879 43.9905 13.2578 42.5719L13.8574 44.3316ZM42.5781 43.0572C42.6394 43.3688 42.6877 43.6856 42.7158 44.0094C42.8156 45.1772 42.4871 46.0911 41.1328 46.1217C41.571 45.5979 41.9182 44.9955 42.1445 44.3316L42.5781 43.0572ZM14.4668 17.8043C15.2326 17.7113 16.2726 17.8976 17.2246 18.1607L13.1611 20.9752C13.1516 20.933 13.1414 20.8928 13.1337 20.8541C12.9832 20.0966 12.8175 18.9833 13.3271 18.3063C13.5998 17.944 14.0338 17.8636 14.4668 17.8043ZM38.6855 18.0973C39.7743 17.8025 40.8085 17.6725 41.6279 17.858C42.7744 18.1177 42.9032 19.3519 42.5966 20.8072L38.6855 18.0973Z" fill="url(#paint2_linear_87_1032)"/>
<path fill-rule="evenodd" clip-rule="evenodd" d="M44.6867 20.675C44.7595 21.5558 44.5262 22.8793 44.2531 23.7457C42.6811 28.732 39.011 33.2464 35.3444 37.0181C34.7425 37.6233 34.1097 38.2027 33.4916 38.7928C33.015 39.2476 32.3985 39.6677 32.1705 40.2958C32.009 40.7399 32.0463 41.2276 32.2737 41.6444C32.4874 42.0383 32.7969 42.2698 33.1951 42.5131C34.4396 43.2736 40.3965 46.0015 40.9855 43.6376C41.4876 41.6228 39.5377 38.0732 38.439 36.3198C39.2817 35.4249 40.0866 34.4131 40.8593 33.4623C42.6754 36.2722 44.407 39.1343 44.6825 42.5177C44.9013 45.6794 42.9658 47.9831 39.5762 48C36.9347 48.0132 35.0503 47.2925 32.7016 46.1949C30.943 45.3734 29.6132 44.203 27.5288 44.3468C25.9142 44.4579 25.0853 45.0822 23.7366 45.8047C21.5837 46.8977 19.4598 47.7838 17.0165 47.991C13.7437 48.2685 11.1086 46.7045 10.9944 43.3328C10.9872 42.7757 10.9818 42.0694 11.0773 41.5283C11.5773 38.6895 13.1844 35.857 14.7981 33.4781C15.6223 34.4273 16.2992 35.3827 17.213 36.3146C15.9746 38.3053 14.6132 40.7602 14.598 43.141C14.5901 44.3545 15.4598 44.6471 16.5738 44.5605C18.4442 44.413 20.0733 43.6834 21.7377 42.8931C22.9211 42.3309 24.1269 41.4992 23.3541 40.034C23.0588 39.474 22.2181 38.8668 21.7247 38.4004C21.1644 37.8718 20.6152 37.3323 20.078 36.782C16.7795 33.4379 13.4725 29.2059 11.7822 24.8843C11.4062 23.9236 11.083 22.7889 11.0122 21.7736C10.901 20.1763 11.0234 18.6492 12.2245 17.4096C15.0329 14.5113 19.9928 16.2946 23.047 17.7635C23.5019 17.9776 23.9483 18.2072 24.3857 18.4517C24.9134 18.7442 25.4391 19.069 26.0142 19.2674C26.7104 19.5048 27.4506 19.6024 28.1883 19.5538C29.8858 19.4551 30.8884 18.5909 32.3533 17.8778C34.3587 16.9064 36.4574 16.0512 38.7247 15.888C42.1373 15.6423 44.5024 17.352 44.6867 20.675ZM40.2401 24.1957C40.6618 23.2191 41.173 21.612 41.0359 20.5853C40.9805 20.2178 40.9057 19.8491 40.5675 19.6176C39.9355 19.1851 38.8961 19.3261 38.189 19.4538C36.827 19.6998 33.1163 21.0507 32.3826 22.0692C32.0824 22.486 32.0211 22.9604 32.1129 23.4483C32.1645 23.7223 32.3532 23.9945 32.5347 24.2092C32.8906 24.6303 33.3513 24.9798 33.7555 25.3593C34.5804 26.1336 35.4093 26.9217 36.1707 27.7533C35.4895 28.7381 34.7585 29.6906 33.9801 30.6075C33.4219 30.0124 32.8521 29.4274 32.2707 28.8529C31.0184 27.6213 30.0261 26.7761 28.1003 26.6803C26.6924 26.6054 25.3127 27.0781 24.2768 27.9904C23.385 28.769 22.4837 29.7584 21.6607 30.6058C20.8871 29.6864 20.1559 28.7352 19.4696 27.755C20.259 26.9212 21.0751 26.1109 21.9169 25.3251C22.6513 24.6269 23.6411 24.0414 23.5825 22.9251C23.5578 22.4497 23.2622 21.9844 22.8764 21.6794C22.1443 21.1575 20.8996 20.5847 20.0566 20.2559C18.9627 19.8134 15.4162 18.539 14.746 20.0256C14.2609 21.1024 14.9904 23.2754 15.4756 24.3793C16.1004 25.7681 16.8503 27.1027 17.7167 28.3679C19.2461 30.6363 21.1215 32.8001 23.069 34.7553C23.4959 35.1837 24.1332 35.8291 24.601 36.1819C24.97 36.4638 25.3806 36.6923 25.819 36.8609C27.1177 37.3678 28.575 37.3602 29.8677 36.8394C31.1264 36.3316 32.2058 35.147 33.1451 34.1739C35.9428 31.2761 38.6575 27.8611 40.2401 24.1957Z" fill="url(#paint3_linear_87_1032)"/>
<defs>
<linearGradient id="paint0_linear_87_1032" x1="28.3918" y1="47.1899" x2="28.3946" y2="64.6875" gradientUnits="userSpaceOnUse">
<stop stop-color="#003CEC"/>
<stop offset="1" stop-color="#00B0D8"/>
</linearGradient>
<linearGradient id="paint1_linear_87_1032" x1="28.3918" y1="17.4976" x2="28.3946" y2="-2.626e-05" gradientUnits="userSpaceOnUse">
<stop stop-color="#003CEC"/>
<stop offset="1" stop-color="#00B0D8"/>
</linearGradient>
<linearGradient id="paint2_linear_87_1032" x1="28.0308" y1="9.3042" x2="28.0477" y2="54.6673" gradientUnits="userSpaceOnUse">
<stop stop-color="#003CEC"/>
<stop offset="1" stop-color="#00B0D8"/>
</linearGradient>
<linearGradient id="paint3_linear_87_1032" x1="44.7002" y1="31.9404" x2="10.9798" y2="31.9567" gradientUnits="userSpaceOnUse">
<stop stop-color="#003CEC"/>
<stop offset="1" stop-color="#00B0D8"/>
</linearGradient>
</defs>
</svg>
