<svg width="156" height="55" viewBox="0 0 156 55" fill="none" xmlns="http://www.w3.org/2000/svg">
<path d="M69.7337 21.0381H56.9421L59.9116 4.18577H72.297L71.7894 7.12985H62.8303L62.1958 10.7338H70.4443L69.9113 13.7033H61.6628L60.9014 18.0432H70.2666L69.7337 21.0381ZM81.7441 21.0381H77.7849L76.2621 17.2818L73.4703 21.0381H69.4348L74.7393 14.6677L71.7698 8.55113H75.6783L77.1504 12.1805L79.9168 8.55113H83.8253L78.597 14.6677L81.7441 21.0381ZM89.1829 16.0636V12.815H92.2538V16.3682C92.2538 19.0077 90.731 21.368 87.2032 21.368C83.5485 21.368 82.1018 19.0331 82.1018 16.3428V5.17559H85.3505V8.55113H92.2538V10.8861H85.3505V16.0128C85.3505 17.5864 85.9088 18.5001 87.254 18.5001C88.5737 18.5001 89.1829 17.6118 89.1829 16.0636ZM96.2163 13.5764H101.318C101.267 11.7236 100.049 10.8353 98.7543 10.8353C97.4345 10.8353 96.3432 11.8505 96.2163 13.5764ZM104.719 15.6575H96.1148C96.2163 17.5356 97.2823 18.7539 98.9066 18.7539C99.9725 18.7539 100.912 18.2209 101.14 17.358H104.541C103.78 19.9214 101.724 21.368 99.0589 21.368C94.8965 21.368 92.8154 19.0838 92.8154 14.5662C92.8154 10.7084 95.0234 8.22119 98.8558 8.22119C102.688 8.22119 104.719 10.7084 104.719 15.6575ZM108.651 21.0381H105.351V8.55113H108.448V10.0485C109.539 8.37347 110.808 8.22119 112.153 8.22119H112.585V11.5967C112.28 11.546 111.975 11.5206 111.671 11.5206C109.641 11.5206 108.651 12.5358 108.651 14.5408V21.0381ZM124.318 21.0381H120.993V13.4748C120.993 11.546 120.434 11.013 118.861 11.013C117.135 11.013 116.297 11.9774 116.297 13.8809V21.0381H112.998V8.55113H116.145V10.3785C116.907 8.98259 118.176 8.22119 120.181 8.22119C122.566 8.22119 124.318 9.66785 124.318 12.3835V21.0381ZM132.818 16.292L132.843 14.9215C132.513 15.2514 131.93 15.4291 130.711 15.6575C128.833 16.0128 128.224 16.5458 128.224 17.6118C128.224 18.5508 128.783 19.0077 129.823 19.0077C131.524 19.0077 132.793 17.7641 132.818 16.292ZM136.143 21.0381H133.072C132.97 20.7335 132.894 20.3021 132.869 19.9214C132.082 20.7843 130.762 21.368 129.087 21.368C126.245 21.368 124.925 19.9721 124.925 17.9417C124.925 14.3378 127.336 13.9317 130.661 13.4748C132.31 13.2464 132.767 12.9165 132.767 12.0536C132.767 11.2414 131.955 10.7592 130.661 10.7592C129.163 10.7592 128.554 11.4952 128.402 12.6119H125.331C125.382 10.0232 126.803 8.22119 130.813 8.22119C134.772 8.22119 136.143 9.99779 136.143 13.1449V21.0381ZM140.39 21.0381H137.09V3.98273H140.39V21.0381ZM67.7794 37.6677L66.8657 30.9674H66.8403L63.4902 37.6677H67.7794ZM72.4747 44.0381H68.7438L68.287 40.561H62.0689L60.2669 44.0381H56.4345L65.4191 27.1858H69.5052L72.4747 44.0381ZM75.8752 44.0381H72.6266L74.4286 33.8861H72.5758L72.9819 31.5511H74.8346C75.3676 28.5055 77.3726 26.9827 80.9258 26.9827L80.469 29.6476C78.7939 29.6476 78.3371 30.1045 78.0833 31.5511H80.2152L79.8091 33.8861H77.6772L75.8752 44.0381ZM82.8527 44.0381H79.6041L81.4061 33.8861H79.5533L79.9594 31.5511H81.8122C82.3451 28.5055 84.3502 26.9827 87.9034 26.9827L87.4465 29.6476C85.7714 29.6476 85.3146 30.1045 85.0608 31.5511H87.1927L86.7866 33.8861H84.6547L82.8527 44.0381ZM92.8505 39.292L92.8759 37.9215C92.5459 38.2514 91.9622 38.4291 90.7439 38.6575C88.8658 39.0128 88.2567 39.5458 88.2567 40.6118C88.2567 41.5508 88.8151 42.0077 89.8556 42.0077C91.5561 42.0077 92.8251 40.7641 92.8505 39.292ZM96.1753 44.0381H93.1043C93.0028 43.7335 92.9266 43.3021 92.9012 42.9214C92.1145 43.7843 90.7947 44.368 89.1196 44.368C86.2771 44.368 84.9573 42.9721 84.9573 40.9417C84.9573 37.3378 87.3684 36.9317 90.6932 36.4748C92.3429 36.2464 92.7997 35.9165 92.7997 35.0536C92.7997 34.2414 91.9876 33.7592 90.6932 33.7592C89.1958 33.7592 88.5866 34.4952 88.4344 35.6119H85.3634C85.4141 33.0232 86.8354 31.2212 90.8455 31.2212C94.8047 31.2212 96.1753 32.9978 96.1753 36.1449V44.0381ZM100.498 44.0381H97.1988V31.5511H100.498V44.0381ZM100.498 30.0537H97.1988V26.9827H100.498V30.0537ZM104.797 44.0381H101.498V31.5511H104.594V33.0485C105.685 31.3735 106.954 31.2212 108.3 31.2212H108.731V34.5967C108.426 34.546 108.122 34.5206 107.817 34.5206C105.787 34.5206 104.797 35.5358 104.797 37.5408V44.0381ZM119.358 35.3327H116.186C116.008 34.1145 115.348 33.683 113.851 33.683C112.607 33.683 111.897 33.9876 111.897 34.7236C111.897 35.4596 112.582 35.7642 113.927 36.1449C115.348 36.551 116.694 36.8302 117.658 37.2109C118.978 37.7438 119.714 38.6068 119.714 40.2311C119.714 42.8198 117.81 44.368 114.257 44.368C110.425 44.368 108.293 42.566 108.242 40.028H111.643C111.643 41.1955 112.633 41.8808 114.232 41.8808C115.399 41.8808 116.44 41.5255 116.44 40.5864C116.44 39.6981 115.501 39.4189 114.435 39.1651C112.328 38.6575 111.161 38.3022 110.272 37.7438C109.105 37.0078 108.699 36.0434 108.699 34.9267C108.699 32.8201 110.146 31.2212 113.953 31.2212C117.557 31.2212 119.181 32.6425 119.358 35.3327Z" fill="white"/>
<path fill-rule="evenodd" clip-rule="evenodd" d="M25.6045 42.9395C25.4309 42.6728 25.1247 42.5255 24.8069 42.5419C24.5501 42.5551 24.2916 42.5618 24.0317 42.5618C23.8016 42.5618 23.5726 42.5566 23.3448 42.5462C23.0289 42.5318 22.7252 42.6791 22.5527 42.9441L17.6694 50.446C17.562 50.611 17.4014 50.7343 17.2142 50.7954L9.48438 53.3179C8.55147 53.6224 8.77057 55 9.7519 55H38.4082C39.3895 55 39.6087 53.6224 38.6757 53.3179L30.946 50.7954C30.7589 50.7343 30.5982 50.611 30.4909 50.446L25.6045 42.9395Z" fill="white"/>
<path fill-rule="evenodd" clip-rule="evenodd" d="M19.903 7.98537C20.2267 8.48271 20.9534 8.50858 21.4356 8.1628C22.9743 7.05964 25.1508 7.07136 26.6759 8.198C27.1592 8.55504 27.8991 8.53553 28.2269 8.03194L30.4909 4.55403C30.5982 4.38905 30.7589 4.26578 30.946 4.20471L38.6757 1.68214C39.6087 1.37769 39.3896 7.08329e-05 38.4082 7.08329e-05L9.75191 7.08329e-05C8.77057 7.08329e-05 8.55147 1.37769 9.48438 1.68214L17.2142 4.20471C17.4014 4.26578 17.562 4.38905 17.6694 4.55404L19.903 7.98537Z" fill="white"/>
<path fill-rule="evenodd" clip-rule="evenodd" d="M35.1071 40.7288L35.115 40.7673C35.6455 43.3888 33.9603 45.4178 31.8775 45.9719L33.556 48.3102C36.7174 48.3102 40.3366 46.2578 41.3136 43.2266L47.705 23.3946C48.682 20.3633 47.6118 17.0424 45.0541 15.1689L33.4012 6.63354L29.3275 12.3245L32.3934 14.5703L34.3934 13.6561L34.491 13.6126C38.5794 11.847 42.3902 16.6414 39.8165 20.2748C40.8178 21.598 41.1442 23.3602 40.6152 25.0015L40.14 26.4761L41.2291 27.0365C45.3086 29.1357 43.9048 35.3371 39.3259 35.4439L37.2341 35.4926L36.1309 38.9158C35.9106 39.5994 35.5579 40.2121 35.1071 40.7288Z" fill="white"/>
<path fill-rule="evenodd" clip-rule="evenodd" d="M6.74914 43.2266C7.72614 46.2578 11.2168 48.3102 14.3782 48.3102L16.0781 45.942C14.0476 45.3485 12.4304 43.3485 12.9461 40.7766C12.475 40.25 12.1072 39.6206 11.88 38.9158L10.7764 35.4913L8.73701 35.4439C4.15803 35.3372 2.75417 29.1356 6.83377 27.0365L7.87836 26.499L7.39573 25.0015C6.86205 23.3455 7.19911 21.5664 8.22156 20.2393C5.67722 16.5813 9.55792 11.7766 13.6695 13.6561L15.6375 14.5557L18.6332 12.3614L14.5772 6.69523L3.00873 15.1689C0.451021 17.0424 -0.619315 20.3633 0.357624 23.3946L6.74914 43.2266ZM18.2854 42.5996L18.282 42.6029L18.279 42.6058C18.2959 42.5874 18.3126 42.5687 18.3289 42.5491C18.3146 42.5664 18.3002 42.5832 18.2854 42.5996Z" fill="white"/>
<path fill-rule="evenodd" clip-rule="evenodd" d="M22.8891 10.668C23.1869 9.47986 24.8753 9.47986 25.1732 10.668L26.9267 17.6643C26.009 17.3902 25.0371 17.243 24.0311 17.243C23.0252 17.243 22.0532 17.3902 21.1355 17.6643L22.8891 10.668ZM33.4653 23.6507C32.7209 21.7989 31.4556 20.216 29.8527 19.0868L36.3891 16.0988C37.5004 15.5908 38.5543 16.903 37.8185 17.8786L33.4653 23.6507ZM34.2065 27.5016C34.2065 27.2805 34.1996 27.0611 34.1859 26.8435L40.6032 30.1454C41.6883 30.7037 41.3119 32.3409 40.092 32.3693L32.8985 32.537C33.7313 31.0495 34.2065 29.3315 34.2065 27.5016ZM25.6549 37.6303C27.6465 37.3083 29.4451 36.4036 30.873 35.0951L32.3077 42.1837C32.5505 43.3834 31.0288 44.111 30.2475 43.1688L25.6549 37.6303ZM17.1892 35.0951C18.6172 36.4036 20.4157 37.3083 22.4074 37.6303L17.8148 43.1688C17.0335 44.111 15.5117 43.3834 15.7545 42.1837L17.1892 35.0951ZM13.8557 27.5016C13.8557 29.3315 14.3309 31.0495 15.1637 32.537L7.97026 32.3693C6.7503 32.3409 6.37394 30.7037 7.45902 30.1454L13.8763 26.8435C13.8626 27.0611 13.8557 27.2805 13.8557 27.5016ZM18.2095 19.0868C16.6066 20.216 15.3414 21.7989 14.5969 23.6507L10.2437 17.8786C9.50789 16.903 10.5618 15.5908 11.6732 16.0988L18.2095 19.0868Z" stroke="white" stroke-width="1.29271" stroke-linejoin="round"/>
<path d="M23.2129 31.0896C23.3147 31.0898 23.3975 31.1723 23.3975 31.2742V34.6667C23.3975 34.7364 23.358 34.8004 23.2959 34.8318C23.2336 34.8632 23.1586 34.8567 23.1025 34.8152C21.9508 33.9623 21.1422 32.7198 20.8242 31.3152C20.8118 31.2604 20.8253 31.2028 20.8604 31.1589C20.8953 31.1152 20.9479 31.0897 21.0039 31.0896H23.2129ZM27.2383 31.0896C27.2944 31.0896 27.3478 31.1151 27.3828 31.1589C27.4177 31.2028 27.4313 31.2605 27.4189 31.3152C27.101 32.72 26.2915 33.9622 25.1396 34.8152C25.0836 34.8566 25.0095 34.8631 24.9473 34.8318C24.885 34.8004 24.8457 34.7365 24.8457 34.6667V31.2742C24.8457 31.1722 24.9283 31.0896 25.0303 31.0896H27.2383ZM19.1055 31.0896L19.165 31.0994C19.2223 31.1191 19.2682 31.1662 19.2842 31.2273C19.4928 32.0318 19.7927 32.8095 20.1777 33.5447C20.2171 33.6198 20.2002 33.713 20.1367 33.7693C20.0732 33.8256 19.9791 33.831 19.9092 33.783C18.9954 33.1548 18.2313 32.3296 17.6729 31.3669C17.6397 31.3098 17.6399 31.2386 17.6729 31.1814C17.7059 31.1244 17.7671 31.0896 17.833 31.0896H19.1055ZM30.4375 31.0896C30.5034 31.0897 30.5647 31.1243 30.5977 31.1814C30.6306 31.2386 30.6298 31.3098 30.5967 31.3669C30.0382 32.3295 29.2741 33.1548 28.3604 33.783C28.2905 33.8308 28.1972 33.8253 28.1338 33.7693C28.0703 33.713 28.0534 33.6199 28.0928 33.5447C28.4778 32.8096 28.7777 32.0317 28.9863 31.2273L29.0107 31.1716C29.0443 31.1212 29.1019 31.0896 29.165 31.0896H30.4375ZM18.7783 25.5867C18.8309 25.5868 18.8811 25.6098 18.916 25.6492C18.9511 25.6887 18.9672 25.7413 18.9609 25.7937C18.8171 26.9973 18.8171 28.2141 18.9609 29.4177C18.9672 29.4701 18.951 29.5228 18.916 29.5623C18.8811 29.6016 18.8309 29.6246 18.7783 29.6248H17.0879C17.0041 29.6248 16.9306 29.5681 16.9092 29.4871C16.5851 28.2544 16.5851 26.9571 16.9092 25.7244L16.9336 25.6687C16.9672 25.6186 17.025 25.5867 17.0879 25.5867H18.7783ZM23.2129 25.5867C23.3147 25.5868 23.3975 25.6703 23.3975 25.7722V29.4402C23.3973 29.542 23.3147 29.6246 23.2129 29.6248H20.6133C20.5213 29.6246 20.4434 29.5567 20.4307 29.4656C20.2592 28.2321 20.2593 26.9803 20.4307 25.7468L20.4512 25.6833C20.4827 25.6255 20.5441 25.5868 20.6133 25.5867H23.2129ZM27.6289 25.5867C27.7211 25.5867 27.7998 25.6555 27.8125 25.7468C27.9839 26.9803 27.9839 28.2321 27.8125 29.4656C27.7997 29.5568 27.721 29.6248 27.6289 29.6248H25.0303C24.9284 29.6248 24.8458 29.5421 24.8457 29.4402V25.7722C24.8457 25.6702 24.9283 25.5867 25.0303 25.5867H27.6289ZM31.1553 25.5867L31.2158 25.5974C31.2725 25.6172 31.3179 25.6638 31.334 25.7244C31.658 26.9571 31.658 28.2544 31.334 29.4871C31.3126 29.5681 31.2391 29.6247 31.1553 29.6248H29.4648C29.412 29.6248 29.3612 29.6018 29.3262 29.5623C29.2913 29.5227 29.2749 29.4701 29.2812 29.4177C29.3546 28.8169 29.3903 28.2116 29.3887 27.6062V27.6052C29.3903 26.9999 29.3546 26.3945 29.2812 25.7937C29.275 25.7414 29.2913 25.6886 29.3262 25.6492C29.3612 25.6096 29.412 25.5867 29.4648 25.5867H31.1553ZM19.8809 21.4294C19.9502 21.3811 20.0435 21.3859 20.1074 21.4412C20.1713 21.4968 20.1898 21.5893 20.1514 21.6648C19.7755 22.4012 19.4843 23.1788 19.2842 23.9822C19.2637 24.0643 19.1901 24.1226 19.1055 24.1228H17.833C17.7671 24.1228 17.7059 24.087 17.6729 24.03C17.64 23.9731 17.6401 23.9025 17.6729 23.8455C18.2233 22.8859 18.9773 22.0608 19.8809 21.4294ZM23.1025 20.3962C23.1586 20.3547 23.2336 20.3483 23.2959 20.3796C23.3581 20.411 23.3975 20.475 23.3975 20.5447V23.9373C23.3975 24.0391 23.3147 24.1226 23.2129 24.1228H21.0039C20.9481 24.1227 20.8953 24.097 20.8604 24.0535C20.8254 24.0097 20.8119 23.9519 20.8242 23.8972C21.1421 22.4924 21.9507 21.2493 23.1025 20.3962ZM24.9473 20.3796C25.0094 20.3485 25.0837 20.3549 25.1396 20.3962C26.2916 21.2493 27.101 22.4923 27.4189 23.8972C27.4312 23.9519 27.4178 24.0097 27.3828 24.0535C27.3478 24.0972 27.2943 24.1228 27.2383 24.1228H25.0303C24.9283 24.1228 24.8457 24.0393 24.8457 23.9373V20.5447C24.8457 20.4749 24.885 20.411 24.9473 20.3796ZM28.1064 21.4431C28.1699 21.3868 28.264 21.3804 28.334 21.4285C29.2478 22.0567 30.0109 22.8828 30.5693 23.8455C30.6024 23.9025 30.6032 23.9729 30.5703 24.03C30.5374 24.0872 30.4761 24.1227 30.4102 24.1228H29.1377C29.0536 24.1228 28.9801 24.0655 28.959 23.9841C28.7504 23.1796 28.4505 22.4019 28.0654 21.6667C28.0261 21.5916 28.043 21.4994 28.1064 21.4431Z" fill="white" stroke="white" stroke-width="0.36937" stroke-linejoin="round"/>
</svg>
