<svg width="62" height="68" viewBox="0 0 62 68" fill="none" xmlns="http://www.w3.org/2000/svg">
<path d="M29.7302 50.9232C30.2413 50.1486 31.3778 50.1486 31.8889 50.9232L39.0183 61.7281C39.1803 61.9737 39.4213 62.1567 39.7013 62.2469L48.3723 65.0385C49.776 65.4904 49.4506 67.5626 47.976 67.5626H13.643C12.1684 67.5626 11.8431 65.4904 13.2467 65.0385L21.9178 62.2469C22.1979 62.1567 22.4388 61.9737 22.6009 61.7281L29.7302 50.9232Z" fill="url(#paint0_linear_87_974)"/>
<path d="M29.7302 16.6393C30.2413 17.4139 31.3778 17.4139 31.8889 16.6393L39.0183 5.83439C39.1803 5.5888 39.4213 5.40582 39.7013 5.31565L48.3723 2.52399C49.776 2.07207 49.4506 -0.000109926 47.976 -0.000109926L13.643 -0.000109926C12.1684 -0.000109926 11.8431 2.07207 13.2467 2.52399L21.9178 5.31565C22.1979 5.40582 22.4388 5.58881 22.6009 5.83439L29.7302 16.6393Z" fill="url(#paint1_linear_87_974)"/>
<path d="M58.0838 18.2112C61.3291 20.6432 62.6283 24.8808 61.3016 28.7063L52.6219 53.7327C51.4741 57.0422 48.5862 59.3901 45.1961 59.9202L42.5672 56.3176C42.8902 56.2504 43.213 56.1809 43.535 56.1067L44.6492 55.8499L45.1199 54.8147C45.5942 53.7722 46.0756 52.4061 46.4637 50.8176L48.5017 51.5862C50.6096 48.2251 54.8334 39.1514 55.5174 28.7366L55.5721 27.8977L55.0701 27.2219C54.4888 26.4394 53.6317 25.5836 52.5047 24.7522C52.356 24.3066 52.1595 23.8769 51.9168 23.4709L52.8738 22.2786C51.0487 20.1378 46.8005 16.1177 41.0057 12.594L44.3953 7.95239L58.0838 18.2112ZM21.0262 12.5354C16.8972 14.9965 11.738 18.7949 7.41288 23.886L6.86698 24.5276V25.3684C6.86699 26.6278 7.16466 28.2582 7.87968 30.0833L5.92167 30.5774C6.13231 34.5328 7.9025 44.3743 13.3465 53.2981L13.785 54.0168L14.5867 54.2844C15.8284 54.6994 17.5498 54.9407 19.6072 54.8215L19.6199 56.1985L17.1394 59.594L16.9822 59.593C12.9172 59.5251 9.36135 56.8605 8.17558 52.9934L0.41874 27.6917C-0.766664 23.8247 0.686422 19.6342 4.01835 17.3118L17.6043 7.84302L21.0262 12.5354ZM41.9969 54.0872C41.8066 54.1264 41.6162 54.1646 41.4256 54.2014C41.6162 54.1646 41.8066 54.1264 41.9969 54.0872ZM42.5789 53.9661C42.4818 53.9874 42.3841 54.0059 42.2869 54.0266C42.5293 53.975 42.7718 53.9231 43.0135 53.8674L42.5789 53.9661Z" fill="url(#paint2_linear_87_974)"/>
<path d="M28.8342 27.4835C30.0243 26.6235 31.6317 26.6235 32.8218 27.4835L36.2864 29.9871C37.486 30.8539 37.988 32.3965 37.5284 33.8033L36.2126 37.8313C35.7552 39.2312 34.4495 40.1783 32.9767 40.1783H28.6793C27.2065 40.1783 25.9008 39.2312 25.4434 37.8313L24.1276 33.8033C23.668 32.3965 24.17 30.8539 25.3696 29.9871L28.8342 27.4835Z" fill="url(#paint3_linear_87_974)"/>
<path d="M41.2046 34.5248C42.9048 37.5704 43.4722 40.851 43.4357 43.8574C43.3944 47.2627 42.578 50.2746 41.8011 52.1088C35.412 53.5143 28.7314 53.4036 24.303 52.9811C36.1759 49.1564 40.3663 40.299 41.2046 34.5248Z" fill="url(#paint4_linear_87_974)"/>
<path d="M10.3735 34.228C16.691 43.7015 26.9749 45.2209 33.2711 44.5899C25.845 51.0898 19.0886 51.2496 16.397 50.4976C12.898 44.6883 11.1333 38.4502 10.3735 34.228Z" fill="url(#paint5_linear_87_974)"/>
<path d="M33.9002 24.3236C43.7439 23.2163 49.3727 26.9239 51.1439 29.0686C50.6519 35.8181 48.4904 41.9333 46.6715 45.8246C46.9713 34.4733 39.4242 27.3849 33.9002 24.3236Z" fill="url(#paint6_linear_87_974)"/>
<path d="M24.4197 15.3181C17.3974 24.2728 19.2166 34.4191 21.8203 40.1354C13.2562 35.228 10.9554 28.9298 10.8164 26.1616C15.2447 21.0243 20.6327 17.3786 24.4197 15.3181Z" fill="url(#paint7_linear_87_974)"/>
<path d="M32.0085 12.7756C38.3377 15.2986 43.5495 19.2022 46.7335 22.1069C35.9218 18.3615 26.809 23.3254 22.1843 27.6067C24.1254 17.9738 29.4071 13.7919 32.0085 12.7756Z" fill="url(#paint8_linear_87_974)"/>
<defs>
<linearGradient id="paint0_linear_87_974" x1="30.8095" y1="49.2874" x2="30.8125" y2="67.5626" gradientUnits="userSpaceOnUse">
<stop stop-color="#003CEC"/>
<stop offset="1" stop-color="#00B0D8"/>
</linearGradient>
<linearGradient id="paint1_linear_87_974" x1="30.8095" y1="18.2751" x2="30.8125" y2="-0.000110123" gradientUnits="userSpaceOnUse">
<stop stop-color="#003CEC"/>
<stop offset="1" stop-color="#00B0D8"/>
</linearGradient>
<linearGradient id="paint2_linear_87_974" x1="30.913" y1="7.84302" x2="30.9333" y2="59.9202" gradientUnits="userSpaceOnUse">
<stop stop-color="#003CEC"/>
<stop offset="1" stop-color="#00B0D8"/>
</linearGradient>
<linearGradient id="paint3_linear_87_974" x1="30.828" y1="26.0427" x2="30.8352" y2="41.6707" gradientUnits="userSpaceOnUse">
<stop stop-color="#003CEC"/>
<stop offset="1" stop-color="#00B0D8"/>
</linearGradient>
<linearGradient id="paint4_linear_87_974" x1="30.7587" y1="12.7756" x2="30.7772" y2="53.2617" gradientUnits="userSpaceOnUse">
<stop stop-color="#003CEC"/>
<stop offset="1" stop-color="#00B0D8"/>
</linearGradient>
<linearGradient id="paint5_linear_87_974" x1="30.7587" y1="12.7756" x2="30.7772" y2="53.2617" gradientUnits="userSpaceOnUse">
<stop stop-color="#003CEC"/>
<stop offset="1" stop-color="#00B0D8"/>
</linearGradient>
<linearGradient id="paint6_linear_87_974" x1="30.7587" y1="12.7756" x2="30.7772" y2="53.2617" gradientUnits="userSpaceOnUse">
<stop stop-color="#003CEC"/>
<stop offset="1" stop-color="#00B0D8"/>
</linearGradient>
<linearGradient id="paint7_linear_87_974" x1="30.7587" y1="12.7756" x2="30.7772" y2="53.2617" gradientUnits="userSpaceOnUse">
<stop stop-color="#003CEC"/>
<stop offset="1" stop-color="#00B0D8"/>
</linearGradient>
<linearGradient id="paint8_linear_87_974" x1="30.7587" y1="12.7756" x2="30.7772" y2="53.2617" gradientUnits="userSpaceOnUse">
<stop stop-color="#003CEC"/>
<stop offset="1" stop-color="#00B0D8"/>
</linearGradient>
</defs>
</svg>
