<svg width="60" height="68" viewBox="0 0 60 68" fill="none" xmlns="http://www.w3.org/2000/svg">
<path fill-rule="evenodd" clip-rule="evenodd" d="M29.77 59.5793C28.4044 59.5793 27.1344 59.1696 26.0763 58.4664C25.3983 58.0158 24.4274 58.0883 23.9808 58.7689L21.9171 61.9134C21.7607 62.1519 21.5274 62.3297 21.2561 62.4176L12.9086 65.1196C11.5516 65.5589 11.8678 67.5623 13.2941 67.5623H46.3449C47.7712 67.5623 48.0873 65.5589 46.7304 65.1196L38.383 62.4176C38.1116 62.3297 37.8784 62.1519 37.7219 61.9134L35.6285 58.7235C35.1782 58.0374 34.1962 57.9698 33.5171 58.4306C32.4485 59.1556 31.1587 59.5793 29.77 59.5793Z" fill="url(#paint0_linear_87_1043)"/>
<path fill-rule="evenodd" clip-rule="evenodd" d="M24.1325 9.02455C24.5714 9.69331 25.5186 9.77614 26.1939 9.34746C27.228 8.6911 28.4546 8.31099 29.77 8.31099C31.1086 8.311 32.3552 8.70459 33.4005 9.38235C34.0771 9.82106 35.0351 9.7429 35.4776 9.06872L37.7219 5.6488C37.8784 5.41036 38.1116 5.23251 38.383 5.14467L46.7304 2.44261C48.0873 2.00336 47.7712 -9.7122e-05 46.3449 -9.7122e-05L13.2941 -9.7122e-05C11.8678 -9.7122e-05 11.5516 2.00336 12.9086 2.44261L21.2561 5.14467C21.5274 5.23251 21.7607 5.41036 21.9171 5.6488L24.1325 9.02455Z" fill="url(#paint1_linear_87_1043)"/>
<path fill-rule="evenodd" clip-rule="evenodd" d="M38.7122 52.1814H36.414H36.3736L36.4206 52.2463L41.5537 59.3394C45.4686 59.3394 49.9503 56.8185 51.1602 53.0952L59.075 28.7356C60.2848 25.0122 58.9595 20.9332 55.7923 18.632L41.362 8.14795L36.4518 14.9519L36.3173 15.1382L36.4477 15.233L38.2022 16.5077C39.4273 15.0984 41.2332 14.2074 43.2471 14.2074C46.9374 14.2074 49.9291 17.1991 49.9291 20.8894C49.9291 22.192 49.5564 23.4076 48.9117 24.4352C49.5844 25.1592 50.0703 26.0227 50.3449 26.95C53.4619 27.5159 55.8257 30.2441 55.8257 33.5244C55.8257 37.2147 52.834 40.2064 49.1437 40.2064C48.5016 40.2064 47.8811 40.1158 47.294 39.9469L46.9469 41.015C48.7446 42.2126 49.9291 44.258 49.9291 46.5801C49.9291 50.2704 46.9374 53.2621 43.2471 53.2621C41.8687 53.2621 40.5878 52.8447 39.5238 52.1295C39.2572 52.1638 38.9863 52.1814 38.7122 52.1814Z" fill="url(#paint2_linear_87_1043)"/>
<path fill-rule="evenodd" clip-rule="evenodd" d="M8.3577 53.0952C9.56755 56.8185 13.8901 59.3394 17.8051 59.3394L22.9851 52.1814H20.7416C20.6188 52.1814 20.4966 52.1778 20.3751 52.1708C19.3236 52.8608 18.0658 53.2621 16.7142 53.2621C13.0238 53.2621 10.0322 50.2704 10.0322 46.5801C10.0322 44.4399 11.0383 42.5348 12.6033 41.3118L12.2209 40.1348C11.9008 40.182 11.5731 40.2064 11.2397 40.2064C7.54928 40.2064 4.55766 37.2147 4.55762 33.5244C4.55762 30.6058 6.42881 28.1242 9.03695 27.2139C9.32922 26.0443 9.95314 24.9627 10.8612 24.1155C10.3329 23.1591 10.0322 22.0594 10.0322 20.8894C10.0322 17.1991 13.0239 14.2074 16.7142 14.2074C18.6202 14.2074 20.3399 15.0055 21.5572 16.2857L23.0743 15.1835L18.0516 8.22373L3.7258 18.632C0.55855 20.9332 -0.766907 25.0122 0.442889 28.7356L8.3577 53.0952Z" fill="url(#paint3_linear_87_1043)"/>
<circle cx="16.7139" cy="20.8892" r="4.00102" fill="url(#paint4_linear_87_1043)"/>
<circle cx="43.2491" cy="20.8892" r="4.00102" fill="url(#paint5_linear_87_1043)"/>
<circle cx="43.2491" cy="46.5799" r="4.00102" fill="url(#paint6_linear_87_1043)"/>
<circle cx="16.7139" cy="46.5799" r="4.00102" fill="url(#paint7_linear_87_1043)"/>
<circle cx="11.2393" cy="33.5242" r="4.00102" fill="url(#paint8_linear_87_1043)"/>
<circle cx="49.1446" cy="33.5242" r="4.00102" fill="url(#paint9_linear_87_1043)"/>
<circle cx="29.7696" cy="14.993" r="4.00102" fill="url(#paint10_linear_87_1043)"/>
<circle cx="29.7696" cy="52.8973" r="4.00102" fill="url(#paint11_linear_87_1043)"/>
<path d="M39.4756 31.531C42.4645 32.2041 44.0842 32.1697 47.0107 31.531V35.8009C43.9829 34.6418 42.3488 34.7774 39.4756 35.8009V31.531Z" fill="url(#paint12_linear_87_1043)"/>
<path d="M12.9292 31.5308C15.9181 32.2038 17.5378 32.1695 20.4643 31.5308V35.8006C17.4365 34.6415 15.8024 34.7772 12.9292 35.8006V31.5308Z" fill="url(#paint13_linear_87_1043)"/>
<path d="M27.6748 24.4868C28.3479 21.4979 28.3135 19.8782 27.6748 16.9517H31.9447C30.7856 19.9795 30.9212 21.6136 31.9447 24.4868H27.6748Z" fill="url(#paint14_linear_87_1043)"/>
<path d="M22.8232 30.0833C21.2088 27.4794 20.0492 26.348 17.5428 24.7079L20.5888 21.7157C21.8837 24.6878 23.1256 25.7585 25.8693 27.091L22.8232 30.0833Z" fill="url(#paint15_linear_87_1043)"/>
<path d="M39.5454 45.855C37.8686 43.1876 36.6751 42.0217 34.1075 40.3194L37.1535 37.3271C38.5117 40.3637 39.7878 41.4691 42.5914 42.8627L39.5454 45.855Z" fill="url(#paint16_linear_87_1043)"/>
<path d="M16.9497 43.3921C19.6687 41.8002 20.8716 40.6441 22.654 38.1315L25.5487 41.2704C22.4708 42.5321 21.3257 43.7727 19.8444 46.531L16.9497 43.3921Z" fill="url(#paint17_linear_87_1043)"/>
<path d="M34.6465 26.2339C37.3655 24.642 38.5684 23.4859 40.3508 20.9733L43.2455 24.1122C40.1676 25.3739 39.0225 26.6145 37.5412 29.3728L34.6465 26.2339Z" fill="url(#paint18_linear_87_1043)"/>
<path d="M27.6748 51.0283C28.3479 48.0395 28.3135 46.4197 27.6748 43.4933H31.9447C30.7856 46.521 30.9212 48.1551 31.9447 51.0283H27.6748Z" fill="url(#paint19_linear_87_1043)"/>
<path d="M41.3997 33.0154C41.9232 33.5389 41.9232 34.3877 41.3997 34.9112L30.4898 45.8211C29.9663 46.3446 29.1175 46.3446 28.594 45.8211L17.6841 34.9112C17.1606 34.3877 17.1606 33.5389 17.6841 33.0154L28.594 22.1055C29.1175 21.582 29.9663 21.582 30.4898 22.1055L41.3997 33.0154ZM22.0416 33.0154C21.5181 33.5389 21.5181 34.3877 22.0417 34.9112L28.594 41.4628C29.1175 41.9863 29.9663 41.9862 30.4897 41.4628L37.0414 34.9111C37.5648 34.3876 37.5649 33.5389 37.0414 33.0154L30.4898 26.463C29.9663 25.9395 29.1175 25.9395 28.594 26.463L22.0416 33.0154Z" fill="url(#paint20_linear_87_1043)"/>
<defs>
<linearGradient id="paint0_linear_87_1043" x1="29.8194" y1="57.3662" x2="29.8204" y2="67.5623" gradientUnits="userSpaceOnUse">
<stop stop-color="#003CEC"/>
<stop offset="1" stop-color="#00B0D8"/>
</linearGradient>
<linearGradient id="paint1_linear_87_1043" x1="29.8194" y1="10.3879" x2="29.8204" y2="-9.71751e-05" gradientUnits="userSpaceOnUse">
<stop stop-color="#003CEC"/>
<stop offset="1" stop-color="#00B0D8"/>
</linearGradient>
<linearGradient id="paint2_linear_87_1043" x1="29.759" y1="8.14795" x2="29.7793" y2="59.3394" gradientUnits="userSpaceOnUse">
<stop stop-color="#003CEC"/>
<stop offset="1" stop-color="#00B0D8"/>
</linearGradient>
<linearGradient id="paint3_linear_87_1043" x1="29.759" y1="8.14795" x2="29.7793" y2="59.3394" gradientUnits="userSpaceOnUse">
<stop stop-color="#003CEC"/>
<stop offset="1" stop-color="#00B0D8"/>
</linearGradient>
<linearGradient id="paint4_linear_87_1043" x1="16.7139" y1="16.8882" x2="16.7176" y2="24.8902" gradientUnits="userSpaceOnUse">
<stop stop-color="#003CEC"/>
<stop offset="1" stop-color="#00B0D8"/>
</linearGradient>
<linearGradient id="paint5_linear_87_1043" x1="43.2491" y1="16.8882" x2="43.2528" y2="24.8902" gradientUnits="userSpaceOnUse">
<stop stop-color="#003CEC"/>
<stop offset="1" stop-color="#00B0D8"/>
</linearGradient>
<linearGradient id="paint6_linear_87_1043" x1="43.2491" y1="42.5789" x2="43.2528" y2="50.5809" gradientUnits="userSpaceOnUse">
<stop stop-color="#003CEC"/>
<stop offset="1" stop-color="#00B0D8"/>
</linearGradient>
<linearGradient id="paint7_linear_87_1043" x1="16.7139" y1="42.5789" x2="16.7176" y2="50.5809" gradientUnits="userSpaceOnUse">
<stop stop-color="#003CEC"/>
<stop offset="1" stop-color="#00B0D8"/>
</linearGradient>
<linearGradient id="paint8_linear_87_1043" x1="11.2393" y1="29.5232" x2="11.243" y2="37.5252" gradientUnits="userSpaceOnUse">
<stop stop-color="#003CEC"/>
<stop offset="1" stop-color="#00B0D8"/>
</linearGradient>
<linearGradient id="paint9_linear_87_1043" x1="49.1446" y1="29.5232" x2="49.1483" y2="37.5252" gradientUnits="userSpaceOnUse">
<stop stop-color="#003CEC"/>
<stop offset="1" stop-color="#00B0D8"/>
</linearGradient>
<linearGradient id="paint10_linear_87_1043" x1="29.7696" y1="10.9919" x2="29.7733" y2="18.994" gradientUnits="userSpaceOnUse">
<stop stop-color="#003CEC"/>
<stop offset="1" stop-color="#00B0D8"/>
</linearGradient>
<linearGradient id="paint11_linear_87_1043" x1="29.7696" y1="48.8962" x2="29.7733" y2="56.8983" gradientUnits="userSpaceOnUse">
<stop stop-color="#003CEC"/>
<stop offset="1" stop-color="#00B0D8"/>
</linearGradient>
<linearGradient id="paint12_linear_87_1043" x1="43.2431" y1="31.531" x2="43.2442" y2="35.8009" gradientUnits="userSpaceOnUse">
<stop stop-color="#003CEC"/>
<stop offset="1" stop-color="#00B0D8"/>
</linearGradient>
<linearGradient id="paint13_linear_87_1043" x1="16.6967" y1="31.5308" x2="16.6978" y2="35.8006" gradientUnits="userSpaceOnUse">
<stop stop-color="#003CEC"/>
<stop offset="1" stop-color="#00B0D8"/>
</linearGradient>
<linearGradient id="paint14_linear_87_1043" x1="27.6748" y1="20.7193" x2="31.9447" y2="20.7182" gradientUnits="userSpaceOnUse">
<stop stop-color="#003CEC"/>
<stop offset="1" stop-color="#00B0D8"/>
</linearGradient>
<linearGradient id="paint15_linear_87_1043" x1="20.183" y1="27.3956" x2="23.2283" y2="24.4025" gradientUnits="userSpaceOnUse">
<stop stop-color="#003CEC"/>
<stop offset="1" stop-color="#00B0D8"/>
</linearGradient>
<linearGradient id="paint16_linear_87_1043" x1="36.8265" y1="43.0872" x2="39.8717" y2="40.0942" gradientUnits="userSpaceOnUse">
<stop stop-color="#003CEC"/>
<stop offset="1" stop-color="#00B0D8"/>
</linearGradient>
<linearGradient id="paint17_linear_87_1043" x1="19.8019" y1="40.7618" x2="22.6974" y2="43.8999" gradientUnits="userSpaceOnUse">
<stop stop-color="#003CEC"/>
<stop offset="1" stop-color="#00B0D8"/>
</linearGradient>
<linearGradient id="paint18_linear_87_1043" x1="37.4987" y1="23.6036" x2="40.3941" y2="26.7417" gradientUnits="userSpaceOnUse">
<stop stop-color="#003CEC"/>
<stop offset="1" stop-color="#00B0D8"/>
</linearGradient>
<linearGradient id="paint19_linear_87_1043" x1="27.6748" y1="47.2608" x2="31.9447" y2="47.2597" gradientUnits="userSpaceOnUse">
<stop stop-color="#003CEC"/>
<stop offset="1" stop-color="#00B0D8"/>
</linearGradient>
<linearGradient id="paint20_linear_87_1043" x1="29.5418" y1="21.7129" x2="29.5531" y2="46.2135" gradientUnits="userSpaceOnUse">
<stop stop-color="#003CEC"/>
<stop offset="1" stop-color="#00B0D8"/>
</linearGradient>
</defs>
</svg>
