<svg width="148" height="47" viewBox="0 0 148 47" fill="none" xmlns="http://www.w3.org/2000/svg">
<path d="M69.2856 35.0322H65.1545L67.6967 20.5734L61.214 35.0322H56.8287L55.4623 20.6369L52.9201 35.0322H48.8207L52.5387 13.9318H58.8943L59.9747 29.4076L66.5209 13.9318H73.0036L69.2856 35.0322ZM79.8457 29.0898L79.8775 27.3738C79.4644 27.7869 78.7335 28.0094 77.2082 28.2954C74.8566 28.7402 74.0939 29.4076 74.0939 30.7422C74.0939 31.918 74.793 32.49 76.0959 32.49C78.225 32.49 79.8139 30.9329 79.8457 29.0898ZM84.0086 35.0322H80.1635C80.0364 34.6509 79.941 34.1107 79.9093 33.634C78.9242 34.7144 77.2717 35.4453 75.1744 35.4453C71.6153 35.4453 69.9628 33.6976 69.9628 31.1553C69.9628 26.6429 72.9817 26.1345 77.1446 25.5625C79.2101 25.2765 79.7821 24.8634 79.7821 23.7829C79.7821 22.766 78.7653 22.1623 77.1446 22.1623C75.2697 22.1623 74.507 23.0838 74.3164 24.482H70.4713C70.5348 21.2407 72.3144 18.9845 77.3353 18.9845C82.2926 18.9845 84.0086 21.2089 84.0086 25.1494V35.0322ZM99.3676 35.0322H95.2048V25.5625C95.2048 23.1474 94.5057 22.48 92.5354 22.48C90.3746 22.48 89.3259 23.6876 89.3259 26.0709V35.0322H85.1948V19.3976H89.1352V21.6856C90.0886 19.9378 91.6774 18.9845 94.1879 18.9845C97.175 18.9845 99.3676 20.7958 99.3676 24.196V35.0322ZM111.06 29.0898L111.377 27.3738C110.901 27.7869 110.138 28.0094 108.549 28.2954C105.594 28.8356 104.99 29.63 104.99 31.0918C104.99 32.0769 105.753 32.49 106.833 32.49C108.835 32.49 110.71 30.9329 111.06 29.0898ZM114.174 35.0322H110.329C110.297 34.8416 110.265 34.6191 110.265 34.3649C110.265 34.1425 110.297 33.8882 110.329 33.634C109.153 34.7144 107.373 35.4453 105.276 35.4453C102.162 35.4453 100.732 34.0153 100.732 31.8862C100.732 27.2467 104.005 26.2298 108.994 25.5625C111.822 25.1811 111.949 24.6409 111.949 23.7829C111.949 22.4483 111.06 22.1623 109.566 22.1623C107.691 22.1623 106.77 23.0838 106.357 24.482H102.511C103.147 21.2407 105.308 18.9845 110.329 18.9845C114.492 18.9845 116.08 20.5416 116.08 23.3698C116.08 23.9418 116.017 24.5138 115.922 25.1494L114.174 35.0322ZM123.4 31.918C125.72 31.918 127.88 29.7889 127.88 26.0709C127.88 23.624 126.927 22.5754 125.052 22.5754C122.033 22.5754 120.572 24.9587 120.572 28.3271C120.572 30.9647 121.684 31.918 123.4 31.918ZM126.164 35.5089L126.641 32.9349C125.815 34.3331 123.972 35.1593 121.938 35.1593C117.712 35.1593 116.25 32.204 116.25 28.8991C116.25 23.0203 120.381 18.9845 124.703 18.9845C126.673 18.9845 127.976 19.7471 128.675 21.336L129.024 19.3976H133.156L130.359 35.1911C129.533 39.8942 125.656 42.4364 121.302 42.4364C117.394 42.4364 114.756 40.4344 114.756 37.0978C114.756 36.7164 114.82 36.3033 114.883 35.8902H118.728C118.697 36.1127 118.697 36.3033 118.697 36.494C118.697 38.1782 119.777 38.8773 121.652 38.8773C123.876 38.8773 125.783 37.5744 126.164 35.5089ZM147.305 28.2954H136.501V29.0262C136.501 31.2507 137.55 32.1722 139.361 32.1722C140.696 32.1722 141.998 31.5049 142.475 30.4245H146.733C145.208 33.634 142.316 35.4453 138.98 35.4453C134.594 35.4453 132.402 33.2209 132.402 28.9945C132.402 22.9567 136.024 18.9845 141.617 18.9845C145.558 18.9845 147.591 21.0818 147.591 25.2447C147.591 26.1662 147.496 27.1831 147.305 28.2954ZM136.978 25.6896H143.524C143.587 25.34 143.587 25.0222 143.587 24.7362C143.587 22.7343 142.316 22.2576 140.918 22.2576C138.821 22.2576 137.581 23.7511 136.978 25.6896Z" fill="white"/>
<path fill-rule="evenodd" clip-rule="evenodd" d="M20.7098 41.4465C19.7597 41.4465 18.8763 41.1615 18.1402 40.6723C17.6686 40.3589 16.9932 40.4093 16.6824 40.8828L15.2469 43.0703C15.138 43.2361 14.9758 43.3599 14.787 43.421L8.98005 45.3007C8.03607 45.6062 8.25603 46.9999 9.24823 46.9999H32.2401C33.2323 46.9999 33.4522 45.6062 32.5083 45.3007L26.7014 43.421C26.5126 43.3599 26.3504 43.2361 26.2415 43.0703L24.7852 40.8512C24.472 40.3739 23.7888 40.3269 23.3164 40.6474C22.573 41.1518 21.6758 41.4465 20.7098 41.4465Z" fill="white"/>
<path fill-rule="evenodd" clip-rule="evenodd" d="M16.788 6.27812C17.0933 6.74334 17.7522 6.80097 18.222 6.50275C18.9414 6.04615 19.7947 5.78173 20.7098 5.78173C21.6409 5.78174 22.5081 6.05554 23.2353 6.52702C23.706 6.83221 24.3724 6.77784 24.6802 6.30884L26.2415 3.92977C26.3504 3.7639 26.5126 3.64017 26.7014 3.57907L32.5083 1.69937C33.4522 1.39381 33.2323 0.000102148 32.2401 0.000102148L9.24822 0.000102148C8.25603 0.000102148 8.03608 1.39381 8.98005 1.69937L14.787 3.57907C14.9758 3.64017 15.138 3.7639 15.2469 3.92977L16.788 6.27812Z" fill="white"/>
<path fill-rule="evenodd" clip-rule="evenodd" d="M26.9302 36.3002H25.3315H25.3034L25.3361 36.3453L28.9069 41.2797C31.6303 41.2797 34.7481 39.526 35.5897 36.9359L41.0957 19.9901C41.9372 17.3999 41.0153 14.5623 38.812 12.9614L28.7735 5.66821L25.3578 10.4014L25.2642 10.531L25.3549 10.5969L26.5754 11.4837C27.4277 10.5033 28.6839 9.88348 30.0849 9.88348C32.6521 9.88351 34.7333 11.9646 34.7333 14.5319C34.7333 15.438 34.474 16.2836 34.0256 16.9985C34.4935 17.5021 34.8315 18.1028 35.0225 18.7479C37.1909 19.1416 38.8353 21.0394 38.8353 23.3214C38.8353 25.8886 36.7541 27.9697 34.1869 27.9698C33.7403 27.9698 33.3086 27.9067 32.9002 27.7892L32.6587 28.5322C33.9093 29.3653 34.7333 30.7882 34.7333 32.4036C34.7333 34.9708 32.6521 37.0519 30.0849 37.052C29.1261 37.052 28.235 36.7616 27.4948 36.2641C27.3094 36.2879 27.1209 36.3002 26.9302 36.3002Z" fill="white"/>
<path fill-rule="evenodd" clip-rule="evenodd" d="M5.81405 36.9359C6.65569 39.526 9.66271 41.2796 12.3861 41.2797L15.9896 36.3002H14.429C14.3435 36.3002 14.2585 36.2977 14.174 36.2928C13.4425 36.7728 12.5675 37.052 11.6273 37.052C9.06006 37.052 6.97893 34.9708 6.9789 32.4036C6.9789 30.9148 7.67881 29.5895 8.76754 28.7387L8.50151 27.92C8.27879 27.9528 8.05087 27.9698 7.8189 27.9698C5.25167 27.9698 3.17054 25.8886 3.17052 23.3214C3.17052 21.2911 4.47222 19.5648 6.28657 18.9315C6.48989 18.1178 6.92393 17.3654 7.55559 16.7761C7.18808 16.1107 6.97891 15.3457 6.9789 14.5319C6.9789 11.9646 9.06007 9.88348 11.6273 9.88348C12.9532 9.8835 14.1495 10.4387 14.9963 11.3292L16.0517 10.5625L12.5576 5.72093L2.59186 12.9614C0.388556 14.5623 -0.5335 17.3999 0.308097 19.9901L5.81405 36.9359Z" fill="white"/>
<circle cx="11.6271" cy="14.5316" r="2.78332" fill="white"/>
<circle cx="30.0861" cy="14.5316" r="2.78332" fill="white"/>
<circle cx="30.0861" cy="32.4034" r="2.78332" fill="white"/>
<circle cx="11.6271" cy="32.4034" r="2.78332" fill="white"/>
<circle cx="7.81847" cy="23.3212" r="2.78332" fill="white"/>
<circle cx="34.1876" cy="23.3212" r="2.78332" fill="white"/>
<circle cx="20.7091" cy="10.4298" r="2.78332" fill="white"/>
<circle cx="20.7091" cy="36.798" r="2.78332" fill="white"/>
<path d="M27.4609 21.9346C29.5402 22.4028 30.6669 22.3789 32.7027 21.9346V24.9049C30.5965 24.0986 29.4597 24.1929 27.4609 24.9049V21.9346Z" fill="white"/>
<path d="M8.99414 21.9343C11.0734 22.4025 12.2001 22.3787 14.2359 21.9343V24.9047C12.1297 24.0983 10.9929 24.1927 8.99414 24.9047V21.9343Z" fill="white"/>
<path d="M19.252 17.0342C19.7202 14.955 19.6963 13.8282 19.252 11.7924H22.2223C21.416 13.8986 21.5103 15.0354 22.2223 17.0342H19.252Z" fill="white"/>
<path d="M15.877 20.9272C14.7539 19.1159 13.9472 18.3288 12.2036 17.1879L14.3226 15.1063C15.2234 17.1739 16.0873 17.9187 17.9959 18.8457L15.877 20.9272Z" fill="white"/>
<path d="M27.5098 31.8989C26.3433 30.0433 25.513 29.2323 23.7269 28.0481L25.8459 25.9665C26.7907 28.0789 27.6784 28.8479 29.6287 29.8174L27.5098 31.8989Z" fill="white"/>
<path d="M11.791 30.1858C13.6825 29.0784 14.5193 28.2742 15.7593 26.5262L17.773 28.7098C15.6318 29.5875 14.8352 30.4505 13.8047 32.3694L11.791 30.1858Z" fill="white"/>
<path d="M24.1016 18.2495C25.993 17.1421 26.8299 16.3379 28.0698 14.59L30.0835 16.7735C27.9424 17.6513 27.1457 18.5143 26.1153 20.4331L24.1016 18.2495Z" fill="white"/>
<path d="M19.252 35.498C19.7202 33.4188 19.6963 32.292 19.252 30.2563H22.2223C21.416 32.3625 21.5103 33.4993 22.2223 35.498H19.252Z" fill="white"/>
<path d="M28.7996 22.9673C29.1637 23.3315 29.1637 23.9219 28.7996 24.2861L21.2101 31.8755C20.846 32.2397 20.2555 32.2397 19.8914 31.8755L12.3019 24.2861C11.9378 23.9219 11.9378 23.3315 12.3019 22.9673L19.8914 15.3779C20.2555 15.0137 20.846 15.0137 21.2101 15.3779L28.7996 22.9673ZM15.3341 22.9673C14.9699 23.3315 14.97 23.9219 15.3341 24.286L19.8914 28.8433C20.2556 29.2075 20.846 29.2075 21.2101 28.8434L25.7682 24.2861C26.1324 23.9219 26.1325 23.3314 25.7683 22.9672L21.2102 18.4092C20.846 18.045 20.2555 18.045 19.8914 18.4092L15.3341 22.9673Z" fill="white"/>
</svg>
