<svg width="136" height="47" viewBox="0 0 136 47" fill="none" xmlns="http://www.w3.org/2000/svg">
<path d="M61.5627 9.15439H58.2126C58.0349 7.42855 56.9943 6.59101 54.8624 6.59101C52.8828 6.59101 51.8422 7.30165 51.8422 8.57065C51.8422 9.63661 52.5782 10.2457 54.4563 10.7026C56.3598 11.1594 58.2126 11.6162 59.4562 12.1746C60.9282 12.8345 62.0957 13.8751 62.0957 16.2608C62.0957 19.9663 59.3039 21.616 55.37 21.616C51.2077 21.616 48.3144 19.7632 48.2382 15.9816H51.6391C51.6899 17.7074 53.1366 18.7734 55.3954 18.7734C57.4765 18.7734 58.6694 17.8851 58.6694 16.3877C58.6694 15.3979 58.1618 14.7126 56.0553 14.2558C53.9741 13.7989 52.629 13.4944 51.4361 12.9614C49.6341 12.1492 48.6189 10.931 48.6189 8.79907C48.6189 5.77885 50.6747 3.62155 54.7863 3.62155C59.0501 3.62155 61.4358 5.93113 61.5627 9.15439ZM69.6203 16.0577V12.8091H72.6913V16.3623C72.6913 19.0018 71.1685 21.3622 67.6406 21.3622C63.9859 21.3622 62.5393 19.0272 62.5393 16.3369V5.16973H65.7879V8.54527H72.6913V10.8802H65.7879V16.007C65.7879 17.5805 66.3463 18.4942 67.6914 18.4942C69.0112 18.4942 69.6203 17.6059 69.6203 16.0577ZM84.7753 21.0322H81.6536V19.281C80.7906 20.7023 79.4963 21.3622 77.7704 21.3622C75.2832 21.3622 73.532 19.5094 73.532 16.7684V8.54527H76.8314V16.2608C76.8314 17.8343 77.542 18.5957 78.9379 18.5957C80.613 18.5957 81.5013 17.4029 81.5013 15.7532V8.54527H84.7753V21.0322ZM92.034 18.6719C93.8613 18.6719 95.6126 16.8191 95.6126 13.8751C95.6126 11.6162 94.8765 11.0325 93.4045 11.0325C90.8411 11.0325 89.8005 13.0883 89.8005 15.7024C89.8005 17.7074 90.6635 18.6719 92.034 18.6719ZM97.5414 21.0322H94.3689L94.6227 19.5094C93.6075 20.7784 92.3385 21.3622 90.8157 21.3622C88.1255 21.3622 86.425 19.4079 86.425 16.1339C86.425 11.7178 89.0138 8.21533 92.8461 8.21533C94.3943 8.21533 95.511 8.84983 96.1963 10.1696L97.2876 3.97687H100.536L97.5414 21.0322ZM111.055 15.6517H102.426V16.2354C102.426 18.012 103.263 18.748 104.71 18.748C105.776 18.748 106.816 18.215 107.197 17.3521H110.598C109.38 19.9155 107.07 21.3622 104.405 21.3622C100.903 21.3622 99.1515 19.5856 99.1515 16.21C99.1515 11.3878 102.045 8.21533 106.512 8.21533C109.659 8.21533 111.283 9.89041 111.283 13.2152C111.283 13.9512 111.207 14.7634 111.055 15.6517ZM102.806 13.5705H108.034C108.085 13.2913 108.085 13.0375 108.085 12.8091C108.085 11.2102 107.07 10.8295 105.953 10.8295C104.278 10.8295 103.288 12.0223 102.806 13.5705ZM122.068 21.0322H118.743L120.088 13.469C120.164 13.0629 120.19 12.7076 120.19 12.403C120.19 11.2863 119.631 11.0071 118.388 11.0071C116.662 11.0071 115.647 11.9716 115.317 13.8751L114.048 21.0322H110.748L112.956 8.54527H116.104L115.774 10.3726C116.789 8.97673 118.185 8.21533 120.19 8.21533C122.271 8.21533 123.667 9.33205 123.667 11.4132C123.667 11.7178 123.641 12.0477 123.591 12.3776L122.068 21.0322ZM134.604 12.8091L133.969 16.3623C133.487 19.0018 131.584 21.3622 128.056 21.3622C124.959 21.3622 123.741 19.6871 123.741 17.5298C123.741 17.1491 123.767 16.743 123.843 16.3369L125.797 5.16973H129.046L128.462 8.54527H135.365L134.959 10.8802H128.056L127.142 16.007C127.066 16.3877 127.041 16.7176 127.041 16.9968C127.041 18.0881 127.548 18.4942 128.614 18.4942C129.883 18.4942 130.695 17.6059 130.974 16.0577L131.533 12.8091H134.604ZM64.9129 44.0322H61.512L60.8267 33.0681L56.2329 44.0322H52.9335L51.1315 27.1799H54.7863L55.6238 38.0933L59.8876 27.1799H63.5931L64.2276 38.0933L68.8975 27.1799H72.603L64.9129 44.0322ZM80.5055 38.6517H71.8763V39.2354C71.8763 41.012 72.7139 41.748 74.1605 41.748C75.2265 41.748 76.2671 41.215 76.6478 40.3521H80.0487C78.8304 42.9155 76.5209 44.3622 73.856 44.3622C70.3535 44.3622 68.6023 42.5856 68.6023 39.21C68.6023 34.3878 71.4956 31.2153 75.9625 31.2153C79.1096 31.2153 80.7339 32.8904 80.7339 36.2152C80.7339 36.9512 80.6578 37.7634 80.5055 38.6517ZM72.257 36.5705H77.4853C77.5361 36.2913 77.5361 36.0375 77.5361 35.8091C77.5361 34.2102 76.5209 33.8295 75.4041 33.8295C73.7291 33.8295 72.7392 35.0223 72.257 36.5705ZM83.4986 44.0322H80.1992V26.9769H83.4986V44.0322ZM88.919 44.0322H85.6703V33.8802H83.8176V31.5453H85.6703C85.6703 28.4997 87.4216 26.9769 90.9748 26.9769V29.6418C89.2997 29.6418 88.919 30.0986 88.919 31.5453H91.0509V33.8802H88.919V44.0322ZM98.2971 39.2862L98.3225 37.9156C97.9925 38.2456 97.4088 38.4232 96.1906 38.6517C94.3124 39.007 93.7033 39.54 93.7033 40.6059C93.7033 41.545 94.2617 42.0018 95.3023 42.0018C97.0027 42.0018 98.2717 40.7582 98.2971 39.2862ZM101.622 44.0322H98.5509C98.4494 43.7277 98.3732 43.2962 98.3479 42.9155C97.5611 43.7784 96.2413 44.3622 94.5662 44.3622C91.7237 44.3622 90.4039 42.9663 90.4039 40.9359C90.4039 37.3319 92.815 36.9258 96.1398 36.469C97.7895 36.2406 98.2463 35.9106 98.2463 35.0477C98.2463 34.2355 97.4342 33.7533 96.1398 33.7533C94.6424 33.7533 94.0333 34.4893 93.881 35.6061H90.81C90.8608 33.0173 92.282 31.2153 96.2921 31.2153C100.251 31.2153 101.622 32.9919 101.622 36.139V44.0322ZM105.869 44.0322H102.569V31.5453H105.666V33.0427C106.757 31.3676 108.026 31.2153 109.371 31.2153H109.803V34.5909C109.498 34.5401 109.193 34.5147 108.889 34.5147C106.858 34.5147 105.869 35.5299 105.869 37.5349V44.0322ZM112.569 36.5705H117.671C117.62 34.7178 116.402 33.8295 115.107 33.8295C113.788 33.8295 112.696 34.8447 112.569 36.5705ZM121.072 38.6517H112.468C112.569 40.5298 113.635 41.748 115.26 41.748C116.326 41.748 117.265 41.215 117.493 40.3521H120.894C120.133 42.9155 118.077 44.3622 115.412 44.3622C111.25 44.3622 109.168 42.078 109.168 37.5603C109.168 33.7026 111.377 31.2153 115.209 31.2153C119.041 31.2153 121.072 33.7026 121.072 38.6517Z" fill="white"/>
<path d="M11.6036 6.41464C12.1301 6.03223 12.8671 6.14974 13.2481 6.67733L15.3653 9.6119C15.7444 10.1373 15.6276 10.8706 15.1036 11.2515L7.97367 16.4312C6.74292 17.3255 6.08342 18.7701 6.16312 20.2389C5.93786 20.2475 5.71899 20.2641 5.52543 20.3033C4.86444 20.441 4.25731 20.7678 3.77836 21.2437C3.13475 21.8981 2.77953 22.783 2.793 23.7008C2.80068 24.6103 3.17266 25.4793 3.82523 26.1129C4.29844 26.5734 4.89525 26.8872 5.543 27.0152C6.00491 27.1065 6.69273 27.0863 7.17582 27.0865H8.2305L10.2344 33.2525C10.825 35.0695 12.5182 36.3003 14.4287 36.3004C15.0793 36.3004 15.4556 37.037 15.0743 37.564L12.7383 40.7926C12.5172 41.0982 12.1618 41.2858 11.7862 41.2515C9.23547 41.0187 6.59489 39.3369 5.81449 36.9361L0.308629 19.9898C-0.532909 17.3997 0.388648 14.5623 2.59183 12.9615L11.6036 6.41464ZM28.083 6.6246C28.464 6.09703 29.201 5.97948 29.7276 6.3619L38.8116 12.9615C41.0148 14.5623 41.9372 17.3998 41.0957 19.9898L35.5899 36.9361C34.8093 39.3376 32.0712 41.0195 29.5059 41.2515C29.1303 41.2854 28.7758 41.0981 28.5547 40.7926L26.2569 37.6178C25.8596 37.0685 26.2519 36.3007 26.9297 36.3004C28.8404 36.3004 30.5345 35.0697 31.125 33.2525L33.1289 27.0855H34.1368C35.5204 27.0855 36.5408 27.1432 37.6114 26.0777C38.2574 25.4406 38.6196 24.57 38.6143 23.6627C38.6226 22.7507 38.2609 21.874 37.6123 21.233C37.1255 20.7513 36.5069 20.4233 35.835 20.2906C35.6641 20.257 35.4344 20.2434 35.1944 20.2369C35.2734 18.7688 34.616 17.3251 33.3858 16.4312L26.2129 11.2203C25.6887 10.8394 25.5711 10.1061 25.9502 9.58065L28.083 6.6246Z" fill="white"/>
<path d="M17.5327 39.4648C17.6786 39.8325 17.9035 40.1894 18.2544 40.5469C18.8988 41.1966 19.7739 41.5658 20.689 41.5732C20.7755 41.5737 20.8644 41.5682 20.9507 41.5635C21.9745 41.4344 22.7714 41.0651 23.4185 40.2295C23.5865 40.0118 23.7246 39.7741 23.8345 39.5244L26.1616 43.0703C26.2705 43.2361 26.4329 43.3598 26.6216 43.4209L32.4282 45.3008C33.3717 45.6065 33.1523 46.9995 32.1606 47H9.16846C8.17656 46.9997 7.95702 45.6063 8.90088 45.3008L14.7075 43.4209C14.8961 43.3598 15.0587 43.2361 15.1675 43.0703L17.5327 39.4648ZM32.1606 0C33.1523 0.000490229 33.3717 1.39353 32.4282 1.69922L26.6216 3.5791C26.433 3.64021 26.2704 3.76394 26.1616 3.92969L23.7476 7.60742C23.5853 7.28985 23.3749 6.99698 23.1187 6.74316C22.4593 6.0868 21.4425 5.66151 20.5054 5.74902C19.6056 5.80863 18.7443 6.20174 18.145 6.88184C17.9343 7.11992 17.758 7.38448 17.6206 7.66797L15.1675 3.92969C15.0587 3.7639 14.8962 3.64023 14.7075 3.5791L8.90088 1.69922C7.95702 1.39369 8.17656 0.000314199 9.16846 0H32.1606Z" fill="white"/>
<path d="M23.5643 32.8041V35.2934C23.5609 35.5166 23.551 35.7374 23.5233 35.9106C23.449 36.3768 23.2582 36.8171 22.9695 37.1909C22.4289 37.8891 21.7635 38.1983 20.908 38.3061C20.8359 38.31 20.7616 38.3143 20.6893 38.3139C19.9248 38.3076 19.1934 37.9993 18.6551 37.4565C17.7951 36.5802 17.8312 35.7118 17.8309 34.5883V32.7827L17.8319 30.9252C18.7416 31.6112 19.6777 32.2623 20.6404 32.8735C21.6117 32.2775 22.6248 31.5437 23.5633 30.8305L23.5643 32.8041ZM9.37775 20.4858H9.58283C9.91526 22.545 11.1798 24.5266 12.6385 26.2104H9.39631C8.9927 26.2102 8.41797 26.2271 8.03205 26.1508C7.49096 26.0439 6.99279 25.7816 6.59748 25.3969C6.05231 24.8677 5.7417 24.1421 5.73517 23.3823C5.72388 22.6153 6.02049 21.8753 6.55842 21.3286C6.95852 20.9311 7.46529 20.6585 8.0174 20.5434C8.42033 20.4618 8.95359 20.4852 9.37775 20.4858ZM32.7117 20.4848C32.9456 20.4887 33.1766 20.5002 33.3416 20.5327C33.9028 20.6436 34.4194 20.9174 34.826 21.3198C35.3679 21.8554 35.6699 22.5881 35.6629 23.35C35.6673 24.108 35.3647 24.8353 34.825 25.3676C33.9305 26.2579 33.0779 26.2104 31.9217 26.2104H30.201L28.6238 26.2094C30.1071 24.5068 31.3667 22.5402 31.6951 20.4848H32.7117ZM20.5369 8.38325C21.3198 8.31028 22.1688 8.66598 22.7195 9.2143C23.125 9.61599 23.3992 10.1311 23.5057 10.6918C23.5841 11.0937 23.5643 11.6648 23.5643 12.0864L23.5633 13.85L23.5623 14.4868C22.8972 14.7721 22.2798 15.1566 21.7664 15.6186C21.3062 16.0329 21.0042 16.3898 20.6346 16.8823C19.9365 15.8713 18.9533 15.0437 17.8309 14.5327V12.0688C17.8308 11.6917 17.8179 11.0879 17.8836 10.726C17.9792 10.2074 18.2148 9.7244 18.5643 9.32953C19.065 8.76126 19.7851 8.43299 20.5369 8.38325Z" fill="white"/>
<path d="M25.6413 23.2542C25.7556 23.5101 26.0739 23.6 26.3053 23.4417L27.0309 22.9456H28.613C27.6964 24.8444 25.9794 26.5525 24.5534 27.7982C24.245 28.0832 23.7436 28.4847 23.4098 28.7435C22.5683 29.396 21.6108 30.1082 20.7028 30.6654C19.1388 29.6726 17.6622 28.548 16.2887 27.305C15.0307 26.165 13.6003 24.6335 12.7897 22.9456H17.2028L18.7673 23.5189C18.9689 23.5925 19.195 23.514 19.3063 23.3304L19.7682 22.5677L21.1188 26.0218C21.274 26.4168 21.8403 26.3969 21.9665 25.9915L22.8024 23.2972H23.6354C23.8066 23.297 23.9632 23.1989 24.0387 23.0452L24.8307 21.4329L25.6413 23.2542ZM25.2048 16.1146C26.3502 16.183 27.4222 16.7018 28.1862 17.5579C28.9757 18.4567 29.3498 19.5951 29.2458 20.7796C29.2025 21.2715 29.0861 21.7578 28.9137 22.2347H26.9508C26.8831 22.2347 26.816 22.2496 26.7555 22.2786L26.6969 22.3128L26.1628 22.6771L25.2536 20.6331L25.2204 20.5716C25.0503 20.304 24.6545 20.2962 24.4743 20.557L24.4391 20.6175L23.4733 22.5853H22.61C22.4377 22.5853 22.2827 22.6837 22.2077 22.8343L22.1813 22.9017L21.5085 25.0657L20.238 21.8148C20.1107 21.49 19.686 21.4336 19.4743 21.6898L19.4352 21.7454L18.8092 22.7767L17.4049 22.262L17.3288 22.2415C17.3029 22.2369 17.276 22.2347 17.2497 22.2347H12.4909C12.3075 21.7267 12.1859 21.2083 12.1491 20.6849C11.9776 18.246 13.8501 16.2323 16.2936 16.1136C16.6718 16.0956 17.0435 16.1423 17.4147 16.2103C18.7372 16.4523 19.9373 17.2721 20.6979 18.3734C20.9819 17.9949 21.2143 17.721 21.568 17.4027C22.5171 16.5486 23.9269 16.0348 25.2048 16.1146Z" fill="white"/>
</svg>
