<svg width="60" height="68" viewBox="0 0 60 68" fill="none" xmlns="http://www.w3.org/2000/svg">
<path d="M28.5496 51.5305C29.042 50.7802 30.142 50.7802 30.6344 51.5305L37.4632 61.936C37.6191 62.1735 37.8513 62.3507 38.1216 62.4381L46.436 65.1295C47.7876 65.567 47.4727 67.5626 46.0521 67.5626H13.1319C11.7112 67.5626 11.3963 65.567 12.7479 65.1295L21.0624 62.4381C21.3327 62.3507 21.565 62.1735 21.7209 61.936L28.5496 51.5305Z" fill="url(#paint0_linear_87_1091)"/>
<path d="M28.5496 16.032C29.042 16.7823 30.142 16.7823 30.6344 16.032L37.4632 5.62649C37.6191 5.389 37.8513 5.21184 38.1216 5.12436L46.4361 2.43297C47.7876 1.99545 47.4727 -8.32578e-05 46.0521 -8.32578e-05L13.1319 -8.32578e-05C11.7112 -8.32578e-05 11.3963 1.99546 12.7479 2.43297L21.0624 5.12436C21.3327 5.21184 21.565 5.389 21.7209 5.62649L28.5496 16.032Z" fill="url(#paint1_linear_87_1091)"/>
<path d="M24.2715 51.2072C24.2715 51.5476 24.0564 51.8508 23.7351 51.9633L15.1666 54.9639C15.0815 54.9937 14.992 55.0089 14.9019 55.0089H14.6878C14.2454 55.0089 13.8867 54.6502 13.8867 54.2078V41.3238C13.8867 41.0351 14.0421 40.7687 14.2934 40.6265L23.0759 35.6588C23.61 35.3567 24.2715 35.7425 24.2715 36.3561V51.2072ZM35.7695 47.1808C35.7695 47.5212 35.5544 47.8245 35.2331 47.9369L26.4506 51.0117C25.9297 51.1941 25.3848 50.8075 25.3848 50.2556V35.3972C25.3848 35.1371 25.511 34.8933 25.7233 34.7431L34.5058 28.5316C35.0364 28.1563 35.7695 28.5358 35.7695 29.1857V47.1808ZM47.2666 43.7229C47.2666 43.7234 47.2662 43.7238 47.2658 43.7238C47.2657 43.7238 47.2656 43.7238 47.2655 43.7238L37.9477 46.9863C37.4268 47.1687 36.8818 46.7821 36.8818 46.2302V28.0398C36.8818 27.7868 37.0013 27.5487 37.2041 27.3975L45.9866 20.849C46.515 20.4551 47.2666 20.8322 47.2666 21.4913V43.7229Z" fill="url(#paint2_linear_87_1091)"/>
<path d="M47.383 12.0557C48.0159 12.1009 48.4206 12.7497 48.1828 13.338L45.8977 18.9923C45.6112 19.7002 44.6418 19.7847 44.2375 19.1368L43.633 18.1671L33.9455 23.6085L34.3274 24.2755C34.5836 24.7235 34.4286 25.2945 33.9807 25.5508L24.3352 31.0674L24.9524 32.1866C25.2014 32.6387 25.0362 33.207 24.5842 33.4561L11.6955 40.5557C11.2435 40.8044 10.675 40.6405 10.426 40.1885L9.00899 37.6153C8.76008 37.1633 8.92532 36.5949 9.37716 36.3458L18.674 31.2237L18.0803 30.1856C17.8241 29.7377 17.9792 29.1666 18.427 28.9102L27.5617 23.6846L27.1604 22.9835C26.9039 22.5346 27.0606 21.9626 27.51 21.7071L41.0471 14.0206L40.4406 13.0479C40.0366 12.3999 40.5383 11.567 41.3 11.6212L47.383 12.0557ZM11.632 40.4385L11.6311 40.4395L24.5197 33.3399V33.3389L11.632 40.4385ZM18.1955 30.1202L18.8567 31.2755L9.6545 36.3458L18.8576 31.2755L18.1965 30.1192L18.1955 30.1202ZM18.424 29.0704C18.4206 29.0728 18.4176 29.0757 18.4143 29.0782C18.4393 29.0597 18.4657 29.0423 18.4934 29.0264L18.424 29.0704ZM44.3508 19.0655C44.3682 19.0933 44.3878 19.1189 44.4074 19.1436C44.3879 19.119 44.3691 19.0932 44.3518 19.0655L43.675 17.9805H43.674L44.3508 19.0655Z" fill="url(#paint3_linear_87_1091)"/>
<path d="M16.613 9.45153C17.367 8.90379 18.423 9.07198 18.9685 9.82751L22.0007 14.0297C22.5434 14.782 22.3753 15.832 21.6248 16.3773L11.4158 23.7943C9.20267 25.4025 8.27646 28.253 9.12183 30.8549L9.86499 33.1439L7.90991 34.222C6.34107 35.0862 5.76935 37.0585 6.63355 38.6273L8.30249 41.6566C8.99741 42.9175 10.4081 43.5325 11.7498 43.2767V55.0111C11.7499 56.1908 12.7067 57.1478 13.8865 57.1478H15.0437C15.284 57.1478 15.5229 57.1071 15.7498 57.0277L20.6794 55.3002L18.239 58.6752C17.9224 59.1127 17.4136 59.3814 16.8757 59.3324C13.2233 58.9992 9.44124 56.5905 8.32398 53.1527L0.441163 28.889C-0.76382 25.1805 0.556139 21.1177 3.71069 18.8256L16.613 9.45153ZM55.572 18.8256C58.7264 21.1177 60.0465 25.1806 58.8416 28.889L50.9578 53.1527C49.8402 56.5912 45.9208 59 42.2478 59.3324C41.71 59.381 41.2022 59.1126 40.8855 58.6752L37.5955 54.1293C37.0262 53.3427 37.5884 52.2425 38.5593 52.2425C41.2951 52.2424 43.7197 50.4801 44.5652 47.8783L44.9099 46.8158L47.9714 45.7445L47.9705 45.7425C48.8038 45.4513 49.403 44.6606 49.4031 43.7279V32.9886L50.0964 30.8549C50.6942 29.0152 50.4053 27.0518 49.4031 25.4906V20.8295C49.4031 20.1542 49.0887 19.5531 48.5994 19.1615L50.2878 14.9867L55.572 18.8256ZM11.7498 40.3744L11.4041 40.5648C11.3715 40.5827 11.3376 40.5971 11.3035 40.6078C11.2717 40.6177 11.2391 40.6235 11.2068 40.6273C11.2737 40.6193 11.3404 40.5993 11.4031 40.5648L11.7498 40.3734V40.3744ZM10.6697 40.3519C10.6864 40.3823 10.706 40.4101 10.7273 40.4359C10.7061 40.4103 10.6863 40.383 10.6697 40.3529L9.00073 37.3226L10.6697 40.3519ZM43.2302 18.0961L42.1873 18.6927H42.1853L43.2302 18.0951C43.26 18.078 43.287 18.058 43.3123 18.0365C43.287 18.0582 43.2602 18.0789 43.2302 18.0961Z" fill="url(#paint4_linear_87_1091)"/>
<defs>
<linearGradient id="paint0_linear_87_1091" x1="29.5919" y1="49.9421" x2="29.5949" y2="67.5626" gradientUnits="userSpaceOnUse">
<stop stop-color="#003CEC"/>
<stop offset="1" stop-color="#00B0D8"/>
</linearGradient>
<linearGradient id="paint1_linear_87_1091" x1="29.5919" y1="17.6204" x2="29.5949" y2="-8.34328e-05" gradientUnits="userSpaceOnUse">
<stop stop-color="#003CEC"/>
<stop offset="1" stop-color="#00B0D8"/>
</linearGradient>
<linearGradient id="paint2_linear_87_1091" x1="30.5767" y1="20.6887" x2="30.5929" y2="55.0089" gradientUnits="userSpaceOnUse">
<stop stop-color="#003CEC"/>
<stop offset="1" stop-color="#00B0D8"/>
</linearGradient>
<linearGradient id="paint3_linear_87_1091" x1="28.5724" y1="11.6187" x2="28.5823" y2="40.6718" gradientUnits="userSpaceOnUse">
<stop stop-color="#003CEC"/>
<stop offset="1" stop-color="#00B0D8"/>
</linearGradient>
<linearGradient id="paint4_linear_87_1091" x1="29.6413" y1="9.12964" x2="29.6609" y2="59.3383" gradientUnits="userSpaceOnUse">
<stop stop-color="#003CEC"/>
<stop offset="1" stop-color="#00B0D8"/>
</linearGradient>
</defs>
</svg>
