<svg width="405" height="405" viewBox="0 0 405 405" fill="none" xmlns="http://www.w3.org/2000/svg">
<path d="M67.841 28.5822C62.5452 7.02634 87.8386 -8.78356 104.895 5.42103L215.478 97.5128C221.091 102.187 228.591 103.918 235.684 102.175L375.436 67.8411C396.992 62.5453 412.802 87.8387 398.597 104.895L306.506 215.478C301.831 221.091 300.101 228.591 301.844 235.684L336.177 375.436C341.473 396.992 316.18 412.802 299.123 398.598L188.54 306.506C182.927 301.831 175.428 300.101 168.334 301.844L28.5821 336.178C7.02623 341.473 -8.78367 316.18 5.42093 299.123L97.5127 188.54C102.187 182.927 103.917 175.428 102.175 168.334L67.841 28.5822Z" fill="url(#paint0_linear_79_1310)"/>
<defs>
<linearGradient id="paint0_linear_79_1310" x1="-38.2896" y1="236.364" x2="366.349" y2="7.55394" gradientUnits="userSpaceOnUse">
<stop stop-color="#FFBB00"/>
<stop offset="0.44881" stop-color="#BE3F93"/>
<stop offset="0.733624" stop-color="#003CEC"/>
<stop offset="1" stop-color="white"/>
</linearGradient>
</defs>
</svg>
