<svg width="633" height="627" viewBox="0 0 633 627" fill="none" xmlns="http://www.w3.org/2000/svg">
<path d="M3.92519 110.46C-7.46394 94.8647 7.76513 73.8087 26.1426 79.7421L282.08 162.374C288.103 164.319 294.691 163.287 299.831 159.594L516.644 3.83105C532.2 -7.34466 553.027 7.71884 547.284 25.9918L467.239 280.674C465.341 286.711 466.424 293.291 470.156 298.402L628.769 515.598C640.158 531.194 624.929 552.25 606.552 546.317L350.614 463.685C344.591 461.74 338.003 462.772 332.863 466.464L116.05 622.228C100.494 633.403 79.667 618.34 85.4101 600.067L165.456 345.385C167.353 339.348 166.271 332.768 162.538 327.657L3.92519 110.46Z" fill="url(#paint0_linear_83_1314)"/>
<defs>
<linearGradient id="paint0_linear_83_1314" x1="89.4322" y1="245.246" x2="466.51" y2="470.067" gradientUnits="userSpaceOnUse">
<stop stop-color="#003CEC"/>
<stop offset="0.261982" stop-color="#00B0D8"/>
<stop offset="0.50133" stop-color="#FDFFFF" stop-opacity="0.1"/>
<stop offset="0.788883" stop-color="#003CEC"/>
</linearGradient>
</defs>
</svg>
