<svg width="831" height="831" viewBox="0 0 831 831" fill="none" xmlns="http://www.w3.org/2000/svg">
<g opacity="0.62">
<path d="M349.76 115.791C352.974 96.555 378.879 92.5828 387.709 109.972L485.862 303.248C488.768 308.971 494.219 312.972 500.549 314.03L714.356 349.76C733.592 352.974 737.564 378.879 720.175 387.709L526.898 485.862C521.176 488.768 517.174 494.219 516.117 500.549L480.387 714.356C477.173 733.592 451.268 737.564 442.438 720.175L344.285 526.898C341.379 521.176 335.928 517.174 329.598 516.117L115.791 480.387C96.555 477.173 92.5828 451.268 109.972 442.438L303.248 344.285C308.971 341.379 312.972 335.928 314.03 329.598L349.76 115.791Z" fill="url(#paint0_linear_78_1302)"/>
</g>
<defs>
<linearGradient id="paint0_linear_78_1302" x1="230.789" y1="119.437" x2="375.818" y2="666.195" gradientUnits="userSpaceOnUse">
<stop offset="0.134615" stop-color="#003CEC"/>
<stop offset="0.5" stop-color="#FDFFFF" stop-opacity="0"/>
<stop offset="0.721154" stop-color="#00B0D8"/>
<stop offset="1" stop-color="#003CEC"/>
</linearGradient>
</defs>
</svg>
